<svg width="25" height="23" viewBox="0 0 25 23" fill="none" xmlns="http://www.w3.org/2000/svg">
<path d="M10.352 9.8721C12.921 9.8721 15.0036 7.80458 15.0036 5.25416C15.0036 2.70375 12.921 0.63623 10.352 0.63623C7.78297 0.63623 5.70036 2.70375 5.70036 5.25416C5.70036 7.80458 7.78297 9.8721 10.352 9.8721Z" fill="url(#paint0_linear_2382_33558)"/>
<path d="M1.53309 20.7705C0.587489 20.7705 -0.1367 19.9278 0.0218674 19.0024C0.868849 14.0572 5.20528 10.2916 10.4283 10.2916C15.6514 10.2916 19.9878 14.0572 20.8348 19.0024C20.9934 19.9278 20.2692 20.7705 19.3236 20.7705H1.53309Z" fill="url(#paint1_linear_2382_33558)"/>
<circle cx="17.5093" cy="15.9996" r="6.6363" fill="white"/>
<path d="M17.5091 22.0767C19.1209 22.0767 20.6667 21.4364 21.8064 20.2967C22.9462 19.1569 23.5865 17.6111 23.5865 15.9993C23.5865 14.3875 22.9462 12.8416 21.8064 11.7019C20.6667 10.5622 19.1209 9.92188 17.5091 9.92188C15.8972 9.92188 14.3514 10.5622 13.2117 11.7019C12.0719 12.8416 11.4316 14.3875 11.4316 15.9993C11.4316 17.6111 12.0719 19.1569 13.2117 20.2967C14.3514 21.4364 15.8972 22.0767 17.5091 22.0767ZM18.2156 14.9266L17.4559 18.5009C17.4027 18.7592 17.4779 18.9058 17.6868 18.9058C17.8342 18.9058 18.0568 18.8526 18.208 18.7189L18.1411 19.035C17.9231 19.2978 17.4422 19.4893 17.0282 19.4893C16.4941 19.4893 16.267 19.1687 16.4144 18.4872L16.975 15.8527C17.0236 15.6301 16.9796 15.5496 16.757 15.4956L16.4144 15.4341L16.4767 15.1447L18.2163 14.9266H18.2156ZM17.5091 14.1001C17.3076 14.1001 17.1144 14.0201 16.9719 13.8776C16.8294 13.7351 16.7494 13.5419 16.7494 13.3404C16.7494 13.1389 16.8294 12.9457 16.9719 12.8033C17.1144 12.6608 17.3076 12.5807 17.5091 12.5807C17.7105 12.5807 17.9038 12.6608 18.0462 12.8033C18.1887 12.9457 18.2687 13.1389 18.2687 13.3404C18.2687 13.5419 18.1887 13.7351 18.0462 13.8776C17.9038 14.0201 17.7105 14.1001 17.5091 14.1001Z" fill="url(#paint2_linear_2382_33558)"/>
<defs>
<linearGradient id="paint0_linear_2382_33558" x1="7.65321" y1="1.87585" x2="10.4283" y2="20.7705" gradientUnits="userSpaceOnUse">
<stop stop-color="#686C77"/>
<stop offset="0.909728" stop-color="#4C505B"/>
</linearGradient>
<linearGradient id="paint1_linear_2382_33558" x1="7.65321" y1="1.87585" x2="10.4283" y2="20.7705" gradientUnits="userSpaceOnUse">
<stop stop-color="#686C77"/>
<stop offset="0.909728" stop-color="#4C505B"/>
</linearGradient>
<linearGradient id="paint2_linear_2382_33558" x1="17.5091" y1="9.92188" x2="21.5707" y2="22.0767" gradientUnits="userSpaceOnUse">
<stop stop-color="#FF6565"/>
<stop offset="1" stop-color="#FF3131"/>
</linearGradient>
</defs>
</svg>
