 <svg width="21" height="20" viewBox="0 0 21 20" fill="none" xmlns="http://www.w3.org/2000/svg">
    <path
        d="M18.8838 9.99961C18.8838 10.3262 18.65 10.5934 18.3234 10.5934H4.82005L9.85647 16.1346C10.0769 16.377 10.0589 16.7529 9.81646 16.973C9.7017 17.0736 9.55696 17.1256 9.41592 17.1256C9.2547 17.1256 9.09347 17.0606 8.97649 16.9307L3.03819 10.3986C2.83232 10.1724 2.83232 9.82666 3.03819 9.60063L8.97649 3.06851C9.19802 2.82496 9.57366 2.80871 9.81564 3.0279C10.058 3.24829 10.076 3.62396 9.85565 3.86632L4.82005 9.40578H18.3234C18.65 9.40578 18.8838 9.673 18.8838 9.99961Z"
        fill="#A3AAC2" />
</svg>