<svg width="25" height="25" viewBox="0 0 25 25" fill="none" xmlns="http://www.w3.org/2000/svg">
<g clip-path="url(#clip0_2386_78030)">
<path d="M11.631 1.43034C11.9063 1.4335 12.1111 1.60616 12.2015 1.91991C12.4788 2.88536 12.7415 3.85608 13.0325 4.81733C13.9496 7.84529 15.9393 9.78778 18.967 10.669C19.8884 10.9375 20.8118 11.1965 21.7331 11.4618C22.083 11.5629 22.2531 11.7534 22.2542 12.0324C22.2563 12.3114 22.084 12.5083 21.7384 12.6083C20.6584 12.921 19.5627 13.1895 18.4985 13.5506C15.662 14.514 13.8403 16.4723 12.9999 19.3476C12.7278 20.2783 12.4683 21.2132 12.2025 22.146C12.0985 22.5103 11.9052 22.6893 11.6195 22.6861C11.3348 22.683 11.153 22.5082 11.0459 22.1355C10.7517 21.1111 10.4859 20.0772 10.1592 19.0633C9.23893 16.2069 7.33113 14.3371 4.46943 13.4569C3.48611 13.1548 2.49124 12.8894 1.50268 12.6052C1.16965 12.5115 0.988956 12.302 0.99631 12.023C1.00366 11.7524 1.17805 11.5597 1.50268 11.466C2.67509 11.1249 3.87167 10.8522 5.01467 10.43C7.72298 9.42982 9.45534 7.48522 10.2569 4.70888C10.5259 3.77712 10.7864 2.84325 11.0532 1.91043C11.1404 1.60301 11.3568 1.42718 11.631 1.43034Z" fill="#50545F"/>
<path d="M11.631 1.43034C11.9063 1.4335 12.1111 1.60616 12.2015 1.91991C12.4788 2.88536 12.7415 3.85608 13.0325 4.81733C13.9496 7.84529 15.9393 9.78778 18.967 10.669C19.8884 10.9375 20.8118 11.1965 21.7331 11.4618C22.083 11.5629 22.2531 11.7534 22.2542 12.0324C22.2563 12.3114 22.084 12.5083 21.7384 12.6083C20.6584 12.921 19.5627 13.1895 18.4985 13.5506C15.662 14.514 13.8403 16.4723 12.9999 19.3476C12.7278 20.2783 12.4683 21.2132 12.2025 22.146C12.0985 22.5103 11.9052 22.6893 11.6195 22.6861C11.3348 22.683 11.153 22.5082 11.0459 22.1355C10.7517 21.1111 10.4859 20.0772 10.1592 19.0633C9.23893 16.2069 7.33113 14.3371 4.46943 13.4569C3.48611 13.1548 2.49124 12.8894 1.50268 12.6052C1.16965 12.5115 0.988956 12.302 0.99631 12.023C1.00366 11.7524 1.17805 11.5597 1.50268 11.466C2.67509 11.1249 3.87167 10.8522 5.01467 10.43C7.72298 9.42982 9.45534 7.48522 10.2569 4.70888C10.5259 3.77712 10.7864 2.84325 11.0532 1.91043C11.1404 1.60301 11.3568 1.42718 11.631 1.43034Z" fill="url(#paint0_linear_2386_78030)"/>
<path d="M17.8866 5.61685L17.8867 5.617C17.9472 5.82783 18.0063 6.03759 18.0651 6.24662C18.1772 6.64455 18.2884 7.03982 18.408 7.4347M17.8866 5.61685L21.6042 12.9962C22.0564 12.8428 22.5177 12.716 22.9788 12.5892C23.1997 12.5284 23.4207 12.4677 23.6406 12.404L23.7101 12.6441C23.7101 12.6441 23.7101 12.6441 23.7101 12.6441C23.848 12.6042 23.9765 12.538 24.0714 12.4314C24.1701 12.3205 24.2158 12.1844 24.2148 12.0406M17.8866 5.61685C17.8479 5.48237 17.7792 5.35951 17.6731 5.26888C17.5647 5.17634 17.4318 5.12996 17.2907 5.12834L17.8866 5.61685ZM18.408 7.4347L18.1687 7.50713M18.408 7.4347L18.1687 7.50713M18.408 7.4347C18.9596 9.25592 20.1457 10.4145 21.9686 10.945L21.9687 10.9451C22.3118 11.045 22.6539 11.1425 22.9967 11.2402C23.2328 11.3074 23.4692 11.3748 23.7065 11.4431L23.7067 11.4432C23.844 11.4828 23.9727 11.5474 24.0683 11.6527C24.1684 11.7628 24.2142 11.898 24.2148 12.0406M18.1687 7.50713C18.7451 9.41029 19.9957 10.6312 21.8987 11.1851L17.2879 5.37832C17.4609 5.38031 17.5896 5.48883 17.6464 5.68603C17.7062 5.89407 17.7648 6.1025 17.8235 6.31095C17.936 6.71049 18.0485 7.1101 18.1687 7.50713ZM24.2148 12.0406C24.2148 12.0405 24.2148 12.0403 24.2148 12.0401L23.9648 12.042L24.2148 12.0411C24.2148 12.0409 24.2148 12.0408 24.2148 12.0406ZM10.8523 11.4459C11.0933 11.3758 11.3311 11.3114 11.5662 11.2477C12.0694 11.1115 12.5602 10.9785 13.0427 10.8003L13.0427 10.8003C14.6666 10.2006 15.7011 9.04223 16.184 7.36964C16.2815 7.03181 16.3768 6.69513 16.4723 6.35767C16.5426 6.10956 16.6129 5.86103 16.6843 5.61132C16.7643 5.33014 16.9859 5.12483 17.2907 5.12834L12.7131 13.1763C12.3084 13.0519 11.9032 12.9383 11.4947 12.8238C11.2818 12.7641 11.068 12.7041 10.8528 12.6423M10.8523 11.4459C10.8524 11.4459 10.8525 11.4458 10.8526 11.4458L10.9219 11.686L10.8521 11.446C10.8522 11.4459 10.8522 11.4459 10.8523 11.4459ZM10.8523 11.4459C10.7195 11.4843 10.5958 11.549 10.5029 11.6513C10.4068 11.7571 10.3576 11.8882 10.3537 12.0293L10.3537 12.0295C10.3499 12.1768 10.397 12.3151 10.4937 12.4266C10.5872 12.5343 10.7147 12.6032 10.8528 12.6423M10.8528 12.6423C10.8533 12.6424 10.8537 12.6425 10.8542 12.6427L10.9219 12.402L10.8528 12.6423Z" fill="#5E626D"/>
<path d="M17.8866 5.61685L17.8867 5.617C17.9472 5.82783 18.0063 6.03759 18.0651 6.24662C18.1772 6.64455 18.2884 7.03982 18.408 7.4347M17.8866 5.61685L21.6042 12.9962C22.0564 12.8428 22.5177 12.716 22.9788 12.5892C23.1997 12.5284 23.4207 12.4677 23.6406 12.404L23.7101 12.6441C23.7101 12.6441 23.7101 12.6441 23.7101 12.6441C23.848 12.6042 23.9765 12.538 24.0714 12.4314C24.1701 12.3205 24.2158 12.1844 24.2148 12.0406M17.8866 5.61685C17.8479 5.48237 17.7792 5.35951 17.6731 5.26888C17.5647 5.17634 17.4318 5.12996 17.2907 5.12834L17.8866 5.61685ZM18.408 7.4347L18.1687 7.50713M18.408 7.4347L18.1687 7.50713M18.408 7.4347C18.9596 9.25592 20.1457 10.4145 21.9686 10.945L21.9687 10.9451C22.3118 11.045 22.6539 11.1425 22.9967 11.2402C23.2328 11.3074 23.4692 11.3748 23.7065 11.4431L23.7067 11.4432C23.844 11.4828 23.9727 11.5474 24.0683 11.6527C24.1684 11.7628 24.2142 11.898 24.2148 12.0406M18.1687 7.50713C18.7451 9.41029 19.9957 10.6312 21.8987 11.1851L17.2879 5.37832C17.4609 5.38031 17.5896 5.48883 17.6464 5.68603C17.7062 5.89407 17.7648 6.1025 17.8235 6.31095C17.936 6.71049 18.0485 7.1101 18.1687 7.50713ZM24.2148 12.0406C24.2148 12.0405 24.2148 12.0403 24.2148 12.0401L23.9648 12.042L24.2148 12.0411C24.2148 12.0409 24.2148 12.0408 24.2148 12.0406ZM10.8523 11.4459C11.0933 11.3758 11.3311 11.3114 11.5662 11.2477C12.0694 11.1115 12.5602 10.9785 13.0427 10.8003L13.0427 10.8003C14.6666 10.2006 15.7011 9.04223 16.184 7.36964C16.2815 7.03181 16.3768 6.69513 16.4723 6.35767C16.5426 6.10956 16.6129 5.86103 16.6843 5.61132C16.7643 5.33014 16.9859 5.12483 17.2907 5.12834L12.7131 13.1763C12.3084 13.0519 11.9032 12.9383 11.4947 12.8238C11.2818 12.7641 11.068 12.7041 10.8528 12.6423M10.8523 11.4459C10.8524 11.4459 10.8525 11.4458 10.8526 11.4458L10.9219 11.686L10.8521 11.446C10.8522 11.4459 10.8522 11.4459 10.8523 11.4459ZM10.8523 11.4459C10.7195 11.4843 10.5958 11.549 10.5029 11.6513C10.4068 11.7571 10.3576 11.8882 10.3537 12.0293L10.3537 12.0295C10.3499 12.1768 10.397 12.3151 10.4937 12.4266C10.5872 12.5343 10.7147 12.6032 10.8528 12.6423M10.8528 12.6423C10.8533 12.6424 10.8537 12.6425 10.8542 12.6427L10.9219 12.402L10.8528 12.6423Z" fill="url(#paint1_linear_2386_78030)"/>
<path d="M17.8866 5.61685L17.8867 5.617C17.9472 5.82783 18.0063 6.03759 18.0651 6.24662C18.1772 6.64455 18.2884 7.03982 18.408 7.4347M17.8866 5.61685L21.6042 12.9962C22.0564 12.8428 22.5177 12.716 22.9788 12.5892C23.1997 12.5284 23.4207 12.4677 23.6406 12.404L23.7101 12.6441C23.7101 12.6441 23.7101 12.6441 23.7101 12.6441C23.848 12.6042 23.9765 12.538 24.0714 12.4314C24.1701 12.3205 24.2158 12.1844 24.2148 12.0406M17.8866 5.61685C17.8479 5.48237 17.7792 5.35951 17.6731 5.26888C17.5647 5.17634 17.4318 5.12996 17.2907 5.12834L17.8866 5.61685ZM18.408 7.4347L18.1687 7.50713M18.408 7.4347L18.1687 7.50713M18.408 7.4347C18.9596 9.25592 20.1457 10.4145 21.9686 10.945L21.9687 10.9451C22.3118 11.045 22.6539 11.1425 22.9967 11.2402C23.2328 11.3074 23.4692 11.3748 23.7065 11.4431L23.7067 11.4432C23.844 11.4828 23.9727 11.5474 24.0683 11.6527C24.1684 11.7628 24.2142 11.898 24.2148 12.0406M18.1687 7.50713C18.7451 9.41029 19.9957 10.6312 21.8987 11.1851L17.2879 5.37832C17.4609 5.38031 17.5896 5.48883 17.6464 5.68603C17.7062 5.89407 17.7648 6.1025 17.8235 6.31095C17.936 6.71049 18.0485 7.1101 18.1687 7.50713ZM24.2148 12.0406C24.2148 12.0405 24.2148 12.0403 24.2148 12.0401L23.9648 12.042L24.2148 12.0411C24.2148 12.0409 24.2148 12.0408 24.2148 12.0406ZM10.8523 11.4459C11.0933 11.3758 11.3311 11.3114 11.5662 11.2477C12.0694 11.1115 12.5602 10.9785 13.0427 10.8003L13.0427 10.8003C14.6666 10.2006 15.7011 9.04223 16.184 7.36964C16.2815 7.03181 16.3768 6.69513 16.4723 6.35767C16.5426 6.10956 16.6129 5.86103 16.6843 5.61132C16.7643 5.33014 16.9859 5.12483 17.2907 5.12834L12.7131 13.1763C12.3084 13.0519 11.9032 12.9383 11.4947 12.8238C11.2818 12.7641 11.068 12.7041 10.8528 12.6423M10.8523 11.4459C10.8524 11.4459 10.8525 11.4458 10.8526 11.4458L10.9219 11.686L10.8521 11.446C10.8522 11.4459 10.8522 11.4459 10.8523 11.4459ZM10.8523 11.4459C10.7195 11.4843 10.5958 11.549 10.5029 11.6513C10.4068 11.7571 10.3576 11.8882 10.3537 12.0293L10.3537 12.0295C10.3499 12.1768 10.397 12.3151 10.4937 12.4266C10.5872 12.5343 10.7147 12.6032 10.8528 12.6423M10.8528 12.6423C10.8533 12.6424 10.8537 12.6425 10.8542 12.6427L10.9219 12.402L10.8528 12.6423Z" stroke="white" stroke-width="0.5"/>
</g>
<defs>
<linearGradient id="paint0_linear_2386_78030" x1="7.50292" y1="1.4303" x2="9.19444" y2="17.4455" gradientUnits="userSpaceOnUse">
<stop stop-color="#696D78"/>
<stop offset="1" stop-color="#4C505B"/>
</linearGradient>
<linearGradient id="paint1_linear_2386_78030" x1="15.4717" y1="6.45702" x2="17.6026" y2="18.6827" gradientUnits="userSpaceOnUse">
<stop stop-color="#FF6E6E"/>
<stop offset="1" stop-color="#FF3131"/>
</linearGradient>
<clipPath id="clip0_2386_78030">
<rect width="24" height="24" fill="white" transform="translate(0.480469 0.0582275)"/>
</clipPath>
</defs>
</svg>
