<svg width="25" height="24" viewBox="0 0 25 24" fill="none" xmlns="http://www.w3.org/2000/svg">
<g clip-path="url(#clip0_2455_103019)">
<g clip-path="url(#clip1_2455_103019)">
<path d="M13.9988 1H3.61201C2.71039 1 1.97852 1.59885 1.97852 2.33678V21.1498C1.97852 21.8885 2.71039 22.4866 3.61201 22.4866H7.34717H10.0315H13.9996C14.902 22.4866 15.6331 21.8878 15.6331 21.1498V2.33678C15.6331 1.59885 14.9012 1 13.9988 1ZM7.19559 15.8498C7.19559 16.0608 7.02111 16.2316 6.80557 16.2316H5.73184C5.5163 16.2316 5.34182 16.0608 5.34182 15.8498V14.4173C5.34182 14.2063 5.5163 14.0355 5.73184 14.0355H6.80478C7.02032 14.0355 7.1948 14.2063 7.1948 14.4173V15.8498H7.19559ZM7.19559 12.3642C7.19559 12.5751 7.02111 12.7459 6.80557 12.7459H5.73184C5.5163 12.7459 5.34182 12.5751 5.34182 12.3642V10.9316C5.34182 10.7206 5.5163 10.5499 5.73184 10.5499H6.80478C7.02032 10.5499 7.1948 10.7206 7.1948 10.9316V12.3642H7.19559ZM7.19559 8.8785C7.19559 9.08945 7.02111 9.26022 6.80557 9.26022H5.73184C5.5163 9.26022 5.34182 9.08945 5.34182 8.8785V7.44591C5.34182 7.23496 5.5163 7.06419 5.73184 7.06419H6.80478C7.02032 7.06419 7.1948 7.23496 7.1948 7.44591V8.8785H7.19559ZM7.19559 5.39283C7.19559 5.60378 7.02111 5.77454 6.80557 5.77454H5.73184C5.5163 5.77454 5.34182 5.60378 5.34182 5.39283V3.96023C5.34182 3.74928 5.5163 3.57852 5.73184 3.57852H6.80478C7.02032 3.57852 7.1948 3.74928 7.1948 3.96023V5.39283H7.19559ZM12.1719 15.8498C12.1719 16.0608 11.9974 16.2316 11.7818 16.2316H10.7089C10.4934 16.2316 10.3189 16.0608 10.3189 15.8498V14.4173C10.3189 14.2063 10.4934 14.0355 10.7089 14.0355H11.7818C11.9974 14.0355 12.1719 14.2063 12.1719 14.4173V15.8498ZM7.19559 19.4429C7.19559 19.6539 7.02111 19.8246 6.80557 19.8246H5.73184C5.5163 19.8246 5.34182 19.6539 5.34182 19.4429V18.0103C5.34182 17.7994 5.5163 17.6286 5.73184 17.6286H6.80478C7.02032 17.6286 7.1948 17.7994 7.1948 18.0103V19.4429H7.19559ZM12.1719 19.4429C12.1719 19.6539 11.9974 19.8246 11.7818 19.8246H10.7089C10.4934 19.8246 10.3189 19.6539 10.3189 19.4429V18.0103C10.3189 17.7994 10.4934 17.6286 10.7089 17.6286H11.7818C11.9974 17.6286 12.1719 17.7994 12.1719 18.0103V19.4429ZM12.1719 12.3642C12.1719 12.5751 11.9974 12.7459 11.7818 12.7459H10.7089C10.4934 12.7459 10.3189 12.5751 10.3189 12.3642V10.9316C10.3189 10.7206 10.4934 10.5499 10.7089 10.5499H11.7818C11.9974 10.5499 12.1719 10.7206 12.1719 10.9316V12.3642ZM12.1719 8.8785C12.1719 9.08945 11.9974 9.26022 11.7818 9.26022H10.7089C10.4934 9.26022 10.3189 9.08945 10.3189 8.8785V7.44591C10.3189 7.23496 10.4934 7.06419 10.7089 7.06419H11.7818C11.9974 7.06419 12.1719 7.23496 12.1719 7.44591V8.8785ZM12.1719 5.39283C12.1719 5.60378 11.9974 5.77454 11.7818 5.77454H10.7089C10.4934 5.77454 10.3189 5.60378 10.3189 5.39283V3.96023C10.3189 3.74928 10.4934 3.57852 10.7089 3.57852H11.7818C11.9974 3.57852 12.1719 3.74928 12.1719 3.96023V5.39283Z" fill="url(#paint0_linear_2455_103019)"/>
<rect x="10.1821" y="12.3003" width="10.9018" height="10.1863" fill="white"/>
<path fill-rule="evenodd" clip-rule="evenodd" d="M9.43548 11.989L15.7403 7.81333C16.0089 7.63549 16.362 7.63944 16.6263 7.82324L22.6166 11.989H22.5844C22.8431 12.1126 23.0213 12.3725 23.0213 12.6732V21.9858C23.0213 22.546 22.5572 23.0002 21.9848 23.0002H19.9537C19.9826 22.937 19.9987 22.8669 19.9987 22.7931V15.0669C19.9987 14.7868 19.7667 14.5597 19.4805 14.5597H12.8982C12.612 14.5597 12.38 14.7868 12.38 15.0669V22.7931C12.38 22.8669 12.3961 22.937 12.425 23.0002H10.0648C9.49238 23.0002 9.02832 22.546 9.02832 21.9858V12.6732C9.02832 12.3725 9.20655 12.1125 9.46526 11.989H9.43548ZM11.5938 13.4556C11.5938 13.2465 11.7669 13.077 11.9805 13.077H20.0715C20.2851 13.077 20.4583 13.2465 20.4583 13.4556C20.4583 13.6647 20.2851 13.8341 20.0715 13.8341H11.9805C11.7669 13.8341 11.5938 13.6647 11.5938 13.4556Z" fill="white"/>
<path fill-rule="evenodd" clip-rule="evenodd" d="M14.1177 23H18.463C18.8982 23 19.2507 22.655 19.2507 22.2291V17.7269C19.2507 17.3011 18.8982 16.9561 18.463 16.9561H14.1177C13.6826 16.9561 13.3301 17.3011 13.3301 17.7269V22.2291C13.3301 22.655 13.6826 23 14.1177 23ZM15.7837 18.8394V16.9561H16.7971V18.8394L16.2793 18.5479L15.7837 18.8394Z" fill="white"/>
<path fill-rule="evenodd" clip-rule="evenodd" d="M9.87743 12.2135L15.7597 8.31775C16.0102 8.15183 16.3397 8.15551 16.5862 8.327L22.1751 12.2136H22.145C22.3864 12.3288 22.5526 12.5713 22.5526 12.8519V21.5403C22.5526 22.063 22.1197 22.4867 21.5856 22.4867H19.6906C19.7176 22.4277 19.7326 22.3623 19.7326 22.2935V15.0852C19.7326 14.8238 19.5162 14.6119 19.2491 14.6119H13.1081C12.8411 14.6119 12.6246 14.8238 12.6246 15.0852V22.2935C12.6246 22.3623 12.6396 22.4277 12.6666 22.4867H10.4646C9.93051 22.4867 9.49756 22.063 9.49756 21.5403V12.8519C9.49756 12.5713 9.66384 12.3288 9.90521 12.2135H9.87743ZM11.891 13.5818C11.891 13.3868 12.0526 13.2286 12.2519 13.2286H19.8005C19.9998 13.2286 20.1614 13.3868 20.1614 13.5818C20.1614 13.7769 19.9998 13.935 19.8005 13.935H12.2519C12.0526 13.935 11.891 13.7769 11.891 13.5818Z" fill="url(#paint1_linear_2455_103019)"/>
<path fill-rule="evenodd" clip-rule="evenodd" d="M14.2461 22.4865H18.3001C18.7061 22.4865 19.035 22.1646 19.035 21.7673V17.5669C19.035 17.1695 18.7061 16.8477 18.3001 16.8477H14.2461C13.8401 16.8477 13.5112 17.1695 13.5112 17.5669V21.7673C13.5112 22.1646 13.8401 22.4865 14.2461 22.4865ZM15.8003 18.6048V16.8477H16.7457V18.6048L16.2626 18.3328L15.8003 18.6048Z" fill="url(#paint2_linear_2455_103019)"/>
</g>
</g>
<defs>
<linearGradient id="paint0_linear_2455_103019" x1="6.15799" y1="1" x2="8.80579" y2="16.9295" gradientUnits="userSpaceOnUse">
<stop stop-color="#696D78"/>
<stop offset="1" stop-color="#4C505B"/>
</linearGradient>
<linearGradient id="paint1_linear_2455_103019" x1="16.0251" y1="10.8573" x2="19.7523" y2="22.4868" gradientUnits="userSpaceOnUse">
<stop stop-color="#656974"/>
<stop offset="1" stop-color="#4C505B"/>
</linearGradient>
<linearGradient id="paint2_linear_2455_103019" x1="16.2731" y1="17.6684" x2="16.2731" y2="22.4865" gradientUnits="userSpaceOnUse">
<stop stop-color="#FF6E6E"/>
<stop offset="1" stop-color="#FF3131"/>
</linearGradient>
<clipPath id="clip0_2455_103019">
<rect width="24" height="24" fill="white" transform="translate(0.5)"/>
</clipPath>
<clipPath id="clip1_2455_103019">
<rect width="21.0428" height="22.0002" fill="white" transform="translate(1.97852 1)"/>
</clipPath>
</defs>
</svg>
