<svg width="25" height="24" viewBox="0 0 25 24" fill="none" xmlns="http://www.w3.org/2000/svg">
<g id="Group 4866461">
<path id="Vector" d="M13.1833 0.133301H1.90125C0.921913 0.133301 0.126953 0.783766 0.126953 1.58531V22.02C0.126953 22.8224 0.921913 23.472 1.90125 23.472H5.95837H8.87408H13.1842C14.1644 23.472 14.9585 22.8215 14.9585 22.02V1.58531C14.9585 0.783766 14.1635 0.133301 13.1833 0.133301ZM5.79372 16.2632C5.79372 16.4923 5.6042 16.6778 5.37009 16.6778H4.2038C3.96969 16.6778 3.78017 16.4923 3.78017 16.2632V14.7071C3.78017 14.478 3.96969 14.2925 4.2038 14.2925H5.36923C5.60334 14.2925 5.79286 14.478 5.79286 14.7071V16.2632H5.79372ZM5.79372 12.477C5.79372 12.7062 5.6042 12.8917 5.37009 12.8917H4.2038C3.96969 12.8917 3.78017 12.7062 3.78017 12.477V10.921C3.78017 10.6918 3.96969 10.5063 4.2038 10.5063H5.36923C5.60334 10.5063 5.79286 10.6918 5.79286 10.921V12.477H5.79372ZM5.79372 8.69091C5.79372 8.92004 5.6042 9.10553 5.37009 9.10553H4.2038C3.96969 9.10553 3.78017 8.92004 3.78017 8.69091V7.13483C3.78017 6.9057 3.96969 6.72021 4.2038 6.72021H5.36923C5.60334 6.72021 5.79286 6.9057 5.79286 7.13483V8.69091H5.79372ZM5.79372 4.90478C5.79372 5.13391 5.6042 5.3194 5.37009 5.3194H4.2038C3.96969 5.3194 3.78017 5.13391 3.78017 4.90478V3.3487C3.78017 3.11957 3.96969 2.93408 4.2038 2.93408H5.36923C5.60334 2.93408 5.79286 3.11957 5.79286 3.3487V4.90478H5.79372ZM11.1989 16.2632C11.1989 16.4923 11.0094 16.6778 10.7753 16.6778H9.60987C9.37576 16.6778 9.18624 16.4923 9.18624 16.2632V14.7071C9.18624 14.478 9.37576 14.2925 9.60987 14.2925H10.7753C11.0094 14.2925 11.1989 14.478 11.1989 14.7071V16.2632ZM5.79372 20.166C5.79372 20.3951 5.6042 20.5806 5.37009 20.5806H4.2038C3.96969 20.5806 3.78017 20.3951 3.78017 20.166V18.6099C3.78017 18.3807 3.96969 18.1953 4.2038 18.1953H5.36923C5.60334 18.1953 5.79286 18.3807 5.79286 18.6099V20.166H5.79372ZM11.1989 20.166C11.1989 20.3951 11.0094 20.5806 10.7753 20.5806H9.60987C9.37576 20.5806 9.18624 20.3951 9.18624 20.166V18.6099C9.18624 18.3807 9.37576 18.1953 9.60987 18.1953H10.7753C11.0094 18.1953 11.1989 18.3807 11.1989 18.6099V20.166ZM11.1989 12.477C11.1989 12.7062 11.0094 12.8917 10.7753 12.8917H9.60987C9.37576 12.8917 9.18624 12.7062 9.18624 12.477V10.921C9.18624 10.6918 9.37576 10.5063 9.60987 10.5063H10.7753C11.0094 10.5063 11.1989 10.6918 11.1989 10.921V12.477ZM11.1989 8.69091C11.1989 8.92004 11.0094 9.10553 10.7753 9.10553H9.60987C9.37576 9.10553 9.18624 8.92004 9.18624 8.69091V7.13483C9.18624 6.9057 9.37576 6.72021 9.60987 6.72021H10.7753C11.0094 6.72021 11.1989 6.9057 11.1989 7.13483V8.69091ZM11.1989 4.90478C11.1989 5.13391 11.0094 5.3194 10.7753 5.3194H9.60987C9.37576 5.3194 9.18624 5.13391 9.18624 4.90478V3.3487C9.18624 3.11957 9.37576 2.93408 9.60987 2.93408H10.7753C11.0094 2.93408 11.1989 3.11957 11.1989 3.3487V4.90478Z" fill="url(#paint0_linear_3818_101792)"/>
<g id="Group 4866460">
<g id="icons2_b2b copy 4">
<g id="Group 4865971">
<g id="Group 4866465">
<path id="Subtract" fill-rule="evenodd" clip-rule="evenodd" d="M13.5906 23.8667H22.1827C23.0431 23.8667 23.7401 23.1191 23.7401 22.1963V12.4404C23.7401 11.5176 23.0431 10.77 22.1827 10.77H13.5906C12.7302 10.77 12.0332 11.5176 12.0332 12.4404V22.1963C12.0332 23.1191 12.7302 23.8667 13.5906 23.8667ZM16.2556 14.9095V10.9795H18.2595V14.9095L17.2356 14.3013L16.2556 14.9095Z" fill="white"/>
<path id="Subtract_2" fill-rule="evenodd" clip-rule="evenodd" d="M13.9622 23.5917H22.5543C23.4147 23.5917 24.1117 22.8717 24.1117 21.9831V12.5881C24.1117 11.6994 23.4147 10.9795 22.5543 10.9795H13.9622C13.1018 10.9795 12.4048 11.6994 12.4048 12.5881V21.9831C12.4048 22.8717 13.1018 23.5917 13.9622 23.5917ZM17.2555 14.9095V10.9795H19.2593V14.9095L18.2354 14.3013L17.2555 14.9095Z" fill="url(#paint1_linear_3818_101792)"/>
</g>
<path id="Vector_2" d="M17.2568 10.9795V14.9209L18.2368 14.3108L19.2607 14.9209V10.9795H17.2568Z" fill="white"/>
</g>
</g>
</g>
</g>
<defs>
<linearGradient id="paint0_linear_3818_101792" x1="4.87695" y1="6" x2="21.6346" y2="15.6196" gradientUnits="userSpaceOnUse">
<stop offset="1.07673e-07" stop-color="#70747F"/>
<stop offset="0.9944" stop-color="#1F222E"/>
</linearGradient>
<linearGradient id="paint1_linear_3818_101792" x1="9.74186" y1="10.4179" x2="19.3985" y2="27.7683" gradientUnits="userSpaceOnUse">
<stop offset="1.02546e-07" stop-color="#FF6E6E"/>
<stop offset="0.247" stop-color="#FF6565"/>
<stop offset="0.6561" stop-color="#FF4B4B"/>
<stop offset="1" stop-color="#FF3131"/>
</linearGradient>
</defs>
</svg>
