<svg width="26" height="23" viewBox="0 0 26 23" fill="none" xmlns="http://www.w3.org/2000/svg">
<g clip-path="url(#clip0_2651_32150)">
<g clip-path="url(#clip1_2651_32150)">
<g clip-path="url(#clip2_2651_32150)">
<path d="M9.97516 9.75025C12.4507 9.75025 14.4575 7.74345 14.4575 5.26795C14.4575 2.79244 12.4507 0.785645 9.97516 0.785645C7.49966 0.785645 5.49286 2.79244 5.49286 5.26795C5.49286 7.74345 7.49966 9.75025 9.97516 9.75025Z" fill="url(#paint0_linear_2651_32150)"/>
<path d="M1.47728 20.3286C0.566104 20.3286 -0.131724 19.5106 0.0210714 18.6124C0.837222 13.8124 5.0158 10.1575 10.0487 10.1575C15.0816 10.1575 19.2602 13.8124 20.0764 18.6124C20.2292 19.5106 19.5313 20.3286 18.6202 20.3286H1.47728Z" fill="url(#paint1_linear_2651_32150)"/>
<path d="M14.5695 4.52147C12.1098 5.04858 7.53282 4.82511 5.57453 4.60549C5.52843 4.04653 6.15522 0.4356 10.1954 0.441413C13.5305 0.446212 14.5978 3.07889 14.5695 4.52147Z" fill="url(#paint2_linear_2651_32150)"/>
<path d="M17.7207 3.60267C17.5179 2.6998 14.8365 2.43342 13.5212 2.41309L13.0869 4.60925C14.716 4.64992 17.9234 4.50555 17.7207 3.60267Z" fill="url(#paint3_linear_2651_32150)"/>
<path d="M21.8596 13.1839V11.2032C21.8596 10.2128 20.8692 10.2128 20.8692 10.2128H15.967C15.967 10.2128 14.8736 10.2148 14.9271 11.2032V13.1839H12.9464C12.9464 13.1839 11.9561 13.1839 11.9561 14.1742V21.1067C11.9561 22.097 12.9464 22.097 12.9464 22.097H23.8403C23.8403 22.097 24.8306 22.097 24.8306 21.1067V14.1742C24.8306 13.1839 23.8403 13.1839 23.8403 13.1839H21.8596ZM16.0666 11.4325H18.3933H20.7425V13.1839H16.0666V11.4325Z" fill="url(#paint4_linear_2651_32150)"/>
<path fill-rule="evenodd" clip-rule="evenodd" d="M23.8404 13.1839C23.8404 13.1839 24.8307 13.1839 24.8307 14.1742V21.1067C24.8307 22.097 23.8404 22.097 23.8404 22.097H12.9465C12.9465 22.097 11.9562 22.097 11.9562 21.1067V14.1742C11.9562 13.1839 12.9465 13.1839 12.9465 13.1839H14.9272V11.2032C14.8737 10.2148 15.9671 10.2128 15.9671 10.2128H20.8693C20.8693 10.2128 21.8597 10.2128 21.8597 11.2032V13.1839H23.8404ZM22.393 12.6506V11.2032C22.393 10.8623 22.3062 10.5711 22.1487 10.3348C21.9934 10.1018 21.7901 9.95313 21.603 9.8596C21.418 9.76712 21.2395 9.72353 21.1117 9.70224C21.0466 9.69138 20.9911 9.68574 20.9499 9.68279C20.9292 9.68131 20.9118 9.68049 20.8982 9.68004L20.8808 9.6796L20.8743 9.67953L20.8716 9.67951L20.8704 9.67951C20.8701 9.67951 20.8693 9.67951 20.8693 10.2128V9.67951L15.9671 9.6795V10.2128C15.9661 9.67951 15.9659 9.67951 15.9656 9.67951L15.964 9.67951L15.9615 9.67953L15.9552 9.67961L15.9378 9.68004C15.9241 9.68048 15.9062 9.68127 15.8848 9.6827C15.8421 9.68554 15.7842 9.69098 15.7161 9.70145C15.5828 9.72193 15.3953 9.76396 15.2022 9.8538C15.0081 9.94409 14.79 10.0915 14.6266 10.3308C14.4614 10.573 14.3781 10.8715 14.3939 11.2164V12.6506H12.9465V13.1839C12.9465 12.6509 12.9468 12.6506 12.9465 12.6506L12.9454 12.6506L12.9442 12.6506L12.9416 12.6506L12.9351 12.6507L12.9176 12.6511C12.9041 12.6515 12.8867 12.6524 12.866 12.6538C12.8247 12.6568 12.7693 12.6624 12.7041 12.6733C12.5763 12.6946 12.3978 12.7382 12.2128 12.8307C12.0258 12.9242 11.8225 13.0729 11.6672 13.3058C11.5096 13.5422 11.4229 13.8333 11.4229 14.1742V21.1067C11.4229 21.4476 11.5096 21.7387 11.6672 21.9751C11.8225 22.2081 12.0258 22.3567 12.2128 22.4503C12.3978 22.5427 12.5763 22.5863 12.7041 22.6076C12.7693 22.6185 12.8247 22.6241 12.866 22.6271C12.8867 22.6285 12.9041 22.6294 12.9176 22.6298L12.9351 22.6303L12.9416 22.6303L12.9442 22.6303L12.9454 22.6304C12.9457 22.6304 12.9465 22.6304 12.9465 22.097L12.9465 22.6304H23.8404V22.097C23.8404 22.6304 23.8401 22.6304 23.8404 22.6304L23.8415 22.6304L23.8427 22.6303L23.8453 22.6303L23.8518 22.6303L23.8693 22.6298C23.8828 22.6294 23.9002 22.6285 23.9209 22.6271C23.9622 22.6241 24.0176 22.6185 24.0828 22.6076C24.2106 22.5863 24.3891 22.5427 24.5741 22.4503C24.7611 22.3567 24.9644 22.2081 25.1197 21.9751C25.2773 21.7387 25.364 21.4476 25.364 21.1067V14.1742C25.364 13.8333 25.2773 13.5422 25.1197 13.3058C24.9644 13.0729 24.7611 12.9242 24.5741 12.8307C24.3891 12.7382 24.2106 12.6946 24.0828 12.6733C24.0176 12.6624 23.9622 12.6568 23.9209 12.6538C23.9002 12.6524 23.8828 12.6515 23.8693 12.6511L23.8518 12.6507L23.8453 12.6506L23.8427 12.6506L23.8415 12.6506C23.8412 12.6506 23.8404 12.6506 23.8404 13.1839V12.6506H22.393ZM20.2093 12.6506V11.9658H16.6V12.6506H20.2093ZM16.0667 11.4325V13.1839H20.7426V11.4325H16.0667Z" fill="white"/>
</g>
</g>
</g>
<defs>
<linearGradient id="paint0_linear_2651_32150" x1="6.76142" y1="4.14261" x2="10.0487" y2="20.3286" gradientUnits="userSpaceOnUse">
<stop stop-color="#676B76"/>
<stop offset="1" stop-color="#4D505C"/>
</linearGradient>
<linearGradient id="paint1_linear_2651_32150" x1="6.76142" y1="4.14261" x2="10.0487" y2="20.3286" gradientUnits="userSpaceOnUse">
<stop stop-color="#676B76"/>
<stop offset="1" stop-color="#4D505C"/>
</linearGradient>
<linearGradient id="paint2_linear_2651_32150" x1="10.0711" y1="0.441406" x2="10.0711" y2="4.84587" gradientUnits="userSpaceOnUse">
<stop stop-color="#FF6565"/>
<stop offset="1" stop-color="#FF3131"/>
</linearGradient>
<linearGradient id="paint3_linear_2651_32150" x1="15.4084" y1="2.41309" x2="15.4084" y2="4.61534" gradientUnits="userSpaceOnUse">
<stop stop-color="#FF6565"/>
<stop offset="1" stop-color="#FF3131"/>
</linearGradient>
<linearGradient id="paint4_linear_2651_32150" x1="18.3933" y1="13.9813" x2="18.3933" y2="22.097" gradientUnits="userSpaceOnUse">
<stop stop-color="#676B76"/>
<stop offset="1" stop-color="#50535F"/>
</linearGradient>
<clipPath id="clip0_2651_32150">
<rect width="25.3639" height="22.1889" fill="white" transform="translate(0 0.441406)"/>
</clipPath>
<clipPath id="clip1_2651_32150">
<rect width="25.3639" height="22.1889" fill="white" transform="translate(0 0.441406)"/>
</clipPath>
<clipPath id="clip2_2651_32150">
<rect width="25.3639" height="22.1889" fill="white" transform="translate(0 0.441406)"/>
</clipPath>
</defs>
</svg>
