<svg width="25" height="24" viewBox="0 0 25 24" fill="none" xmlns="http://www.w3.org/2000/svg">
<g id="Group 4866429">
<path id="Vector" d="M15.1706 -0.000488281H2.87001C1.80227 -0.000488281 0.935547 0.668408 0.935547 1.49266V22.5064C0.935547 23.3315 1.80227 23.9995 2.87001 23.9995H7.29338H10.4723H15.1715C16.2402 23.9995 17.106 23.3306 17.106 22.5064V1.49266C17.106 0.668408 16.2392 -0.000488281 15.1706 -0.000488281ZM7.11387 16.5864C7.11387 16.822 6.90724 17.0128 6.65199 17.0128H5.38042C5.12517 17.0128 4.91854 16.822 4.91854 16.5864V14.9862C4.91854 14.7506 5.12517 14.5599 5.38042 14.5599H6.65106C6.9063 14.5599 7.11293 14.7506 7.11293 14.9862V16.5864H7.11387ZM7.11387 12.693C7.11387 12.9286 6.90724 13.1194 6.65199 13.1194H5.38042C5.12517 13.1194 4.91854 12.9286 4.91854 12.693V11.0928C4.91854 10.8572 5.12517 10.6665 5.38042 10.6665H6.65106C6.9063 10.6665 7.11293 10.8572 7.11293 11.0928V12.693H7.11387ZM7.11387 8.7996C7.11387 9.03522 6.90724 9.22597 6.65199 9.22597H5.38042C5.12517 9.22597 4.91854 9.03522 4.91854 8.7996V7.19943C4.91854 6.9638 5.12517 6.77306 5.38042 6.77306H6.65106C6.9063 6.77306 7.11293 6.9638 7.11293 7.19943V8.7996H7.11387ZM7.11387 4.90619C7.11387 5.14181 6.90724 5.33256 6.65199 5.33256H5.38042C5.12517 5.33256 4.91854 5.14181 4.91854 4.90619V3.30602C4.91854 3.07039 5.12517 2.87965 5.38042 2.87965H6.65106C6.9063 2.87965 7.11293 3.07039 7.11293 3.30602V4.90619H7.11387ZM13.007 16.5864C13.007 16.822 12.8004 17.0128 12.5451 17.0128H11.2745C11.0193 17.0128 10.8126 16.822 10.8126 16.5864V14.9862C10.8126 14.7506 11.0193 14.5599 11.2745 14.5599H12.5451C12.8004 14.5599 13.007 14.7506 13.007 14.9862V16.5864ZM7.11387 20.5998C7.11387 20.8354 6.90724 21.0262 6.65199 21.0262H5.38042C5.12517 21.0262 4.91854 20.8354 4.91854 20.5998V18.9996C4.91854 18.764 5.12517 18.5733 5.38042 18.5733H6.65106C6.9063 18.5733 7.11293 18.764 7.11293 18.9996V20.5998H7.11387ZM13.007 20.5998C13.007 20.8354 12.8004 21.0262 12.5451 21.0262H11.2745C11.0193 21.0262 10.8126 20.8354 10.8126 20.5998V18.9996C10.8126 18.764 11.0193 18.5733 11.2745 18.5733H12.5451C12.8004 18.5733 13.007 18.764 13.007 18.9996V20.5998ZM13.007 12.693C13.007 12.9286 12.8004 13.1194 12.5451 13.1194H11.2745C11.0193 13.1194 10.8126 12.9286 10.8126 12.693V11.0928C10.8126 10.8572 11.0193 10.6665 11.2745 10.6665H12.5451C12.8004 10.6665 13.007 10.8572 13.007 11.0928V12.693ZM13.007 8.7996C13.007 9.03522 12.8004 9.22597 12.5451 9.22597H11.2745C11.0193 9.22597 10.8126 9.03522 10.8126 8.7996V7.19943C10.8126 6.9638 11.0193 6.77306 11.2745 6.77306H12.5451C12.8004 6.77306 13.007 6.9638 13.007 7.19943V8.7996ZM13.007 4.90619C13.007 5.14181 12.8004 5.33256 12.5451 5.33256H11.2745C11.0193 5.33256 10.8126 5.14181 10.8126 4.90619V3.30602C10.8126 3.07039 11.0193 2.87965 11.2745 2.87965H12.5451C12.8004 2.87965 13.007 3.07039 13.007 3.30602V4.90619Z" fill="url(#paint0_linear_2471_874)"/>
<path id="Vector_2" d="M10.7049 22.8005L10.7049 22.8005C11.2679 19.489 14.1511 16.9675 17.6231 16.9675C21.0951 16.9675 23.9782 19.489 24.5413 22.8005L24.5413 22.8005C24.6242 23.2878 24.2452 23.7347 23.7473 23.7347H11.4989C11.0009 23.7347 10.622 23.2879 10.7049 22.8005ZM20.5231 13.224C20.5231 14.8547 19.2012 16.1766 17.5705 16.1766C15.9399 16.1766 14.618 14.8547 14.618 13.224C14.618 11.5934 15.9399 10.2715 17.5705 10.2715C19.2012 10.2715 20.5231 11.5934 20.5231 13.224Z" fill="url(#paint1_linear_2471_874)" stroke="white" stroke-width="0.5"/>
</g>
<defs>
<linearGradient id="paint0_linear_2471_874" x1="7.5331" y1="2.05877" x2="10.9987" y2="23.6825" gradientUnits="userSpaceOnUse">
<stop stop-color="#676B76"/>
<stop offset="1" stop-color="#4C505B"/>
</linearGradient>
<linearGradient id="paint1_linear_2471_874" x1="7.17708" y1="9.39974" x2="17.2692" y2="29.489" gradientUnits="userSpaceOnUse">
<stop offset="1.02546e-07" stop-color="#FF6E6E"/>
<stop offset="0.247" stop-color="#FF6565"/>
<stop offset="0.6561" stop-color="#FF4B4B"/>
<stop offset="1" stop-color="#FF3131"/>
</linearGradient>
</defs>
</svg>
