<svg width="27" height="20" viewBox="0 0 27 20" fill="none" xmlns="http://www.w3.org/2000/svg">
<path d="M20.454 10.2118C22.0466 10.2118 23.3377 8.8744 23.3377 7.22458C23.3377 5.57475 22.0466 4.2373 20.454 4.2373C18.8614 4.2373 17.5704 5.57475 17.5704 7.22458C17.5704 8.8744 18.8614 10.2118 20.454 10.2118Z" fill="url(#paint0_linear_2369_32976)"/>
<path d="M14.987 17.2619C14.4008 17.2619 13.9519 16.7167 14.0502 16.1181C14.5752 12.9191 17.2635 10.4832 20.5013 10.4832C23.7392 10.4832 26.4275 12.9191 26.9525 16.1181C27.0508 16.7167 26.6019 17.2619 26.0157 17.2619H14.987Z" fill="url(#paint1_linear_2369_32976)"/>
<path d="M19.4787 10.5371C19.3541 10.5586 19.3005 10.7079 19.383 10.8038L19.963 11.4779C20.0296 11.5552 20.056 11.6592 20.0346 11.7589L19.451 14.4708C19.4305 14.5658 19.4536 14.6649 19.5137 14.7411L20.2462 15.6694C20.3766 15.8347 20.6272 15.8347 20.7577 15.6694L21.4901 14.7411C21.5503 14.6649 21.5733 14.5658 21.5529 14.4708L20.9684 11.7548C20.9474 11.6574 20.9722 11.5558 21.0355 11.479L21.5892 10.8077C21.6684 10.7118 21.6151 10.5661 21.4928 10.5438L20.5507 10.3722C20.5131 10.3653 20.4746 10.3651 20.4369 10.3717L19.4787 10.5371Z" fill="url(#paint2_linear_2369_32976)"/>
<path fill-rule="evenodd" clip-rule="evenodd" d="M14.1411 4.80907C14.1411 7.14603 12.3124 9.04051 10.0565 9.04051C7.8006 9.04051 5.97185 7.14603 5.97185 4.80907C5.97185 2.47212 7.8006 0.577637 10.0565 0.577637C12.3124 0.577637 14.1411 2.47212 14.1411 4.80907ZM0.985511 17.4067C0.846271 18.2546 1.48219 19.0268 2.31253 19.0268H17.9345C18.7649 19.0268 19.4008 18.2546 19.2615 17.4067C18.6058 13.4116 15.5683 10.2567 11.7154 9.56597C11.7808 9.62022 11.7974 9.72221 11.7371 9.79533L10.8374 10.886C10.7741 10.9629 10.7493 11.0645 10.7703 11.1618L11.6254 15.1357C11.6459 15.2307 11.6229 15.3298 11.5627 15.406L10.3791 16.9061C10.2487 17.0714 9.99804 17.0714 9.86762 16.9061L8.68399 15.406C8.62383 15.3298 8.60082 15.2307 8.62126 15.1357L9.47554 11.166C9.497 11.0663 9.47052 10.9623 9.404 10.885L8.46034 9.78831C8.40554 9.72463 8.41074 9.63743 8.45692 9.57971C4.63949 10.2976 1.63699 13.4375 0.985511 17.4067Z" fill="white"/>
<path d="M10.0604 10.0336C12.1814 10.0336 13.9009 8.25239 13.9009 6.05514C13.9009 3.85788 12.1814 2.07666 10.0604 2.07666C7.9394 2.07666 6.21997 3.85788 6.21997 6.05514C6.21997 8.25239 7.9394 10.0336 10.0604 10.0336Z" fill="url(#paint3_linear_2369_32976)"/>
<path d="M2.77941 19.4229C1.99871 19.4229 1.40081 18.6968 1.53173 17.8997C2.23101 13.6392 5.81122 10.395 10.1235 10.395C14.4357 10.395 18.0159 13.6392 18.7152 17.8997C18.8461 18.6968 18.2482 19.4229 17.4675 19.4229H2.77941Z" fill="url(#paint4_linear_2369_32976)"/>
<path d="M8.66674 10.4831C8.54204 10.5046 8.48846 10.6539 8.57099 10.7498L9.44073 11.7605C9.50725 11.8378 9.53373 11.9418 9.51227 12.0415L8.71302 15.7555C8.69258 15.8505 8.71559 15.9496 8.77575 16.0259L9.86766 17.4097C9.99808 17.575 10.2487 17.575 10.3791 17.4097L11.471 16.0259C11.5312 15.9496 11.5542 15.8505 11.5337 15.7555L10.7336 12.0374C10.7127 11.94 10.7374 11.8384 10.8008 11.7616L11.6301 10.7562C11.7092 10.6602 11.656 10.5146 11.5336 10.4923L10.1695 10.2438C10.1319 10.2369 10.0934 10.2367 10.0557 10.2432L8.66674 10.4831Z" fill="url(#paint5_linear_2369_32976)"/>
<defs>
<linearGradient id="paint0_linear_2369_32976" x1="20.5013" y1="4.2373" x2="20.5013" y2="17.2619" gradientUnits="userSpaceOnUse">
<stop stop-color="#6D717C"/>
<stop offset="1" stop-color="#40424E"/>
</linearGradient>
<linearGradient id="paint1_linear_2369_32976" x1="20.5013" y1="4.2373" x2="20.5013" y2="17.2619" gradientUnits="userSpaceOnUse">
<stop stop-color="#6D717C"/>
<stop offset="1" stop-color="#40424E"/>
</linearGradient>
<linearGradient id="paint2_linear_2369_32976" x1="21.7659" y1="15.4889" x2="19.1956" y2="10.6922" gradientUnits="userSpaceOnUse">
<stop stop-color="#EA4949"/>
<stop offset="1" stop-color="#FF6E6E"/>
</linearGradient>
<linearGradient id="paint3_linear_2369_32976" x1="10.1235" y1="2.07666" x2="15.0058" y2="19.4229" gradientUnits="userSpaceOnUse">
<stop stop-color="#6E727D"/>
<stop offset="1" stop-color="#3F424E"/>
</linearGradient>
<linearGradient id="paint4_linear_2369_32976" x1="10.1235" y1="2.07666" x2="15.0058" y2="19.4229" gradientUnits="userSpaceOnUse">
<stop stop-color="#6E727D"/>
<stop offset="1" stop-color="#3F424E"/>
</linearGradient>
<linearGradient id="paint5_linear_2369_32976" x1="10.9016" y1="15.6914" x2="9.35081" y2="10.9356" gradientUnits="userSpaceOnUse">
<stop stop-color="#EA4949"/>
<stop offset="0.701658" stop-color="#FF6E6E"/>
</linearGradient>
</defs>
</svg>
