<svg width="26" height="22" viewBox="0 0 26 22" fill="none" xmlns="http://www.w3.org/2000/svg">
<path fill-rule="evenodd" clip-rule="evenodd" d="M18.0754 20.3463H3.54827C2.09361 20.3463 0.915096 19.1848 0.915096 17.7512V2.59503C0.915096 1.16144 2.09361 0 3.54827 0H9.11887V6.34L10.85 5.35872L12.5069 6.34V0H18.0754C19.5301 0 20.7086 1.16144 20.7086 2.59503V17.7512C20.7086 19.1848 19.5301 20.3463 18.0754 20.3463Z" fill="url(#paint0_linear_2382_33417)"/>
<path d="M12.5074 0V6.34L10.8506 5.35872L9.11944 6.34V0H12.5074Z" fill="url(#paint1_linear_2382_33417)"/>
<path d="M13.4598 12.8532V9.27172L17.4194 8.20264L21.5416 9.21827V12.8532H13.4598Z" fill="white"/>
<path d="M21.442 20.4292C20.7256 20.4292 20.4156 20.1849 19.947 19.8158C19.4051 19.3893 18.7317 18.8584 17.455 18.8584C16.1791 18.8584 15.5057 19.3893 14.9646 19.8166C14.4968 20.1849 14.1876 20.4292 13.4712 20.4292C12.7564 20.4292 12.4472 20.1849 11.9794 19.8166C11.5611 19.4863 11.0646 19.094 10.2714 18.933C9.84628 18.8467 9.4906 19.21 9.4906 19.6438C9.4906 20.0775 9.85866 20.3979 10.2587 20.5655C10.5152 20.673 10.7251 20.8385 10.9832 21.0418C11.5243 21.469 12.1969 21.9999 13.4712 21.9999C14.7471 21.9999 15.4197 21.469 15.9608 21.0425C16.4294 20.6734 16.7386 20.4292 17.455 20.4292C18.1722 20.4292 18.4998 20.6868 18.9516 21.0425C19.4927 21.469 20.1661 21.9999 21.442 21.9999C22.7179 21.9999 23.3913 21.469 23.9324 21.0425C24.1842 20.8443 24.3974 20.6765 24.661 20.5668C25.0615 20.4001 25.429 20.0775 25.429 19.6438C25.429 19.21 25.0733 18.8468 24.6482 18.9329C23.8537 19.0938 23.3561 19.486 22.937 19.8158C22.4684 20.1849 22.1584 20.4292 21.442 20.4292ZM12.6783 12.0758L11.0844 12.4684L12.6783 18.7514H13.4712C14.7471 18.7514 15.4197 18.2205 15.9608 17.7941C16.4294 17.4249 16.7386 17.1807 17.455 17.1807C18.1722 17.1807 18.4998 17.4383 18.9516 17.7941C19.4927 18.2205 20.1661 18.7514 21.442 18.7514H22.2413L22.2628 18.6674L22.5123 17.6841L23.8351 12.4684L22.2413 12.0758V9.32773C22.2414 9.1461 22.1776 8.97006 22.0607 8.82959C21.9439 8.68911 21.7813 8.59288 21.6006 8.55728L18.681 7.89835V6.72368C18.681 6.6619 18.6309 6.61182 18.5692 6.61182H16.3892C16.3274 6.61182 16.2773 6.6619 16.2773 6.72368V7.89835L13.319 8.55728C13.1383 8.59288 12.9757 8.68911 12.8588 8.82959C12.742 8.97006 12.6782 9.1461 12.6783 9.32773V12.0758ZM13.9791 9.73866L17.4598 9.00267L20.981 9.63096V11.6831L17.4598 10.8977L13.9791 11.7908V9.73866Z" fill="white"/>
<rect x="12.2736" y="17.127" width="10.3724" height="3.33072" fill="white"/>
<path d="M20.1117 19.6067L20.1116 19.6067L14.9646 19.8166L14.8 19.6075C14.7999 19.6075 14.7999 19.6076 14.7998 19.6076C14.5608 19.7958 14.3903 19.9287 14.1969 20.0206C14.0123 20.1084 13.7958 20.163 13.4712 20.163C13.1475 20.163 12.9315 20.1084 12.747 20.0207C12.5537 19.9287 12.3831 19.7957 12.144 19.6075L12.1366 19.6016C11.7174 19.2706 11.1793 18.8457 10.3243 18.6722C9.696 18.5447 9.22447 19.0833 9.22447 19.6438C9.22447 20.2425 9.72414 20.6301 10.1558 20.811C10.3731 20.902 10.5546 21.043 10.8186 21.2508L10.8195 21.2515C11.3714 21.6873 12.1043 22.266 13.4712 22.266C14.8383 22.266 15.5711 21.6885 16.1228 21.2537L16.1255 21.2516C16.1255 21.2516 16.1255 21.2516 16.1255 21.2516C16.365 21.063 16.5357 20.9298 16.7293 20.8378C16.914 20.7499 17.1304 20.6953 17.455 20.6953C17.7783 20.6953 17.9997 20.7526 18.1882 20.8426C18.3848 20.9365 18.5565 21.0701 18.7869 21.2516C18.7869 21.2516 18.787 21.2516 18.787 21.2516L18.7886 21.2529C19.3405 21.6878 20.0741 22.266 21.442 22.266C22.8099 22.266 23.5435 21.6878 24.0954 21.2529L24.097 21.2516C24.097 21.2516 24.0971 21.2516 24.0971 21.2516C24.354 21.0493 24.5391 20.9058 24.7633 20.8125C25.197 20.632 25.6951 20.2419 25.6951 19.6438C25.6951 19.0832 25.2236 18.5448 24.5954 18.672C23.7398 18.8453 23.2007 19.2696 22.7809 19.6L22.7724 19.6067L22.7723 19.6067C22.533 19.7953 22.362 19.9285 22.1682 20.0205C21.9833 20.1084 21.7666 20.163 21.442 20.163C21.1174 20.163 20.9007 20.1084 20.7158 20.0205C20.522 19.9285 20.351 19.7953 20.1117 19.6067ZM16.1228 18.0052L16.1255 18.0031C16.1255 18.0031 16.1255 18.0031 16.1255 18.0031C16.365 17.8145 16.5357 17.6813 16.7293 17.5893C16.914 17.5015 17.1304 17.4468 17.455 17.4468C17.7783 17.4468 17.9997 17.5041 18.1882 17.5941C18.3848 17.688 18.5565 17.8217 18.7869 18.0031C18.7869 18.0031 18.787 18.0031 18.787 18.0032L18.7886 18.0044C19.3405 18.4394 20.0741 19.0176 21.442 19.0176H22.2413H22.4479L22.4991 18.8175L22.5206 18.7334L22.5208 18.7329L22.7702 17.7496L22.7702 17.7496L24.0931 12.5339L24.159 12.2741L23.8988 12.21L22.5074 11.8672V9.32784C22.5074 9.32781 22.5074 9.32777 22.5074 9.32773C22.5075 9.08354 22.4217 8.84739 22.2654 8.65942C22.1099 8.47252 21.8945 8.34485 21.6559 8.29693L18.9472 7.68559V6.72368C18.9472 6.51492 18.7779 6.34569 18.5692 6.34569H16.3892C16.1804 6.34569 16.0112 6.51492 16.0112 6.72368V7.68498L13.2641 8.29685C13.0253 8.34471 12.8097 8.47241 12.6542 8.65942C12.4979 8.84739 12.4121 9.08354 12.4121 9.32773C12.4121 9.32777 12.4121 9.3278 12.4121 9.32784V11.8672L11.0208 12.21L10.7606 12.2742L10.8265 12.5339L12.4203 18.8169L12.4712 19.0176H12.6783H13.4712C14.8383 19.0176 15.5711 18.44 16.1228 18.0052ZM20.7149 11.351L17.5177 10.6379L17.4555 10.6241L17.3936 10.6399L14.2453 11.4477V9.9544L17.4641 9.27377L20.7149 9.85381V11.351Z" fill="url(#paint2_linear_2382_33417)" stroke="white" stroke-width="0.53226"/>
<path d="M13.9807 11.7866L13.9709 9.73344L17.4606 8.99805L20.9828 9.63452L20.9825 11.6862L17.4581 10.8933L13.9807 11.7866Z" fill="white"/>
<defs>
<linearGradient id="paint0_linear_2382_33417" x1="5.88626" y1="6.9426e-07" x2="15.3908" y2="17.6599" gradientUnits="userSpaceOnUse">
<stop stop-color="#7C7F89"/>
<stop offset="1" stop-color="#484C58"/>
</linearGradient>
<linearGradient id="paint1_linear_2382_33417" x1="10.8134" y1="0" x2="10.8134" y2="6.34" gradientUnits="userSpaceOnUse">
<stop stop-color="#FF6565"/>
<stop offset="1" stop-color="#FF3131"/>
</linearGradient>
<linearGradient id="paint2_linear_2382_33417" x1="14.8627" y1="8.15534" x2="17.4598" y2="21.9999" gradientUnits="userSpaceOnUse">
<stop stop-color="#7C7F89"/>
<stop offset="0.816348" stop-color="#454955"/>
</linearGradient>
</defs>
</svg>
