<svg width="21" height="22" viewBox="0 0 21 22" fill="none" xmlns="http://www.w3.org/2000/svg">
<path d="M11.7973 0.000488281H1.60322C0.71822 0.000488281 0 0.600758 0 1.34077V20.2053C0 20.9461 0.71822 21.5456 1.60322 21.5456H5.2687H7.90268H11.7965C12.6823 21.5456 13.3998 20.9453 13.3998 20.2053V1.34077C13.4005 0.600758 12.6831 0.000488281 11.7973 0.000488281ZM5.11995 14.8908C5.11995 15.1026 4.94866 15.2739 4.7368 15.2739H3.68426C3.4724 15.2739 3.30111 15.1026 3.30111 14.8908V13.4543C3.30111 13.2425 3.4724 13.0712 3.68426 13.0712H4.73755C4.94941 13.0712 5.1207 13.2425 5.1207 13.4543V14.8908H5.11995ZM5.11995 11.3958C5.11995 11.6077 4.94866 11.779 4.7368 11.779H3.68426C3.4724 11.779 3.30111 11.6077 3.30111 11.3958V9.95941C3.30111 9.74755 3.4724 9.57626 3.68426 9.57626H4.73755C4.94941 9.57626 5.1207 9.74755 5.1207 9.95941V11.3958H5.11995ZM5.11995 7.90091C5.11995 8.11277 4.94866 8.28406 4.7368 8.28406H3.68426C3.4724 8.28406 3.30111 8.11277 3.30111 7.90091V6.46447C3.30111 6.25261 3.4724 6.08132 3.68426 6.08132H4.73755C4.94941 6.08132 5.1207 6.25261 5.1207 6.46447V7.90091H5.11995ZM5.11995 4.40522C5.11995 4.61708 4.94866 4.78837 4.7368 4.78837H3.68426C3.4724 4.78837 3.30111 4.61708 3.30111 4.40522V2.96878C3.30111 2.75692 3.4724 2.58563 3.68426 2.58563H4.73755C4.94941 2.58563 5.1207 2.75692 5.1207 2.96878V4.40522H5.11995ZM10.004 14.8908C10.004 15.1026 9.83271 15.2739 9.62085 15.2739H8.56756C8.3557 15.2739 8.18441 15.1026 8.18441 14.8908V13.4543C8.18441 13.2425 8.3557 13.0712 8.56756 13.0712H9.62085C9.83271 13.0712 10.004 13.2425 10.004 13.4543V14.8908ZM5.11995 18.4939C5.11995 18.7058 4.94866 18.8771 4.7368 18.8771H3.68426C3.4724 18.8771 3.30111 18.7058 3.30111 18.4939V17.0575C3.30111 16.8456 3.4724 16.6743 3.68426 16.6743H4.73755C4.94941 16.6743 5.1207 16.8456 5.1207 17.0575V18.4939H5.11995ZM10.004 11.3958C10.004 11.6077 9.83271 11.779 9.62085 11.779H8.56756C8.3557 11.779 8.18441 11.6077 8.18441 11.3958V9.95941C8.18441 9.74755 8.3557 9.57626 8.56756 9.57626H9.62085C9.83271 9.57626 10.004 9.74755 10.004 9.95941V11.3958ZM10.004 7.90091C10.004 8.11277 9.83271 8.28406 9.62085 8.28406H8.56756C8.3557 8.28406 8.18441 8.11277 8.18441 7.90091V6.46447C8.18441 6.25261 8.3557 6.08132 8.56756 6.08132H9.62085C9.83271 6.08132 10.004 6.25261 10.004 6.46447V7.90091ZM10.004 4.40522C10.004 4.61708 9.83271 4.78837 9.62085 4.78837H8.56756C8.3557 4.78837 8.18441 4.61708 8.18441 4.40522V2.96878C8.18441 2.75692 8.3557 2.58563 8.56756 2.58563H9.62085C9.83271 2.58563 10.004 2.75692 10.004 2.96878V4.40522ZM9.0326 21.5516V21.1159V20.6801V17.2423C9.0326 16.929 9.28653 16.6751 9.59981 16.6751H11.2414C11.5546 16.6751 11.8086 16.929 11.8086 17.2423V20.6801V21.1159V21.5516" fill="url(#paint0_linear_2382_33457)"/>
<path d="M15.1823 12.7974C14.9003 13.8646 13.9284 14.6514 12.7722 14.6514C11.616 14.6514 10.6441 13.8646 10.362 12.7974C10.08 13.8646 9.10729 14.6514 7.95189 14.6514C7.22597 14.6514 6.55693 14.3398 6.0874 13.8422V20.8843C6.0874 21.4997 6.58818 22.0004 7.20353 22.0004H8.78438V21.5357V21.071V17.4045C8.78438 17.0704 9.0552 16.7996 9.38932 16.7996H11.14C11.4742 16.7996 11.745 17.0704 11.745 17.4045V21.071V21.5357V22.0004H18.3192C18.9345 22.0004 19.4353 21.4997 19.4353 20.8843V13.9111C18.9626 14.371 18.3039 14.6514 17.5948 14.6514C16.4371 14.6514 15.4651 13.8646 15.1823 12.7974ZM16.9114 18.5054C16.9114 19.2442 16.3121 19.8435 15.5733 19.8435C14.8346 19.8435 14.2352 19.2442 14.2352 18.5054V18.3796C14.2352 17.6409 14.8346 17.0415 15.5733 17.0415C16.3121 17.0415 16.9114 17.6409 16.9114 18.3796V18.5054Z" fill="white"/>
<path d="M18.1584 10.5967H7.22949C6.87214 10.5967 6.55565 10.7629 6.44908 11.007L6.23246 13.218C6.17877 13.3412 6.16596 13.4719 6.20201 13.598C6.43437 14.4203 6.73673 15.0439 7.95061 15.0439C9.1068 15.0439 10.0787 14.4811 10.3607 13.7177C10.6428 14.4811 11.6155 15.0439 12.7709 15.0439C13.9271 15.0439 14.899 14.4811 15.181 13.7177C15.4631 14.4811 16.4358 15.0439 17.5912 15.0439C18.8643 15.0439 19.9757 14.398 20.1367 13.5217C20.1599 13.3951 20.1375 13.2667 20.0742 13.1475L18.9228 10.9749C18.8034 10.7474 18.499 10.5967 18.1584 10.5967Z" fill="white"/>
<path d="M18.1587 8.43457H7.22979C6.87244 8.43457 6.55595 8.66693 6.44938 9.00826L5.48148 12.0995C5.4278 12.2717 5.41498 12.4544 5.45103 12.6307C5.68339 13.7805 6.73703 14.6522 7.95091 14.6522C9.1071 14.6522 10.079 13.8654 10.361 12.7981C10.6431 13.8654 11.6158 14.6522 12.7712 14.6522C13.9274 14.6522 14.8993 13.8654 15.1813 12.7981C15.4634 13.8654 16.4361 14.6522 17.5915 14.6522C18.8646 14.6522 19.976 13.7492 20.137 12.5241C20.1602 12.347 20.1378 12.1676 20.0745 12.0009L18.9231 8.96339C18.8037 8.6453 18.4993 8.43457 18.1587 8.43457Z" fill="white"/>
<path d="M15.0326 12.9482C14.7682 13.9489 13.8569 14.6867 12.7728 14.6867C11.6887 14.6867 10.7774 13.9489 10.5129 12.9482C10.2485 13.9489 9.33644 14.6867 8.2531 14.6867C7.57245 14.6867 6.94513 14.3944 6.50488 13.9279V20.5309C6.50488 21.1079 6.97443 21.5774 7.55141 21.5774H9.03368V21.1417V20.7059V17.2681C9.03368 16.9548 9.28761 16.7009 9.60089 16.7009H11.2424C11.5557 16.7009 11.8096 16.9548 11.8096 17.2681V20.7059V21.1417V21.5774H17.9739C18.5509 21.5774 19.0204 21.1079 19.0204 20.5309V13.9925C18.5771 14.4237 17.9596 14.6867 17.2947 14.6867C16.2091 14.6867 15.2978 13.9489 15.0326 12.9482ZM16.6539 18.3003C16.6539 18.993 16.0919 19.555 15.3992 19.555C14.7066 19.555 14.1446 18.993 14.1446 18.3003V18.1824C14.1446 17.4897 14.7066 16.9278 15.3992 16.9278C16.0919 16.9278 16.6539 17.4897 16.6539 18.1824V18.3003Z" fill="url(#paint1_linear_2382_33457)"/>
<path d="M17.8235 10.8848H7.57609C7.24102 10.8848 6.94427 11.0406 6.84435 11.2695L5.93681 13.3426C5.88647 13.4582 5.87445 13.5807 5.90826 13.6989C6.12613 14.47 7.11406 15.0546 8.25224 15.0546C9.33633 15.0546 10.2476 14.5269 10.5121 13.8112C10.7765 14.5269 11.6886 15.0546 12.7719 15.0546C13.856 15.0546 14.7673 14.5269 15.0318 13.8112C15.2962 14.5269 16.2083 15.0546 17.2916 15.0546C18.4854 15.0546 19.5274 14.449 19.6784 13.6274C19.7002 13.5087 19.6792 13.3883 19.6198 13.2765L18.5402 11.2394C18.4283 11.0261 18.1428 10.8848 17.8235 10.8848Z" fill="white"/>
<path d="M17.8235 8.85742H7.57609C7.24102 8.85742 6.94427 9.07529 6.84435 9.39534L5.93681 12.2938C5.88647 12.4553 5.87445 12.6266 5.90826 12.7919C6.12613 13.8699 7.11406 14.6873 8.25224 14.6873C9.33633 14.6873 10.2476 13.9496 10.5121 12.9489C10.7765 13.9496 11.6886 14.6873 12.7719 14.6873C13.856 14.6873 14.7673 13.9496 15.0318 12.9489C15.2962 13.9496 16.2083 14.6873 17.2916 14.6873C18.4854 14.6873 19.5274 13.8406 19.6784 12.6919C19.7002 12.5259 19.6792 12.3576 19.6198 12.2014L18.5402 9.35326C18.4283 9.05501 18.1428 8.85742 17.8235 8.85742Z" fill="url(#paint2_linear_2382_33457)"/>
<defs>
<linearGradient id="paint0_linear_2382_33457" x1="3.63667" y1="0.000488244" x2="6.69989" y2="21.5516" gradientUnits="userSpaceOnUse">
<stop stop-color="#686C77"/>
<stop offset="1" stop-color="#4C505B"/>
</linearGradient>
<linearGradient id="paint1_linear_2382_33457" x1="12.7626" y1="13.864" x2="14.0285" y2="22.6084" gradientUnits="userSpaceOnUse">
<stop stop-color="#676B76"/>
<stop offset="1" stop-color="#4D515C"/>
</linearGradient>
<linearGradient id="paint2_linear_2382_33457" x1="11.8741" y1="8.85742" x2="12.788" y2="14.6873" gradientUnits="userSpaceOnUse">
<stop stop-color="#FF6E6E"/>
<stop offset="1" stop-color="#FF3131"/>
</linearGradient>
</defs>
</svg>
