<svg width="22" height="22" viewBox="0 0 22 22" fill="none" xmlns="http://www.w3.org/2000/svg">
<path d="M8.59838 7.46811C10.7508 7.46811 12.4956 5.79632 12.4956 3.73405C12.4956 1.67179 10.7508 0 8.59838 0C6.44599 0 4.70114 1.67179 4.70114 3.73405C4.70114 5.79632 6.44599 7.46811 8.59838 7.46811Z" fill="url(#paint0_linear_2382_33481)"/>
<path d="M8.65815 7.78252C4.24801 7.78252 0.601486 10.9151 0.0101803 14.9846C-0.0826049 15.6231 0.471814 16.1487 1.14471 16.1487H16.1716C16.8445 16.1487 17.3989 15.6231 17.3061 14.9846C16.7148 10.9151 13.0683 7.78252 8.65815 7.78252Z" fill="url(#paint1_linear_2382_33481)"/>
<path d="M22.2931 13.8236L22.2934 13.8237L22.2953 13.81C22.369 13.2665 22.013 12.8114 21.4517 12.6949L21.437 12.6919L21.4222 12.6903L12.4487 11.7289L12.3576 10.9002L12.3568 10.8929L12.3557 10.8857C12.2992 10.5307 12.0706 10.2204 11.6867 10.0825L11.6797 10.0801L11.6727 10.0779L9.64079 9.45718L9.63388 9.45506L9.62687 9.45328C9.12833 9.3265 8.61256 9.5629 8.40191 10.0687L8.39374 10.0883L8.38837 10.1089C8.3256 10.3493 8.34656 10.5993 8.46198 10.8187C8.57759 11.0385 8.77643 11.2059 9.03123 11.3028L9.04128 11.3067L9.05158 11.3098L10.4477 11.7308L10.9816 16.8735L10.622 18.748L10.6202 18.7574L10.619 18.7669C10.545 19.3468 10.9633 19.8451 11.587 19.8989L11.6 19.9H11.6131H11.8966C11.5403 20.1351 11.3026 20.5304 11.3026 20.9876C11.3026 21.727 11.9243 22.3044 12.6636 22.3044C13.4029 22.3044 14.0246 21.727 14.0246 20.9876C14.0246 20.5304 13.7869 20.1351 13.4306 19.9H18.2034C17.8472 20.1351 17.6094 20.5304 17.6094 20.9876C17.6094 21.727 18.2312 22.3044 18.9705 22.3044C19.7097 22.3044 20.3315 21.727 20.3315 20.9876C20.3315 20.5304 20.0938 20.1351 19.7375 19.9H20.2119V19.9L20.2159 19.9C20.7481 19.893 21.1661 19.5018 21.2076 18.9554L21.2087 18.9418L21.2085 18.9281C21.2009 18.3908 20.7759 18.005 20.234 17.9655L20.223 17.9647H20.2119H12.8039L12.853 17.6992H20.7567V17.6993L20.7603 17.6992C21.2171 17.6938 21.6325 17.3973 21.7325 16.9051L21.7325 16.9051L21.7336 16.899L22.2931 13.8236Z" fill="url(#paint2_linear_2382_33481)" stroke="white" stroke-width="0.609197"/>
<defs>
<linearGradient id="paint0_linear_2382_33481" x1="6.85261" y1="2.61016" x2="8.65814" y2="15.0244" gradientUnits="userSpaceOnUse">
<stop stop-color="#646873"/>
<stop offset="0.871241" stop-color="#4F535E"/>
</linearGradient>
<linearGradient id="paint1_linear_2382_33481" x1="6.85261" y1="2.61016" x2="8.65814" y2="15.0244" gradientUnits="userSpaceOnUse">
<stop stop-color="#646873"/>
<stop offset="0.871241" stop-color="#4F535E"/>
</linearGradient>
<linearGradient id="paint2_linear_2382_33481" x1="13.5193" y1="10.7153" x2="15.3292" y2="21.9998" gradientUnits="userSpaceOnUse">
<stop stop-color="#FF6E6E"/>
<stop offset="1" stop-color="#FF3131"/>
</linearGradient>
</defs>
</svg>
