<svg width="26" height="22" viewBox="0 0 26 22" fill="none" xmlns="http://www.w3.org/2000/svg">
<path d="M16.9478 18.3469H3.37519C2.01611 18.3469 0.915039 17.2996 0.915039 16.0069V2.34003C0.915039 1.04731 2.01611 0 3.37519 0H16.9478C18.3069 0 19.4079 1.04731 19.4079 2.34003V16.0069C19.4079 17.2996 18.3069 18.3469 16.9478 18.3469Z" fill="url(#paint0_linear_2382_33360)"/>
<path d="M8.57812 0V5.717L10.1261 4.83214L11.7435 5.717V0H8.57812Z" fill="url(#paint1_linear_2382_33360)"/>
<path d="M18.3963 18.3902H9.66906C9.05964 18.3902 8.5647 17.9126 8.5647 17.323V10.2112C8.5647 9.62232 9.05895 9.14404 9.66906 9.14404H18.3963C19.0057 9.14404 19.5007 9.62165 19.5007 10.2112V17.3237C19.5007 17.9126 19.0064 18.3902 18.3963 18.3902Z" fill="white"/>
<path d="M25.4489 18.3903H20.2815C20.0244 18.3903 19.816 18.1889 19.816 17.9405V13.2518C19.816 13.0034 20.0244 12.802 20.2815 12.802H22.556C22.6746 12.802 22.7884 12.8458 22.8748 12.9239L25.7676 15.5438C25.8615 15.6286 25.915 15.7478 25.915 15.8724V17.9405C25.9143 18.1889 25.7059 18.3903 25.4489 18.3903Z" fill="white"/>
<path d="M25.3091 19.1097H9.21059C9.04264 19.1097 8.90622 19.2416 8.90622 19.4039V19.8543C8.90622 20.0166 9.04264 20.1484 9.21059 20.1484H9.83577C9.77956 20.2961 9.74734 20.4558 9.74734 20.6227C9.74734 21.3832 10.3856 21.9999 11.1725 21.9999C11.9595 21.9999 12.5977 21.3832 12.5977 20.6227C12.5977 20.4558 12.5655 20.2968 12.5093 20.1484H21.5189C21.4627 20.2961 21.4305 20.4558 21.4305 20.6227C21.4305 21.3832 22.0687 21.9999 22.8557 21.9999C23.6426 21.9999 24.2809 21.3832 24.2809 20.6227C24.2809 20.4558 24.2486 20.2968 24.1924 20.1484H25.3084C25.4764 20.1484 25.6128 20.0166 25.6128 19.8543V19.4039C25.6135 19.2416 25.4771 19.1097 25.3091 19.1097Z" fill="white"/>
<path d="M18.0807 17.9887H9.9641C9.39732 17.9887 8.93701 17.5503 8.93701 17.009V10.4802C8.93701 9.93956 9.39668 9.50049 9.9641 9.50049H18.0807C18.6475 9.50049 19.1078 9.93895 19.1078 10.4802V17.0096C19.1078 17.5503 18.6481 17.9887 18.0807 17.9887Z" fill="url(#paint2_linear_2382_33360)"/>
<path d="M24.6398 17.9888H19.834C19.5949 17.9888 19.4011 17.8039 19.4011 17.5759V13.2715C19.4011 13.0435 19.5949 12.8586 19.834 12.8586H21.9493C22.0596 12.8586 22.1655 12.8988 22.2458 12.9705L24.9362 15.3757C25.0236 15.4535 25.0733 15.563 25.0733 15.6773V17.5759C25.0727 17.8039 24.8788 17.9888 24.6398 17.9888Z" fill="url(#paint3_linear_2382_33360)"/>
<path d="M24.5098 18.6493H9.53771C9.38151 18.6493 9.25464 18.7703 9.25464 18.9193V19.3328C9.25464 19.4818 9.38151 19.6028 9.53771 19.6028H10.1191C10.0669 19.7384 10.0369 19.885 10.0369 20.0382C10.0369 20.7364 10.6305 21.3025 11.3624 21.3025C12.0943 21.3025 12.6878 20.7364 12.6878 20.0382C12.6878 19.885 12.6579 19.739 12.6056 19.6028H20.9848C20.9325 19.7384 20.9026 19.885 20.9026 20.0382C20.9026 20.7364 21.4961 21.3025 22.228 21.3025C22.9599 21.3025 23.5535 20.7364 23.5535 20.0382C23.5535 19.885 23.5235 19.739 23.4712 19.6028H24.5092C24.6654 19.6028 24.7922 19.4818 24.7922 19.3328V18.9193C24.7929 18.7703 24.666 18.6493 24.5098 18.6493Z" fill="url(#paint4_linear_2382_33360)"/>
<rect x="5.30347" y="15.3242" width="4.21782" height="0.920029" rx="0.460014" fill="url(#paint5_linear_2382_33360)"/>
<rect x="6.41064" y="13.0918" width="5.41572" height="0.919941" rx="0.459971" fill="url(#paint6_linear_2382_33360)"/>
<defs>
<linearGradient id="paint0_linear_2382_33360" x1="6.35519" y1="2.4873" x2="11.2713" y2="18.3472" gradientUnits="userSpaceOnUse">
<stop stop-color="#6E727D"/>
<stop offset="1" stop-color="#404450"/>
</linearGradient>
<linearGradient id="paint1_linear_2382_33360" x1="10.1608" y1="0" x2="10.9077" y2="6.04233" gradientUnits="userSpaceOnUse">
<stop stop-color="#FF6E6E"/>
<stop offset="1" stop-color="#FF3131"/>
</linearGradient>
<linearGradient id="paint2_linear_2382_33360" x1="13.24" y1="12.4108" x2="16.3594" y2="23.9014" gradientUnits="userSpaceOnUse">
<stop stop-color="#6E727D"/>
<stop offset="1" stop-color="#454955"/>
</linearGradient>
<linearGradient id="paint3_linear_2382_33360" x1="13.24" y1="12.4108" x2="16.3594" y2="23.9014" gradientUnits="userSpaceOnUse">
<stop stop-color="#6E727D"/>
<stop offset="1" stop-color="#454955"/>
</linearGradient>
<linearGradient id="paint4_linear_2382_33360" x1="13.24" y1="12.4108" x2="16.3594" y2="23.9014" gradientUnits="userSpaceOnUse">
<stop stop-color="#6E727D"/>
<stop offset="1" stop-color="#454955"/>
</linearGradient>
<linearGradient id="paint5_linear_2382_33360" x1="7.41237" y1="15.3242" x2="7.41237" y2="16.2442" gradientUnits="userSpaceOnUse">
<stop stop-color="#FF3131"/>
<stop offset="1" stop-color="#FF6E6E"/>
</linearGradient>
<linearGradient id="paint6_linear_2382_33360" x1="9.11851" y1="13.0918" x2="9.11851" y2="14.0117" gradientUnits="userSpaceOnUse">
<stop stop-color="#FF3131"/>
<stop offset="1" stop-color="#FF6E6E"/>
</linearGradient>
</defs>
</svg>
