<svg width="29" height="23" viewBox="0 0 29 23" fill="none" xmlns="http://www.w3.org/2000/svg">
<path d="M17.4883 12.519H4.41029C3.49705 12.519 2.75537 11.8734 2.75537 11.0765V1.46306C2.75537 0.667015 3.49603 0.0205078 4.41029 0.0205078H17.4883C18.4016 0.0205078 19.1432 0.66612 19.1432 1.46306V11.0774C19.1432 11.8734 18.4026 12.519 17.4883 12.519Z" fill="url(#paint0_linear_2382_33542)"/>
<path d="M28.0568 12.5191H20.3133C19.9281 12.5191 19.6158 12.2469 19.6158 11.9111V5.57322C19.6158 5.23743 19.9281 4.96521 20.3133 4.96521H23.7218C23.8995 4.96521 24.07 5.02431 24.1995 5.12998L28.5345 8.67144C28.6752 8.78605 28.7554 8.94723 28.7554 9.11558V11.9111C28.7543 12.2469 28.4421 12.5191 28.0568 12.5191Z" fill="url(#paint1_linear_2382_33542)"/>
<path d="M27.8474 13.4917H3.72326C3.47158 13.4917 3.26716 13.6699 3.26716 13.8893V14.4982C3.26716 14.7175 3.47158 14.8957 3.72326 14.8957H4.66012C4.57589 15.0954 4.5276 15.3112 4.5276 15.5369C4.5276 16.5648 5.48398 17.3985 6.66328 17.3985C7.84257 17.3985 8.79895 16.5648 8.79895 15.5369C8.79895 15.3112 8.75067 15.0963 8.66643 14.8957H22.1677C22.0835 15.0954 22.0352 15.3112 22.0352 15.5369C22.0352 16.5648 22.9916 17.3985 24.1709 17.3985C25.3502 17.3985 26.3065 16.5648 26.3065 15.5369C26.3065 15.3112 26.2583 15.0963 26.174 14.8957H27.8464C28.0981 14.8957 28.3025 14.7175 28.3025 14.4982V13.8893C28.3035 13.6699 28.0991 13.4917 27.8474 13.4917Z" fill="url(#paint2_linear_2382_33542)"/>
<rect x="0.915039" y="9.63184" width="4.34973" height="1.03003" rx="0.515014" fill="white"/>
<rect x="1.37732" y="7.70703" width="5.58511" height="1.02993" rx="0.514966" fill="white"/>
<mask id="path-4-inside-1_2382_33542" fill="white">
<path d="M15.1164 15.0601C16.7601 15.0601 18.0926 13.7398 18.0926 12.1111C18.0926 10.4824 16.7601 9.16211 15.1164 9.16211C13.4727 9.16211 12.1402 10.4824 12.1402 12.1111C12.1402 13.7398 13.4727 15.0601 15.1164 15.0601Z"/>
<path d="M9.47383 22.0199C8.86881 22.0199 8.40546 21.4817 8.50691 20.8908C9.04883 17.7327 11.8234 15.328 15.1652 15.328C18.5071 15.328 21.2816 17.7327 21.8236 20.8908C21.925 21.4817 21.4617 22.0199 20.8566 22.0199H9.47383Z"/>
</mask>
<path d="M15.1164 15.0601C16.7601 15.0601 18.0926 13.7398 18.0926 12.1111C18.0926 10.4824 16.7601 9.16211 15.1164 9.16211C13.4727 9.16211 12.1402 10.4824 12.1402 12.1111C12.1402 13.7398 13.4727 15.0601 15.1164 15.0601Z" fill="url(#paint3_linear_2382_33542)"/>
<path d="M9.47383 22.0199C8.86881 22.0199 8.40546 21.4817 8.50691 20.8908C9.04883 17.7327 11.8234 15.328 15.1652 15.328C18.5071 15.328 21.2816 17.7327 21.8236 20.8908C21.925 21.4817 21.4617 22.0199 20.8566 22.0199H9.47383Z" fill="url(#paint4_linear_2382_33542)"/>
<path d="M8.50691 20.8908L9.13768 20.9991L9.13769 20.999L8.50691 20.8908ZM21.8236 20.8908L21.1928 20.999L21.1928 20.9991L21.8236 20.8908ZM15.1164 15.7001C17.108 15.7001 18.7326 14.0988 18.7326 12.1111H17.4526C17.4526 13.3808 16.4122 14.4201 15.1164 14.4201V15.7001ZM18.7326 12.1111C18.7326 10.1234 17.108 8.52211 15.1164 8.52211V9.80211C16.4122 9.80211 17.4526 10.8414 17.4526 12.1111H18.7326ZM15.1164 8.52211C13.1248 8.52211 11.5002 10.1234 11.5002 12.1111H12.7802C12.7802 10.8414 13.8206 9.80211 15.1164 9.80211V8.52211ZM11.5002 12.1111C11.5002 14.0988 13.1248 15.7001 15.1164 15.7001V14.4201C13.8206 14.4201 12.7802 13.3808 12.7802 12.1111H11.5002ZM9.47383 21.3799C9.25406 21.3799 9.10529 21.1877 9.13768 20.9991L7.87614 20.7825C7.70562 21.7756 8.48356 22.6599 9.47383 22.6599V21.3799ZM9.13769 20.999C9.62707 18.1471 12.1361 15.968 15.1652 15.968V14.688C11.5106 14.688 8.47059 17.3183 7.87613 20.7825L9.13769 20.999ZM15.1652 15.968C18.1943 15.968 20.7034 18.1471 21.1928 20.999L22.4543 20.7825C21.8599 17.3183 18.8198 14.688 15.1652 14.688V15.968ZM21.1928 20.9991C21.2252 21.1877 21.0764 21.3799 20.8566 21.3799V22.6599C21.8469 22.6599 22.6248 21.7756 22.4543 20.7825L21.1928 20.9991ZM20.8566 21.3799H9.47383V22.6599H20.8566V21.3799Z" fill="white" mask="url(#path-4-inside-1_2382_33542)"/>
<path fill-rule="evenodd" clip-rule="evenodd" d="M17.1374 12.0585C15.4295 12.2104 13.1579 12.088 12.0716 11.9673C12.0403 11.5907 12.4664 9.1582 15.2132 9.16211C16.6695 9.16419 17.4898 9.89646 17.8852 10.6776C18.8343 10.7326 20.211 10.9381 20.3301 11.4635C20.4628 12.049 18.4437 12.2326 17.1374 12.0585Z" fill="url(#paint5_linear_2382_33542)"/>
<defs>
<linearGradient id="paint0_linear_2382_33542" x1="22.9645" y1="29.2588" x2="12.6322" y2="-1.80294" gradientUnits="userSpaceOnUse">
<stop stop-color="#101218"/>
<stop offset="1" stop-color="#70747F"/>
</linearGradient>
<linearGradient id="paint1_linear_2382_33542" x1="22.9645" y1="29.2588" x2="12.6322" y2="-1.80294" gradientUnits="userSpaceOnUse">
<stop stop-color="#101218"/>
<stop offset="1" stop-color="#70747F"/>
</linearGradient>
<linearGradient id="paint2_linear_2382_33542" x1="22.9645" y1="29.2588" x2="12.6322" y2="-1.80294" gradientUnits="userSpaceOnUse">
<stop stop-color="#101218"/>
<stop offset="1" stop-color="#70747F"/>
</linearGradient>
<linearGradient id="paint3_linear_2382_33542" x1="18.8654" y1="30.7951" x2="8.91382" y2="10.042" gradientUnits="userSpaceOnUse">
<stop stop-color="#101218"/>
<stop offset="1" stop-color="#70747F"/>
</linearGradient>
<linearGradient id="paint4_linear_2382_33542" x1="18.8654" y1="30.7951" x2="8.91382" y2="10.042" gradientUnits="userSpaceOnUse">
<stop stop-color="#101218"/>
<stop offset="1" stop-color="#70747F"/>
</linearGradient>
<linearGradient id="paint5_linear_2382_33542" x1="16.2032" y1="9.16211" x2="17.3583" y2="12.1294" gradientUnits="userSpaceOnUse">
<stop stop-color="#FF6E6E"/>
<stop offset="1" stop-color="#FF3131"/>
</linearGradient>
</defs>
</svg>
