<svg width="24" height="23" viewBox="0 0 24 23" fill="none" xmlns="http://www.w3.org/2000/svg">
<path d="M12.3474 8.30088C14.6305 8.30088 16.4813 6.44726 16.4813 4.16069C16.4813 1.87413 14.6305 0.0205078 12.3474 0.0205078C10.0643 0.0205078 8.21343 1.87413 8.21343 4.16069C8.21343 6.44726 10.0643 8.30088 12.3474 8.30088Z" fill="url(#paint0_linear_2382_33531)"/>
<path d="M4.50993 18.0718C3.66957 18.0718 3.02597 17.3162 3.16689 16.4867C3.91962 12.053 7.77344 8.67701 12.4152 8.67701C17.057 8.67701 20.9108 12.053 21.6635 16.4867C21.8045 17.3162 21.1609 18.0718 20.3205 18.0718H4.50993Z" fill="url(#paint1_linear_2382_33531)"/>
<path d="M10.9222 8.75613C10.7574 8.78366 10.6874 8.98203 10.7985 9.1069L11.6498 10.0632C11.7406 10.1653 11.7768 10.3047 11.7471 10.438L10.9074 14.2102C10.8792 14.3372 10.9107 14.4703 10.993 14.5711L12.0864 15.9107C12.2564 16.119 12.5747 16.119 12.7447 15.9107L13.838 14.5711C13.9204 14.4703 13.9519 14.3372 13.9236 14.2102L13.0827 10.4326C13.0537 10.3023 13.0876 10.166 13.1742 10.0645L13.9863 9.11263C14.093 8.98762 14.0234 8.79404 13.8616 8.76554L12.4758 8.52143C12.4282 8.51306 12.3797 8.51285 12.3321 8.52079L10.9222 8.75613Z" fill="url(#paint2_linear_2382_33531)"/>
<path d="M5.06167 21.6353C5.12139 21.8645 5.33038 22.0207 5.56922 22.0207H9.93812C10.23 22.0207 10.4689 21.7815 10.4689 21.4891V17.7681C10.4689 16.8478 10.1703 15.9541 9.61965 15.2166L3.03812 8.19986C3.03812 7.61181 2.56374 7.13672 1.97658 7.13672C1.38941 7.13672 0.915039 7.61181 0.915039 8.19986V15.4558C0.915039 15.8179 1.03778 16.1701 1.26336 16.4525L4.71667 20.9144C4.88254 21.1303 4.99533 21.3762 5.06167 21.6353ZM5.06167 21.6353L5.06166 21.6353L5.06167 21.6353ZM16.8651 12.4732L16.8653 12.4729C17.3225 11.8639 18.1899 11.7376 18.7998 12.1968C19.4079 12.6546 19.5336 13.5224 19.0758 14.1326L16.8651 12.4732ZM16.8651 12.4732L14.9543 15.0248L14.954 15.0251C14.3623 15.8177 14.0412 16.7784 14.0412 17.7681V21.4891C14.0412 21.9578 14.4229 22.3407 14.892 22.3407H19.2609C19.635 22.3407 19.9799 22.0929 20.0781 21.716L20.0784 21.7147C20.1351 21.4931 20.2303 21.2877 20.3669 21.1097C20.367 21.1096 20.3671 21.1094 20.3672 21.1093L23.8183 16.6502C24.0885 16.3111 24.235 15.8892 24.235 15.4558V8.19986C24.235 7.43553 23.6178 6.81672 22.8535 6.81672C22.0892 6.81672 21.472 7.43553 21.472 8.19986V13.0145L18.567 16.5069C18.4881 16.6018 18.342 16.6076 18.2566 16.5221L17.832 16.0968C17.7575 16.0223 17.7489 15.9045 17.8119 15.8204L19.0756 14.1329L16.8651 12.4732ZM7.96502 12.4732L7.96481 12.4729C7.50761 11.8639 6.64019 11.7376 6.03026 12.1968C5.42213 12.6546 5.29639 13.5226 5.7545 14.1329L7.01818 15.8204C7.08117 15.9045 7.07255 16.0223 6.99811 16.0968L6.5735 16.5221C6.48391 16.6118 6.34249 16.6037 6.26442 16.5086L6.26443 16.5086L6.26308 16.507L3.35812 13.0145V8.19986C3.35812 7.43553 2.74093 6.81672 1.97658 6.81672C1.21223 6.81672 0.595039 7.43553 0.595039 8.19986V15.4558C0.595039 15.8892 0.741589 16.3111 1.01173 16.6502L4.46289 21.1093C4.463 21.1094 4.46311 21.1096 4.46322 21.1097C4.59982 21.2877 4.69493 21.493 4.75167 21.7147L4.75201 21.716C4.84989 22.0918 5.19058 22.3407 5.56922 22.3407H9.93812C10.4072 22.3407 10.7889 21.9578 10.7889 21.4891V17.7681C10.7889 16.7784 10.4678 15.8177 9.87607 15.0251L9.87579 15.0248L7.96502 12.4732Z" fill="url(#paint3_linear_2382_33531)" stroke="white" stroke-width="0.64"/>
<defs>
<linearGradient id="paint0_linear_2382_33531" x1="17.5547" y1="30.3917" x2="3.49004" y2="1.37308" gradientUnits="userSpaceOnUse">
<stop stop-color="#101218"/>
<stop offset="1" stop-color="#70747F"/>
</linearGradient>
<linearGradient id="paint1_linear_2382_33531" x1="17.5547" y1="30.3917" x2="3.49004" y2="1.37308" gradientUnits="userSpaceOnUse">
<stop stop-color="#101218"/>
<stop offset="1" stop-color="#70747F"/>
</linearGradient>
<linearGradient id="paint2_linear_2382_33531" x1="12.3851" y1="9.49969" x2="12.3851" y2="16.314" gradientUnits="userSpaceOnUse">
<stop stop-color="#FF6E6E"/>
<stop offset="1" stop-color="#FF3131"/>
</linearGradient>
<linearGradient id="paint3_linear_2382_33531" x1="18.7924" y1="32.1788" x2="10.1705" y2="5.40803" gradientUnits="userSpaceOnUse">
<stop stop-color="#101218"/>
<stop offset="1" stop-color="#70747F"/>
</linearGradient>
</defs>
</svg>
