<svg width="25" height="25" viewBox="0 0 25 25" fill="none" xmlns="http://www.w3.org/2000/svg">
<g clip-path="url(#clip0_2397_95996)">
<g clip-path="url(#clip1_2397_95996)">
<rect x="0.5" y="15.3687" width="21.3486" height="7.43282" rx="1.2473" fill="white"/>
<mask id="path-2-outside-1_2397_95996" maskUnits="userSpaceOnUse" x="0.0786133" y="-0.482422" width="25" height="25" fill="black">
<rect fill="white" x="0.0786133" y="-0.482422" width="25" height="25"/>
<path d="M17.0995 19.2071H2.16563C1.56578 19.2071 1.07861 18.6647 1.07861 17.9951V1.72957C1.07861 1.06075 1.5651 0.517578 2.16563 0.517578H17.0995C17.6994 0.517578 18.1865 1.06 18.1865 1.72957V17.9959C18.1865 18.6647 17.7 19.2071 17.0995 19.2071Z"/>
<path d="M24.0413 19.2072H18.9551C18.7021 19.2072 18.4969 18.9785 18.4969 18.6964V13.3715C18.4969 13.0893 18.7021 12.8606 18.9551 12.8606H21.1939C21.3106 12.8606 21.4226 12.9103 21.5076 12.9991L24.3551 15.9745C24.4475 16.0708 24.5001 16.2062 24.5001 16.3476V18.6964C24.4995 18.9785 24.2943 19.2072 24.0413 19.2072Z"/>
<path d="M23.9038 20.0243H1.71436C1.54905 20.0243 1.41477 20.174 1.41477 20.3583V21.5435C1.41477 21.7279 1.54905 21.8776 1.71436 21.8776H2.32973C2.2744 22.0453 2.24268 22.2266 2.24268 22.4162C2.24268 23.2799 2.87087 23.9803 3.64548 23.9803C4.42008 23.9803 5.04827 23.2799 5.04827 22.4162C5.04827 22.2266 5.01656 22.0461 4.96123 21.8776H20.1731C20.1178 22.0453 20.0861 22.2266 20.0861 22.4162C20.0861 23.2799 20.7142 23.9803 21.4889 23.9803C22.2635 23.9803 22.8916 23.2799 22.8916 22.4162C22.8916 22.2266 22.8599 22.0461 22.8046 21.8776H23.9031C24.0684 21.8776 24.2027 21.7279 24.2027 21.5435V20.3583C24.2033 20.174 24.0691 20.0243 23.9038 20.0243Z"/>
</mask>
<path d="M17.0995 19.2071H2.16563C1.56578 19.2071 1.07861 18.6647 1.07861 17.9951V1.72957C1.07861 1.06075 1.5651 0.517578 2.16563 0.517578H17.0995C17.6994 0.517578 18.1865 1.06 18.1865 1.72957V17.9959C18.1865 18.6647 17.7 19.2071 17.0995 19.2071Z" fill="url(#paint0_linear_2397_95996)"/>
<path d="M24.0413 19.2072H18.9551C18.7021 19.2072 18.4969 18.9785 18.4969 18.6964V13.3715C18.4969 13.0893 18.7021 12.8606 18.9551 12.8606H21.1939C21.3106 12.8606 21.4226 12.9103 21.5076 12.9991L24.3551 15.9745C24.4475 16.0708 24.5001 16.2062 24.5001 16.3476V18.6964C24.4995 18.9785 24.2943 19.2072 24.0413 19.2072Z" fill="url(#paint1_linear_2397_95996)"/>
<path d="M23.9038 20.0243H1.71436C1.54905 20.0243 1.41477 20.174 1.41477 20.3583V21.5435C1.41477 21.7279 1.54905 21.8776 1.71436 21.8776H2.32973C2.2744 22.0453 2.24268 22.2266 2.24268 22.4162C2.24268 23.2799 2.87087 23.9803 3.64548 23.9803C4.42008 23.9803 5.04827 23.2799 5.04827 22.4162C5.04827 22.2266 5.01656 22.0461 4.96123 21.8776H20.1731C20.1178 22.0453 20.0861 22.2266 20.0861 22.4162C20.0861 23.2799 20.7142 23.9803 21.4889 23.9803C22.2635 23.9803 22.8916 23.2799 22.8916 22.4162C22.8916 22.2266 22.8599 22.0461 22.8046 21.8776H23.9031C24.0684 21.8776 24.2027 21.7279 24.2027 21.5435V20.3583C24.2033 20.174 24.0691 20.0243 23.9038 20.0243Z" fill="url(#paint2_linear_2397_95996)"/>
<path d="M21.5076 12.9991L21.8906 12.6326L21.8904 12.6325L21.5076 12.9991ZM24.3551 15.9745L23.9721 16.3409L23.9727 16.3415L24.3551 15.9745ZM24.5001 18.6964L25.0301 18.6976V18.6964H24.5001ZM2.32973 21.8776L2.83306 22.0436L3.0626 21.3476H2.32973V21.8776ZM4.96123 21.8776V21.3476H4.22938L4.45767 22.0429L4.96123 21.8776ZM20.1731 21.8776L20.6764 22.0436L20.906 21.3476H20.1731V21.8776ZM22.8046 21.8776V21.3476H22.0728L22.301 22.0429L22.8046 21.8776ZM24.2027 20.3583L23.6727 20.3564V20.3583H24.2027ZM17.0995 18.6771H2.16563V19.7371H17.0995V18.6771ZM2.16563 18.6771C1.91106 18.6771 1.60861 18.4275 1.60861 17.9951H0.548613C0.548613 18.9019 1.2205 19.7371 2.16563 19.7371V18.6771ZM1.60861 17.9951V1.72957H0.548613V17.9951H1.60861ZM1.60861 1.72957C1.60861 1.29752 1.91079 1.04758 2.16563 1.04758V-0.0124218C1.21942 -0.0124218 0.548613 0.823986 0.548613 1.72957H1.60861ZM2.16563 1.04758H17.0995V-0.0124218H2.16563V1.04758ZM17.0995 1.04758C17.3541 1.04758 17.6565 1.29722 17.6565 1.72957H18.7165C18.7165 0.822785 18.0446 -0.0124218 17.0995 -0.0124218V1.04758ZM17.6565 1.72957V17.9959H18.7165V1.72957H17.6565ZM17.6565 17.9959C17.6565 18.4275 17.3547 18.6771 17.0995 18.6771V19.7371C18.0453 19.7371 18.7165 18.9019 18.7165 17.9959H17.6565ZM24.0413 18.6772H18.9551V19.7372H24.0413V18.6772ZM18.9551 18.6772C18.9729 18.6772 18.9896 18.6814 19.0028 18.6877C19.0155 18.6937 19.0225 18.7002 19.0257 18.7037C19.0315 18.7102 19.0269 18.7091 19.0269 18.6964H17.9669C17.9669 19.2155 18.3566 19.7372 18.9551 19.7372V18.6772ZM19.0269 18.6964V13.3715H17.9669V18.6964H19.0269ZM19.0269 13.3715C19.0269 13.3588 19.0315 13.3577 19.0257 13.3641C19.0225 13.3676 19.0155 13.3742 19.0028 13.3801C18.9896 13.3864 18.9729 13.3906 18.9551 13.3906V12.3306C18.3566 12.3306 17.9669 12.8524 17.9669 13.3715H19.0269ZM18.9551 13.3906H21.1939V12.3306H18.9551V13.3906ZM21.1939 13.3906C21.1566 13.3906 21.1331 13.3742 21.1249 13.3656L21.8904 12.6325C21.7121 12.4463 21.4646 12.3306 21.1939 12.3306V13.3906ZM21.1247 13.3655L23.9721 16.3409L24.738 15.608L21.8906 12.6326L21.1247 13.3655ZM23.9727 16.3415C23.9679 16.3365 23.9674 16.3341 23.9683 16.3362C23.9691 16.3382 23.9701 16.3423 23.9701 16.3476H25.0301C25.0301 16.0784 24.9307 15.8088 24.7374 15.6075L23.9727 16.3415ZM23.9701 16.3476V18.6964H25.0301V16.3476H23.9701ZM23.9701 18.6951C23.9701 18.7082 23.9654 18.7097 23.971 18.7035C23.974 18.7001 23.981 18.6936 23.9936 18.6877C24.0068 18.6814 24.0235 18.6772 24.0413 18.6772V19.7372C24.6399 19.7372 25.0289 19.2156 25.0301 18.6976L23.9701 18.6951ZM23.9038 19.4943H1.71436V20.5543H23.9038V19.4943ZM1.71436 19.4943C1.20356 19.4943 0.884773 19.937 0.884773 20.3583H1.94477C1.94477 20.3948 1.93145 20.4378 1.89713 20.4761C1.86203 20.5152 1.79827 20.5543 1.71436 20.5543V19.4943ZM0.884773 20.3583V21.5435H1.94477V20.3583H0.884773ZM0.884773 21.5435C0.884773 21.9649 1.20357 22.4076 1.71436 22.4076V21.3476C1.79826 21.3476 1.86203 21.3867 1.89713 21.4258C1.93145 21.4641 1.94477 21.5071 1.94477 21.5435H0.884773ZM1.71436 22.4076H2.32973V21.3476H1.71436V22.4076ZM1.82639 21.7116C1.75435 21.93 1.71268 22.1673 1.71268 22.4162H2.77268C2.77268 22.286 2.79444 22.1607 2.83306 22.0436L1.82639 21.7116ZM1.71268 22.4162C1.71268 23.5169 2.52539 24.5103 3.64548 24.5103V23.4503C3.21635 23.4503 2.77268 23.0429 2.77268 22.4162H1.71268ZM3.64548 24.5103C4.76557 24.5103 5.57827 23.5169 5.57827 22.4162H4.51827C4.51827 23.0429 4.0746 23.4503 3.64548 23.4503V24.5103ZM5.57827 22.4162C5.57827 22.1669 5.53649 21.9306 5.46478 21.7122L4.45767 22.0429C4.49662 22.1615 4.51827 22.2863 4.51827 22.4162H5.57827ZM4.96123 22.4076H20.1731V21.3476H4.96123V22.4076ZM19.6698 21.7116C19.5977 21.93 19.5561 22.1673 19.5561 22.4162H20.6161C20.6161 22.286 20.6378 22.1607 20.6764 22.0436L19.6698 21.7116ZM19.5561 22.4162C19.5561 23.5169 20.3688 24.5103 21.4889 24.5103V23.4503C21.0597 23.4503 20.6161 23.0429 20.6161 22.4162H19.5561ZM21.4889 24.5103C22.6089 24.5103 23.4216 23.5169 23.4216 22.4162H22.3616C22.3616 23.0429 21.918 23.4503 21.4889 23.4503V24.5103ZM23.4216 22.4162C23.4216 22.1669 23.3799 21.9306 23.3082 21.7122L22.301 22.0429C22.34 22.1615 22.3616 22.2863 22.3616 22.4162H23.4216ZM22.8046 22.4076H23.9031V21.3476H22.8046V22.4076ZM23.9031 22.4076C24.4139 22.4076 24.7327 21.9649 24.7327 21.5435H23.6727C23.6727 21.5071 23.686 21.4641 23.7203 21.4258C23.7554 21.3867 23.8192 21.3476 23.9031 21.3476V22.4076ZM24.7327 21.5435V20.3583H23.6727V21.5435H24.7327ZM24.7327 20.3603C24.7342 19.9372 24.4144 19.4943 23.9038 19.4943V20.5543C23.8199 20.5543 23.756 20.5152 23.7206 20.4758C23.686 20.4371 23.6725 20.3935 23.6727 20.3564L24.7327 20.3603Z" fill="white" mask="url(#path-2-outside-1_2397_95996)"/>
<path d="M7.76074 0.517578V6.93185L9.43014 5.93907L11.1744 6.93185V0.517578H7.76074Z" fill="url(#paint3_linear_2397_95996)"/>
</g>
</g>
<defs>
<linearGradient id="paint0_linear_2397_95996" x1="11.7828" y1="2.27149" x2="20.627" y2="21.536" gradientUnits="userSpaceOnUse">
<stop stop-color="#7C7F89"/>
<stop offset="1" stop-color="#454955"/>
</linearGradient>
<linearGradient id="paint1_linear_2397_95996" x1="11.7828" y1="2.27149" x2="20.627" y2="21.536" gradientUnits="userSpaceOnUse">
<stop stop-color="#7C7F89"/>
<stop offset="1" stop-color="#454955"/>
</linearGradient>
<linearGradient id="paint2_linear_2397_95996" x1="11.7828" y1="2.27149" x2="20.627" y2="21.536" gradientUnits="userSpaceOnUse">
<stop stop-color="#7C7F89"/>
<stop offset="1" stop-color="#454955"/>
</linearGradient>
<linearGradient id="paint3_linear_2397_95996" x1="9.46757" y1="0.517578" x2="9.46757" y2="6.93185" gradientUnits="userSpaceOnUse">
<stop stop-color="#FF6565"/>
<stop offset="1" stop-color="#FF3131"/>
</linearGradient>
<clipPath id="clip0_2397_95996">
<rect width="24" height="23.9997" fill="white" transform="translate(0.5 0.249512)"/>
</clipPath>
<clipPath id="clip1_2397_95996">
<rect width="24" height="24" fill="white" transform="translate(0.5 0.249023)"/>
</clipPath>
</defs>
</svg>
