<svg width="24" height="23" viewBox="0 0 24 23" fill="none" xmlns="http://www.w3.org/2000/svg">
<g id="Group 4866431">
<rect id="Rectangle 1446" y="14.3877" width="21.3486" height="7.43282" rx="1.2473" fill="white"/>
<g id="Vector">
<path d="M23.5416 18.2265H18.4553C18.2023 18.2265 17.9972 17.9977 17.9972 17.7156V12.3907C17.9972 12.1086 18.2023 11.8799 18.4553 11.8799H20.6941C20.8109 11.8799 20.9229 11.9295 21.0079 12.0183L23.8553 14.9937C23.9478 15.09 24.0004 15.2254 24.0004 15.3669V17.7156C23.9997 17.9977 23.7946 18.2265 23.5416 18.2265Z" fill="url(#paint0_linear_2637_11091)"/>
<path d="M23.404 19.0436H1.21463C1.04931 19.0436 0.915039 19.1933 0.915039 19.3776V20.5628C0.915039 20.7471 1.04931 20.8968 1.21463 20.8968H1.82999C1.77466 21.0646 1.74295 21.2459 1.74295 21.4355C1.74295 22.2991 2.37114 22.9995 3.14574 22.9995C3.92035 22.9995 4.54854 22.2991 4.54854 21.4355C4.54854 21.2459 4.51682 21.0653 4.46149 20.8968H19.6734C19.618 21.0646 19.5863 21.2459 19.5863 21.4355C19.5863 22.2991 20.2145 22.9995 20.9891 22.9995C21.7637 22.9995 22.3919 22.2991 22.3919 21.4355C22.3919 21.2459 22.3602 21.0653 22.3049 20.8968H23.4034C23.5687 20.8968 23.7029 20.7471 23.7029 20.5628V19.3776C23.7036 19.1933 23.5693 19.0436 23.404 19.0436Z" fill="url(#paint1_linear_2637_11091)"/>
</g>
<g id="Group 4865972">
<g id="Group">
<g id="Group 4865940">
<path id="Subtract" fill-rule="evenodd" clip-rule="evenodd" d="M4.17183 10.0645V12.619L4.82977 12.2236L5.51721 12.619V10.0645H7.72942C8.30707 10.0645 8.77505 10.5324 8.77505 11.1101V17.2171C8.77505 17.7947 8.30707 18.2627 7.72942 18.2627H1.96067C1.38303 18.2627 0.915039 17.7947 0.915039 17.2171V11.1101C0.915039 10.5324 1.38303 10.0645 1.96067 10.0645H4.17183Z" fill="url(#paint2_linear_2637_11091)"/>
<path id="Subtract_2" fill-rule="evenodd" clip-rule="evenodd" d="M1.96067 9.02004H7.72942C8.30707 9.02004 8.77505 8.55205 8.77505 7.9744V1.86741C8.77505 1.28976 8.30707 0.821777 7.72942 0.821777H1.96067C1.38303 0.821777 0.915039 1.28976 0.915039 1.86741V7.9744C0.915039 8.55205 1.38303 9.02004 1.96067 9.02004ZM4.17183 3.37649V0.82187H5.51721V3.37649L4.82977 2.9811L4.17183 3.37649Z" fill="url(#paint3_linear_2637_11091)"/>
<path id="Subtract_3" fill-rule="evenodd" clip-rule="evenodd" d="M10.5066 9.02004H16.2753C16.853 9.02004 17.321 8.55205 17.321 7.9744V1.86741C17.321 1.28976 16.853 0.821777 16.2753 0.821777H10.5066C9.92892 0.821777 9.46094 1.28976 9.46094 1.86741V7.9744C9.46094 8.55205 9.92892 9.02004 10.5066 9.02004ZM12.7182 3.37649V0.82187H14.0635V3.37649L13.3761 2.9811L12.7182 3.37649Z" fill="url(#paint4_linear_2637_11091)"/>
<path id="Subtract_4" fill-rule="evenodd" clip-rule="evenodd" d="M12.7182 10.0645V12.619L13.3761 12.2236L14.0635 12.619V10.0645H16.2753C16.853 10.0645 17.321 10.5324 17.321 11.1101V17.2171C17.321 17.7947 16.853 18.2627 16.2753 18.2627H10.5066C9.92892 18.2627 9.46094 17.7947 9.46094 17.2171V11.1101C9.46094 10.5324 9.92892 10.0645 10.5066 10.0645H12.7182Z" fill="url(#paint5_linear_2637_11091)"/>
</g>
</g>
</g>
</g>
<defs>
<linearGradient id="paint0_linear_2637_11091" x1="4.9855" y1="10.157" x2="26.8657" y2="25.1621" gradientUnits="userSpaceOnUse">
<stop offset="0.111708" stop-color="#7D818C"/>
<stop offset="0.334653" stop-color="#6B6F7A"/>
<stop offset="0.682205" stop-color="#464A55"/>
<stop offset="1" stop-color="#2E313D"/>
</linearGradient>
<linearGradient id="paint1_linear_2637_11091" x1="4.9855" y1="10.157" x2="26.8657" y2="25.1621" gradientUnits="userSpaceOnUse">
<stop offset="0.111708" stop-color="#7D818C"/>
<stop offset="0.334653" stop-color="#6B6F7A"/>
<stop offset="0.682205" stop-color="#464A55"/>
<stop offset="1" stop-color="#2E313D"/>
</linearGradient>
<linearGradient id="paint2_linear_2637_11091" x1="4.12194" y1="10.7679" x2="4.96456" y2="18.2493" gradientUnits="userSpaceOnUse">
<stop stop-color="#676B76"/>
<stop offset="1" stop-color="#4C505B"/>
</linearGradient>
<linearGradient id="paint3_linear_2637_11091" x1="7.97237" y1="0.821777" x2="1.80515" y2="9.60295" gradientUnits="userSpaceOnUse">
<stop offset="1.07673e-07" stop-color="#FF6565"/>
<stop offset="0.9944" stop-color="#FF3434"/>
</linearGradient>
<linearGradient id="paint4_linear_2637_11091" x1="12.6678" y1="1.52521" x2="13.5105" y2="9.00658" gradientUnits="userSpaceOnUse">
<stop stop-color="#676B76"/>
<stop offset="1" stop-color="#4C505B"/>
</linearGradient>
<linearGradient id="paint5_linear_2637_11091" x1="12.6678" y1="10.7679" x2="13.5105" y2="18.2493" gradientUnits="userSpaceOnUse">
<stop stop-color="#676B76"/>
<stop offset="1" stop-color="#4C505B"/>
</linearGradient>
</defs>
</svg>
