<svg width="23" height="22" viewBox="0 0 23 22" fill="none" xmlns="http://www.w3.org/2000/svg">
<g id="Group 4865293">
<g id="Group 4865913">
<path id="Subtract" fill-rule="evenodd" clip-rule="evenodd" d="M16.9885 5.0225C16.9885 7.79636 14.7995 10.045 12.0993 10.045C9.39913 10.045 7.21018 7.79636 7.21018 5.0225C7.21018 2.24865 9.39913 0 12.0993 0C14.7995 0 16.9885 2.24865 16.9885 5.0225ZM12.0993 10.045C17.5891 10.045 21.9313 14.4639 22.8215 19.8424C22.9882 20.8488 22.227 21.7654 21.2331 21.7654H2.53423C1.54034 21.7654 0.779171 20.8488 0.945836 19.8424C1.83607 14.4639 6.60958 10.045 12.0993 10.045ZM9.858 10.7588C9.7748 10.6629 9.8284 10.5129 9.95352 10.4915L11.8132 10.1731C11.8506 10.1667 11.8888 10.1668 11.9261 10.1736L13.7514 10.5034C13.8742 10.5256 13.9275 10.6719 13.8477 10.7678L12.7196 12.1241C12.6554 12.2012 12.6304 12.3035 12.6517 12.4015L13.6871 17.1729C13.7079 17.2685 13.6846 17.3683 13.6237 17.4448L12.1382 19.3117C12.0078 19.4755 11.7589 19.4755 11.6284 19.3117L10.143 17.4448C10.0821 17.3683 10.0588 17.2685 10.0796 17.1729L11.1141 12.4056C11.1359 12.3053 11.1091 12.2006 11.0418 12.123L9.858 10.7588Z" fill="white"/>
<g id="Group 4866204">
<path id="Subtract_2" fill-rule="evenodd" clip-rule="evenodd" d="M16.4047 6.1329C16.4047 8.74092 14.3466 10.8551 11.8078 10.8551C9.26899 10.8551 7.2109 8.74092 7.2109 6.1329C7.2109 3.52487 9.26899 1.41064 11.8078 1.41064C14.3466 1.41064 16.4047 3.52487 16.4047 6.1329ZM1.59925 20.1918C1.44255 21.138 2.15821 21.9998 3.09268 21.9998H20.6738C21.6082 21.9998 22.3239 21.138 22.1672 20.1918C21.4308 15.7429 18.0255 12.2276 13.7027 11.4466C13.765 11.5018 13.7796 11.6015 13.7201 11.6731L12.6761 12.9281C12.612 13.0052 12.587 13.1075 12.6082 13.2055L13.5778 17.6734C13.5986 17.769 13.5753 17.8688 13.5144 17.9453L12.1387 19.6742C12.0083 19.8381 11.7594 19.8381 11.6289 19.6742L10.2533 17.9453C10.1924 17.8688 10.1691 17.769 10.1898 17.6734L11.1585 13.2096C11.1803 13.1093 11.1535 13.0046 11.0862 12.9271L9.9909 11.6648C9.93749 11.6033 9.94046 11.5194 9.98253 11.4616C5.69831 12.2718 2.331 15.7708 1.59925 20.1918Z" fill="url(#paint0_linear_2482_2654)"/>
<path id="Vector" d="M9.96253 11.4643C9.79764 11.4918 9.72769 11.6902 9.83883 11.8151L10.9957 13.1148C11.0865 13.2168 11.1227 13.3563 11.093 13.4896L10.0258 18.2838C9.99756 18.4109 10.0291 18.5439 10.1114 18.6448L11.584 20.449C11.754 20.6572 12.0723 20.6572 12.2423 20.449L13.7148 18.6448C13.7971 18.5439 13.8287 18.4109 13.8004 18.2838L12.732 13.4841C12.703 13.3539 12.7369 13.2176 12.8235 13.1161L13.9264 11.8234C14.033 11.6984 13.9635 11.5048 13.8016 11.4763L11.9705 11.1538C11.923 11.1454 11.8744 11.1452 11.8269 11.1531L9.96253 11.4643Z" fill="url(#paint1_linear_2482_2654)"/>
</g>
</g>
</g>
<defs>
<linearGradient id="paint0_linear_2482_2654" x1="9.98703" y1="3.17724" x2="12.0158" y2="21.9855" gradientUnits="userSpaceOnUse">
<stop stop-color="#676B76"/>
<stop offset="1" stop-color="#4C505B"/>
</linearGradient>
<linearGradient id="paint1_linear_2482_2654" x1="11.8753" y1="12.374" x2="11.8753" y2="20.8522" gradientUnits="userSpaceOnUse">
<stop stop-color="#FF6E6E"/>
<stop offset="1" stop-color="#FF3131"/>
</linearGradient>
</defs>
</svg>
