<svg width="24" height="25" viewBox="0 0 24 25" fill="none" xmlns="http://www.w3.org/2000/svg">
<g clip-path="url(#clip0_1154_100798)">
<g clip-path="url(#clip1_1154_100798)">
<g clip-path="url(#clip2_1154_100798)">
<g clip-path="url(#clip3_1154_100798)">
<path fill-rule="evenodd" clip-rule="evenodd" d="M24 13.749C24 12.6175 23.578 11.5496 22.8356 10.7326C22.8609 10.5521 22.875 10.3693 22.875 10.1865C22.875 8.79762 22.1297 7.54605 20.9995 6.84574C20.9717 6.83227 20.9812 6.81943 20.9907 6.8068C20.9954 6.80053 21 6.79431 21 6.78809C21 5.34762 20.2331 4.06605 19.0406 3.37277C18.6656 1.59059 17.0812 0.249023 15.1875 0.249023C14.1891 0.249023 13.2753 0.623316 12.5798 1.23925V23.3613C13.2338 23.9149 14.0798 24.249 15 24.249C16.5352 24.249 17.8575 23.3218 18.4369 21.9986C20.6812 21.9662 22.5 20.1287 22.5 17.874C22.5 17.6343 22.4782 17.3945 22.4353 17.1587C23.4141 16.3225 24 15.0896 24 13.749ZM11.4205 23.3611C10.7668 23.9148 9.92174 24.249 9 24.249C7.46719 24.249 6.14062 23.3209 5.56312 21.9981C3.31687 21.9648 1.5 20.1278 1.5 17.874C1.5 17.635 1.52203 17.3959 1.56469 17.1592C0.585938 16.3215 0 15.0896 0 13.749C0 12.6006 0.449438 11.5037 1.22278 10.6825C1.15805 10.3984 1.125 10.1066 1.125 9.81152C1.125 8.40996 1.87031 7.14902 3.01406 6.45059C3.12328 5.14934 3.86063 4.01168 4.95937 3.37277C5.33437 1.59059 6.91875 0.249023 8.8125 0.249023C9.81107 0.249023 10.7249 0.623417 11.4205 1.2395V23.3611Z" fill="url(#paint0_linear_1154_100798)"/>
<mask id="path-2-outside-1_1154_100798" maskUnits="userSpaceOnUse" x="5.83447" y="6.66406" width="7" height="13" fill="black">
<rect fill="white" x="5.83447" y="6.66406" width="7" height="13"/>
<path fill-rule="evenodd" clip-rule="evenodd" d="M11.4026 8.58094H10.3721C10.1352 8.04227 9.59656 7.66406 8.97385 7.66406C8.13109 7.66406 7.44572 8.34943 7.44572 9.19219C7.44572 10.0346 8.13109 10.7203 8.97385 10.7203C9.59847 10.7203 10.1333 10.3415 10.3702 9.80344H11.4026V8.58094ZM11.4026 12.8597V14.0822H9.5851C9.24785 14.0822 8.97385 14.3562 8.97385 14.6935V15.7421C9.51198 15.979 9.89073 16.5138 9.89073 17.1385C9.89073 17.9828 9.20536 18.6666 8.3626 18.6666C7.51984 18.6666 6.83447 17.9808 6.83447 17.1385C6.83447 16.5157 7.21268 15.9771 7.75135 15.7421V14.6935C7.75135 13.6811 8.57272 12.8597 9.5851 12.8597H11.4026ZM8.3626 9.19219C8.3626 9.52838 8.63766 9.80344 8.97385 9.80344C9.31004 9.80344 9.5851 9.52838 9.5851 9.19219C9.5851 8.856 9.31004 8.58094 8.97385 8.58094C8.63766 8.58094 8.3626 8.856 8.3626 9.19219ZM8.3626 17.7497C8.70016 17.7497 8.97385 17.476 8.97385 17.1385C8.97385 16.8023 8.70016 16.5272 8.3626 16.5272C8.02504 16.5272 7.75135 16.8008 7.75135 17.1385C7.75135 17.4746 8.02504 17.7497 8.3626 17.7497Z"/>
</mask>
<path fill-rule="evenodd" clip-rule="evenodd" d="M11.4026 8.58094H10.3721C10.1352 8.04227 9.59656 7.66406 8.97385 7.66406C8.13109 7.66406 7.44572 8.34943 7.44572 9.19219C7.44572 10.0346 8.13109 10.7203 8.97385 10.7203C9.59847 10.7203 10.1333 10.3415 10.3702 9.80344H11.4026V8.58094ZM11.4026 12.8597V14.0822H9.5851C9.24785 14.0822 8.97385 14.3562 8.97385 14.6935V15.7421C9.51198 15.979 9.89073 16.5138 9.89073 17.1385C9.89073 17.9828 9.20536 18.6666 8.3626 18.6666C7.51984 18.6666 6.83447 17.9808 6.83447 17.1385C6.83447 16.5157 7.21268 15.9771 7.75135 15.7421V14.6935C7.75135 13.6811 8.57272 12.8597 9.5851 12.8597H11.4026ZM8.3626 9.19219C8.3626 9.52838 8.63766 9.80344 8.97385 9.80344C9.31004 9.80344 9.5851 9.52838 9.5851 9.19219C9.5851 8.856 9.31004 8.58094 8.97385 8.58094C8.63766 8.58094 8.3626 8.856 8.3626 9.19219ZM8.3626 17.7497C8.70016 17.7497 8.97385 17.476 8.97385 17.1385C8.97385 16.8023 8.70016 16.5272 8.3626 16.5272C8.02504 16.5272 7.75135 16.8008 7.75135 17.1385C7.75135 17.4746 8.02504 17.7497 8.3626 17.7497Z" fill="url(#paint1_linear_1154_100798)"/>
<path d="M11.4026 8.58094H11.9026V8.08094H11.4026V8.58094ZM10.3721 8.58094L9.91439 8.7822L10.0457 9.08094H10.3721V8.58094ZM10.3702 9.80344V9.30344H10.044L9.91256 9.60199L10.3702 9.80344ZM11.4026 9.80344V10.3034H11.9026V9.80344H11.4026ZM11.4026 12.8597H11.9026V12.3597H11.4026V12.8597ZM11.4026 14.0822V14.5822H11.9026V14.0822H11.4026ZM8.97385 15.7421H8.47385V16.0683L8.77242 16.1998L8.97385 15.7421ZM7.75135 15.7421L7.95125 16.2004L8.25135 16.0695V15.7421H7.75135ZM11.4026 8.08094H10.3721V9.08094H11.4026V8.08094ZM10.8298 8.37968C10.5167 7.66764 9.80364 7.16406 8.97385 7.16406V8.16406C9.38949 8.16406 9.75376 8.41691 9.91439 8.7822L10.8298 8.37968ZM8.97385 7.16406C7.85495 7.16406 6.94572 8.07329 6.94572 9.19219H7.94572C7.94572 8.62557 8.40723 8.16406 8.97385 8.16406V7.16406ZM6.94572 9.19219C6.94572 10.3106 7.85487 11.2203 8.97385 11.2203V10.2203C8.40731 10.2203 7.94572 9.75851 7.94572 9.19219H6.94572ZM8.97385 11.2203C9.80688 11.2203 10.5152 10.7149 10.8278 10.0049L9.91256 9.60199C9.75139 9.9681 9.39007 10.2203 8.97385 10.2203V11.2203ZM10.3702 10.3034H11.4026V9.30344H10.3702V10.3034ZM10.9026 8.58094V9.80344H11.9026V8.58094H10.9026ZM10.9026 12.8597V14.0822H11.9026V12.8597H10.9026ZM9.5851 14.5822H11.4026V13.5822H9.5851V14.5822ZM9.47385 14.6935C9.47385 14.6323 9.52399 14.5822 9.5851 14.5822V13.5822C8.9717 13.5822 8.47385 14.0801 8.47385 14.6935H9.47385ZM9.47385 15.7421V14.6935H8.47385V15.7421H9.47385ZM10.3907 17.1385C10.3907 16.3055 9.88541 15.5971 9.17528 15.2845L8.77242 16.1998C9.13856 16.3609 9.39073 16.7222 9.39073 17.1385H10.3907ZM8.3626 19.1666C9.48118 19.1666 10.3907 18.2592 10.3907 17.1385H9.39073C9.39073 17.7063 8.92955 18.1666 8.3626 18.1666V19.1666ZM6.33447 17.1385C6.33447 18.2569 7.24361 19.1666 8.3626 19.1666V18.1666C7.79606 18.1666 7.33447 17.7048 7.33447 17.1385H6.33447ZM7.55145 15.2838C6.83793 15.595 6.33447 16.3089 6.33447 17.1385H7.33447C7.33447 16.7226 7.58744 16.3591 7.95125 16.2004L7.55145 15.2838ZM7.25135 14.6935V15.7421H8.25135V14.6935H7.25135ZM9.5851 12.3597C8.29658 12.3597 7.25135 13.4049 7.25135 14.6935H8.25135C8.25135 13.9572 8.84886 13.3597 9.5851 13.3597V12.3597ZM11.4026 12.3597H9.5851V13.3597H11.4026V12.3597ZM8.97385 9.30344C8.91381 9.30344 8.8626 9.25224 8.8626 9.19219H7.8626C7.8626 9.80452 8.36152 10.3034 8.97385 10.3034V9.30344ZM9.0851 9.19219C9.0851 9.25224 9.0339 9.30344 8.97385 9.30344V10.3034C9.58618 10.3034 10.0851 9.80452 10.0851 9.19219H9.0851ZM8.97385 9.08094C9.0339 9.08094 9.0851 9.13215 9.0851 9.19219H10.0851C10.0851 8.57986 9.58618 8.08094 8.97385 8.08094V9.08094ZM8.8626 9.19219C8.8626 9.13215 8.91381 9.08094 8.97385 9.08094V8.08094C8.36152 8.08094 7.8626 8.57986 7.8626 9.19219H8.8626ZM8.47385 17.1385C8.47385 17.1999 8.42402 17.2497 8.3626 17.2497V18.2497C8.97631 18.2497 9.47385 17.7522 9.47385 17.1385H8.47385ZM8.3626 17.0272C8.42329 17.0272 8.47385 17.0777 8.47385 17.1385H9.47385C9.47385 16.5269 8.97704 16.0272 8.3626 16.0272V17.0272ZM8.25135 17.1385C8.25135 17.077 8.30114 17.0272 8.3626 17.0272V16.0272C7.74894 16.0272 7.25135 16.5246 7.25135 17.1385H8.25135ZM8.3626 17.2497C8.30191 17.2497 8.25135 17.1992 8.25135 17.1385H7.25135C7.25135 17.7501 7.74816 18.2497 8.3626 18.2497V17.2497Z" fill="white" mask="url(#path-2-outside-1_1154_100798)"/>
<mask id="path-4-outside-2_1154_100798" maskUnits="userSpaceOnUse" x="11.1343" y="5.42822" width="7" height="13" fill="black">
<rect fill="white" x="11.1343" y="5.42822" width="7" height="13"/>
<path fill-rule="evenodd" clip-rule="evenodd" d="M12.5661 16.5113H13.5967C13.8335 17.05 14.3722 17.4282 14.9949 17.4282C15.8377 17.4282 16.523 16.7429 16.523 15.9001C16.523 15.0577 15.8377 14.372 14.9949 14.372C14.3703 14.372 13.8354 14.7508 13.5986 15.2888H12.5661V16.5113ZM12.5661 12.2326V11.0101H14.3836C14.7209 11.0101 14.9949 10.7361 14.9949 10.3988V9.35015C14.4568 9.11329 14.078 8.57845 14.078 7.95383C14.078 7.10953 14.7634 6.4257 15.6061 6.4257C16.4489 6.4257 17.1343 7.11144 17.1343 7.95383C17.1343 8.57654 16.7561 9.1152 16.2174 9.35015V10.3988C16.2174 11.4112 15.396 12.2326 14.3836 12.2326H12.5661ZM15.6061 15.9001C15.6061 15.5639 15.3311 15.2888 14.9949 15.2888C14.6587 15.2888 14.3836 15.5639 14.3836 15.9001C14.3836 16.2363 14.6587 16.5113 14.9949 16.5113C15.3311 16.5113 15.6061 16.2363 15.6061 15.9001ZM15.6061 7.34257C15.2686 7.34257 14.9949 7.61626 14.9949 7.95383C14.9949 8.29001 15.2686 8.56508 15.6061 8.56508C15.9437 8.56508 16.2174 8.29147 16.2174 7.95383C16.2174 7.61764 15.9437 7.34257 15.6061 7.34257Z"/>
</mask>
<path fill-rule="evenodd" clip-rule="evenodd" d="M12.5661 16.5113H13.5967C13.8335 17.05 14.3722 17.4282 14.9949 17.4282C15.8377 17.4282 16.523 16.7429 16.523 15.9001C16.523 15.0577 15.8377 14.372 14.9949 14.372C14.3703 14.372 13.8354 14.7508 13.5986 15.2888H12.5661V16.5113ZM12.5661 12.2326V11.0101H14.3836C14.7209 11.0101 14.9949 10.7361 14.9949 10.3988V9.35015C14.4568 9.11329 14.078 8.57845 14.078 7.95383C14.078 7.10953 14.7634 6.4257 15.6061 6.4257C16.4489 6.4257 17.1343 7.11144 17.1343 7.95383C17.1343 8.57654 16.7561 9.1152 16.2174 9.35015V10.3988C16.2174 11.4112 15.396 12.2326 14.3836 12.2326H12.5661ZM15.6061 15.9001C15.6061 15.5639 15.3311 15.2888 14.9949 15.2888C14.6587 15.2888 14.3836 15.5639 14.3836 15.9001C14.3836 16.2363 14.6587 16.5113 14.9949 16.5113C15.3311 16.5113 15.6061 16.2363 15.6061 15.9001ZM15.6061 7.34257C15.2686 7.34257 14.9949 7.61626 14.9949 7.95383C14.9949 8.29001 15.2686 8.56508 15.6061 8.56508C15.9437 8.56508 16.2174 8.29147 16.2174 7.95383C16.2174 7.61764 15.9437 7.34257 15.6061 7.34257Z" fill="url(#paint2_linear_1154_100798)"/>
<path d="M12.5661 16.5113H12.0661V17.0113H12.5661V16.5113ZM13.5967 16.5113L14.0544 16.3101L13.923 16.0113H13.5967V16.5113ZM13.5986 15.2888V15.7888H13.9248L14.0562 15.4903L13.5986 15.2888ZM12.5661 15.2888V14.7888H12.0661V15.2888H12.5661ZM12.5661 12.2326H12.0661V12.7326H12.5661V12.2326ZM12.5661 11.0101V10.5101H12.0661V11.0101H12.5661ZM14.9949 9.35015H15.4949V9.02394L15.1963 8.89252L14.9949 9.35015ZM16.2174 9.35015L16.0175 8.89185L15.7174 9.02275V9.35015H16.2174ZM12.5661 17.0113H13.5967V16.0113H12.5661V17.0113ZM13.139 16.7126C13.4521 17.4246 14.1651 17.9282 14.9949 17.9282V16.9282C14.5793 16.9282 14.215 16.6754 14.0544 16.3101L13.139 16.7126ZM14.9949 17.9282C16.1138 17.9282 17.023 17.019 17.023 15.9001H16.023C16.023 16.4667 15.5615 16.9282 14.9949 16.9282V17.9282ZM17.023 15.9001C17.023 14.7817 16.1139 13.872 14.9949 13.872V14.872C15.5614 14.872 16.023 15.3338 16.023 15.9001H17.023ZM14.9949 13.872C14.1619 13.872 13.4535 14.3774 13.1409 15.0874L14.0562 15.4903C14.2174 15.1242 14.5787 14.872 14.9949 14.872V13.872ZM13.5986 14.7888H12.5661V15.7888H13.5986V14.7888ZM13.0661 16.5113V15.2888H12.0661V16.5113H13.0661ZM13.0661 12.2326V11.0101H12.0661V12.2326H13.0661ZM14.3836 10.5101H12.5661V11.5101H14.3836V10.5101ZM14.4949 10.3988C14.4949 10.4599 14.4448 10.5101 14.3836 10.5101V11.5101C14.997 11.5101 15.4949 11.0122 15.4949 10.3988H14.4949ZM14.4949 9.35015V10.3988H15.4949V9.35015H14.4949ZM13.578 7.95383C13.578 8.78682 14.0833 9.49522 14.7935 9.80778L15.1963 8.89252C14.8302 8.73137 14.578 8.37008 14.578 7.95383H13.578ZM15.6061 5.9257C14.4876 5.9257 13.578 6.83307 13.578 7.95383H14.578C14.578 7.386 15.0392 6.9257 15.6061 6.9257V5.9257ZM17.6343 7.95383C17.6343 6.83538 16.7251 5.9257 15.6061 5.9257V6.9257C16.1727 6.9257 16.6343 7.38751 16.6343 7.95383H17.6343ZM16.4173 9.80845C17.1308 9.49724 17.6343 8.78335 17.6343 7.95383H16.6343C16.6343 8.36972 16.3813 8.73317 16.0175 8.89185L16.4173 9.80845ZM16.7174 10.3988V9.35015H15.7174V10.3988H16.7174ZM14.3836 12.7326C15.6722 12.7326 16.7174 11.6874 16.7174 10.3988H15.7174C15.7174 11.1351 15.1199 11.7326 14.3836 11.7326V12.7326ZM12.5661 12.7326H14.3836V11.7326H12.5661V12.7326ZM14.9949 15.7888C15.0549 15.7888 15.1061 15.84 15.1061 15.9001H16.1061C16.1061 15.2878 15.6072 14.7888 14.9949 14.7888V15.7888ZM14.8836 15.9001C14.8836 15.84 14.9349 15.7888 14.9949 15.7888V14.7888C14.3826 14.7888 13.8836 15.2878 13.8836 15.9001H14.8836ZM14.9949 16.0113C14.9349 16.0113 14.8836 15.9601 14.8836 15.9001H13.8836C13.8836 16.5124 14.3826 17.0113 14.9949 17.0113V16.0113ZM15.1061 15.9001C15.1061 15.9601 15.0549 16.0113 14.9949 16.0113V17.0113C15.6072 17.0113 16.1061 16.5124 16.1061 15.9001H15.1061ZM15.4949 7.95383C15.4949 7.8924 15.5447 7.84257 15.6061 7.84257V6.84257C14.9924 6.84257 14.4949 7.34012 14.4949 7.95383H15.4949ZM15.6061 8.06508C15.5455 8.06508 15.4949 8.0146 15.4949 7.95383H14.4949C14.4949 8.56542 14.9917 9.06508 15.6061 9.06508V8.06508ZM15.7174 7.95383C15.7174 8.01528 15.6676 8.06508 15.6061 8.06508V9.06508C16.2198 9.06508 16.7174 8.56765 16.7174 7.95383H15.7174ZM15.6061 7.84257C15.6668 7.84257 15.7174 7.89305 15.7174 7.95383H16.7174C16.7174 7.34223 16.2206 6.84257 15.6061 6.84257V7.84257Z" fill="white" mask="url(#path-4-outside-2_1154_100798)"/>
</g>
</g>
</g>
</g>
<defs>
<linearGradient id="paint0_linear_1154_100798" x1="9.79204" y1="2.30828" x2="12.1594" y2="24.2318" gradientUnits="userSpaceOnUse">
<stop stop-color="#676B76"/>
<stop offset="1" stop-color="#4C505B"/>
</linearGradient>
<linearGradient id="paint1_linear_1154_100798" x1="5.79535" y1="7.17415" x2="15.4755" y2="14.954" gradientUnits="userSpaceOnUse">
<stop offset="1.02546e-07" stop-color="#FF6E6E"/>
<stop offset="0.247" stop-color="#FF6565"/>
<stop offset="0.6561" stop-color="#FF4B4B"/>
<stop offset="1" stop-color="#FF3131"/>
</linearGradient>
<linearGradient id="paint2_linear_1154_100798" x1="18.1734" y1="17.9181" x2="8.49322" y2="10.1383" gradientUnits="userSpaceOnUse">
<stop offset="1.02546e-07" stop-color="#FF6E6E"/>
<stop offset="0.247" stop-color="#FF6565"/>
<stop offset="0.6561" stop-color="#FF4B4B"/>
<stop offset="1" stop-color="#FF3131"/>
</linearGradient>
<clipPath id="clip0_1154_100798">
<rect width="24" height="24" fill="white" transform="translate(0 0.249023)"/>
</clipPath>
<clipPath id="clip1_1154_100798">
<rect width="24" height="24" fill="white" transform="translate(0 0.249023)"/>
</clipPath>
<clipPath id="clip2_1154_100798">
<rect width="24" height="24" fill="white" transform="translate(0 0.249023)"/>
</clipPath>
<clipPath id="clip3_1154_100798">
<rect width="24" height="24" fill="white" transform="translate(0 0.249023)"/>
</clipPath>
</defs>
</svg>
