<svg width="29" height="26" viewBox="0 0 29 26" fill="none" xmlns="http://www.w3.org/2000/svg">
<path fill-rule="evenodd" clip-rule="evenodd" d="M14.9842 5.24771C14.9842 7.79483 12.9043 9.85968 10.3386 9.85968C7.77291 9.85968 5.693 7.79483 5.693 5.24771C5.693 2.70059 7.77291 0.635742 10.3386 0.635742C12.9043 0.635742 14.9842 2.70059 14.9842 5.24771ZM0.0218391 18.9782C-0.136523 19.9024 0.58673 20.744 1.53111 20.744H19.2986C20.243 20.744 20.9662 19.9024 20.8079 18.9782C20.0594 14.6083 16.5826 11.1606 12.1782 10.4244C12.27 10.493 12.2945 10.6318 12.2114 10.7284L11.2502 11.8452C11.164 11.9453 11.1302 12.0804 11.1592 12.2093L12.1154 16.4676C12.1437 16.5934 12.1123 16.7253 12.0303 16.8248L10.7377 18.3946C10.5706 18.5977 10.2597 18.5977 10.0926 18.3946L8.79997 16.8248C8.71801 16.7253 8.68659 16.5934 8.71484 16.4676L9.66988 12.2147C9.69952 12.0827 9.66345 11.9446 9.57308 11.844L8.56513 10.7214C8.48787 10.6354 8.49859 10.5133 8.56797 10.4387C4.20316 11.2044 0.765552 14.6359 0.0218391 18.9782Z" fill="url(#paint0_linear_2382_33564)"/>
<mask id="path-2-inside-1_2382_33564" fill="white">
<path fill-rule="evenodd" clip-rule="evenodd" d="M24.4805 8.57439C25.0319 8.57362 25.6705 9.20759 25.6697 9.75499L25.6628 14.5857C25.6619 15.17 24.9426 15.2167 24.3903 14.6684L23.2863 13.5723L13.4632 23.3243C13.1357 23.6495 12.6046 23.6495 12.277 23.3243L10.8121 21.87C10.4846 21.5448 10.4846 21.0176 10.8121 20.6924L20.6352 10.9405L19.5312 9.84447C18.9789 9.29617 19.026 8.58206 19.6145 8.58124L24.4805 8.57439Z"/>
</mask>
<path fill-rule="evenodd" clip-rule="evenodd" d="M24.4805 8.57439C25.0319 8.57362 25.6705 9.20759 25.6697 9.75499L25.6628 14.5857C25.6619 15.17 24.9426 15.2167 24.3903 14.6684L23.2863 13.5723L13.4632 23.3243C13.1357 23.6495 12.6046 23.6495 12.277 23.3243L10.8121 21.87C10.4846 21.5448 10.4846 21.0176 10.8121 20.6924L20.6352 10.9405L19.5312 9.84447C18.9789 9.29617 19.026 8.58206 19.6145 8.58124L24.4805 8.57439Z" fill="url(#paint1_linear_2382_33564)"/>
<path d="M25.6697 9.75499L26.2988 9.75588L26.2988 9.75588L25.6697 9.75499ZM24.4805 8.57439L24.4796 7.94987L24.4805 8.57439ZM25.6628 14.5857L26.2919 14.5866L26.2919 14.5866L25.6628 14.5857ZM24.3903 14.6684L23.9455 15.11L24.3903 14.6684ZM23.2863 13.5723L23.7311 13.1307L23.2863 12.6891L22.8415 13.1307L23.2863 13.5723ZM13.4632 23.3243L13.9081 23.7659L13.9081 23.7659L13.4632 23.3243ZM12.277 23.3243L12.7218 22.8827L12.277 23.3243ZM10.8121 21.87L11.257 21.4284L10.8121 21.87ZM10.8121 20.6924L11.257 21.134L11.257 21.134L10.8121 20.6924ZM20.6352 10.9405L21.0801 11.3821L21.5249 10.9405L21.0801 10.4989L20.6352 10.9405ZM19.5312 9.84447L19.9761 9.40286L19.5312 9.84447ZM19.6145 8.58124L19.6136 7.95671L19.6136 7.95671L19.6145 8.58124ZM26.2988 9.75588C26.2995 9.25867 26.0251 8.8135 25.727 8.51752C25.4288 8.22154 24.9804 7.94917 24.4796 7.94987L24.4813 9.19892C24.5319 9.19885 24.6785 9.24307 24.8373 9.40073C24.9961 9.55839 25.0407 9.70391 25.0406 9.75411L26.2988 9.75588ZM26.2919 14.5866L26.2988 9.75588L25.0406 9.75411L25.0337 14.5849L26.2919 14.5866ZM23.9455 15.11C24.3113 15.4731 24.7967 15.706 25.2744 15.6749C25.5212 15.6589 25.7868 15.5679 25.9928 15.3571C26.2025 15.1425 26.2915 14.8641 26.2919 14.5866L25.0337 14.5849C25.0337 14.5995 25.0325 14.546 25.0897 14.4874C25.1433 14.4325 25.1945 14.4284 25.1923 14.4286C25.1877 14.4289 25.1473 14.4288 25.0761 14.3976C25.0074 14.3675 24.9225 14.3135 24.8352 14.2268L23.9455 15.11ZM22.8415 14.014L23.9455 15.11L24.8352 14.2268L23.7311 13.1307L22.8415 14.014ZM22.8415 13.1307L13.0184 22.8827L13.9081 23.7659L23.7311 14.014L22.8415 13.1307ZM13.0184 22.8827C12.9365 22.964 12.8037 22.964 12.7218 22.8827L11.8322 23.7659C12.4054 24.335 13.3348 24.335 13.9081 23.7659L13.0184 22.8827ZM12.7218 22.8827L11.257 21.4284L10.3673 22.3116L11.8322 23.7659L12.7218 22.8827ZM11.257 21.4284C11.1751 21.3471 11.1751 21.2153 11.257 21.134L10.3673 20.2508C9.79408 20.8199 9.79407 21.7425 10.3673 22.3116L11.257 21.4284ZM11.257 21.134L21.0801 11.3821L20.1904 10.4989L10.3673 20.2508L11.257 21.134ZM19.0864 10.2861L20.1904 11.3821L21.0801 10.4989L19.9761 9.40286L19.0864 10.2861ZM19.6136 7.95671C19.3341 7.9571 19.0536 8.04546 18.8375 8.25359C18.6252 8.45808 18.5335 8.72183 18.5173 8.96679C18.4861 9.44103 18.7206 9.92296 19.0864 10.2861L19.9761 9.40286C19.8887 9.31613 19.8343 9.23186 19.804 9.16368C19.7725 9.09299 19.7725 9.05292 19.7728 9.04832C19.7729 9.0461 19.7688 9.0969 19.7135 9.15014C19.6545 9.207 19.6006 9.20578 19.6154 9.20576L19.6136 7.95671ZM24.4796 7.94987L19.6136 7.95671L19.6154 9.20576L24.4813 9.19892L24.4796 7.94987Z" fill="white" mask="url(#path-2-inside-1_2382_33564)"/>
<defs>
<linearGradient id="paint0_linear_2382_33564" x1="8.49856" y1="2.36108" x2="10.4149" y2="20.744" gradientUnits="userSpaceOnUse">
<stop stop-color="#676B76"/>
<stop offset="1" stop-color="#4C505B"/>
</linearGradient>
<linearGradient id="paint1_linear_2382_33564" x1="22.1809" y1="8.49455" x2="16.7472" y2="20.4074" gradientUnits="userSpaceOnUse">
<stop stop-color="#FF6565"/>
<stop offset="1" stop-color="#FF3131"/>
</linearGradient>
</defs>
</svg>
