<svg width="25" height="23" viewBox="0 0 25 23" fill="none" xmlns="http://www.w3.org/2000/svg">
<path fill-rule="evenodd" clip-rule="evenodd" d="M16.1125 0.979492C15.9513 0.979492 15.7967 1.04354 15.6827 1.15754C15.5687 1.27154 15.5046 1.42617 15.5046 1.58739V2.19529H5.77822V1.58739C5.77822 1.42617 5.71417 1.27154 5.60017 1.15754C5.48617 1.04354 5.33154 0.979492 5.17032 0.979492C5.00909 0.979492 4.85447 1.04354 4.74047 1.15754C4.62647 1.27154 4.56242 1.42617 4.56242 1.58739V2.19529H3.34662C2.70172 2.19529 2.08324 2.45148 1.62722 2.90749C1.17121 3.3635 0.915026 3.98199 0.915026 4.62689V18.0007C0.915026 18.6456 1.17121 19.2641 1.62722 19.7201C2.08324 20.1761 2.70172 20.4323 3.34662 20.4323H17.9362C18.5811 20.4323 19.1996 20.1761 19.6556 19.7201C20.1116 19.2641 20.3678 18.6456 20.3678 18.0007V4.62689C20.3678 3.98199 20.1116 3.3635 19.6556 2.90749C19.1996 2.45148 18.5811 2.19529 17.9362 2.19529H16.7204V1.58739C16.7204 1.42617 16.6564 1.27154 16.5424 1.15754C16.4283 1.04354 16.2737 0.979492 16.1125 0.979492ZM19.152 5.84269V18.0007C19.152 18.3231 19.0239 18.6324 18.7959 18.8604C18.5679 19.0884 18.2587 19.2165 17.9362 19.2165H3.34662C3.02417 19.2165 2.71493 19.0884 2.48692 18.8604C2.25892 18.6324 2.13082 18.3231 2.13082 18.0007V5.84269H19.152ZM6.99377 8.8823C6.99377 8.72108 6.92973 8.56646 6.81573 8.45246C6.70173 8.33846 6.54711 8.27441 6.38589 8.27441H5.17013C5.00891 8.27441 4.85429 8.33846 4.74029 8.45246C4.62629 8.56646 4.56224 8.72108 4.56224 8.8823V10.0981C4.56224 10.2593 4.62629 10.4139 4.74029 10.5279C4.85429 10.6419 5.00891 10.7059 5.17013 10.7059H6.38589C6.54711 10.7059 6.70173 10.6419 6.81573 10.5279C6.92973 10.4139 6.99377 10.2593 6.99377 10.0981V8.8823ZM10.6412 0.979492C10.48 0.979492 10.3254 1.04354 10.2114 1.15754C10.0974 1.27154 10.0334 1.42615 10.0334 1.58737V2.19526H11.2491V1.58737C11.2491 1.42615 11.1851 1.27154 11.0711 1.15754C10.9571 1.04354 10.8025 0.979492 10.6412 0.979492Z" fill="url(#paint0_linear_2382_33493)"/>
<path d="M18.9467 10.6427H19.5035C19.6154 10.6427 19.7059 10.7332 19.7059 10.8451C19.7059 10.9571 19.6154 11.0476 19.5035 11.0476H18.8752C18.8724 11.049 18.8695 11.0504 18.8665 11.0517C18.8859 11.1265 18.8963 11.2049 18.8963 11.2858C18.8963 11.7988 18.4804 12.2147 17.9674 12.2147C17.4544 12.2147 17.0386 11.7988 17.0386 11.2858C17.0386 11.1966 17.0512 11.1102 17.0747 11.0285C16.9977 10.9739 16.9565 10.8745 16.9856 10.7751C17.1132 10.3407 17.5153 10.0234 17.9911 10.0234C18.417 10.0234 18.7828 10.2778 18.9467 10.6427Z" fill="url(#paint1_linear_2382_33493)"/>
<path d="M14.934 16.9693H11.7269C11.341 16.9693 11.0281 16.6563 11.0281 16.2705V12.8409C11.0281 12.455 11.341 12.1421 11.7269 12.1421H14.934C15.3199 12.1421 15.6328 12.455 15.6328 12.8409V13.6096C15.9133 12.912 16.4485 12.0944 17.0842 12.0944C17.6207 12.0944 18.0285 12.5755 17.942 13.1042L18.9086 14.3797L20.9616 13.5366C21.2202 13.4904 21.4679 13.6628 21.5141 13.922C21.5604 14.1811 21.3879 14.4283 21.1293 14.4735L18.7847 15.3691C18.5537 15.4105 18.3322 15.2776 18.2541 15.0647C18.2212 15.0394 18.1907 15.0099 18.1645 14.9751L17.7069 14.3713L17.4752 15.6195H18.8252C19.037 15.6195 19.2276 15.7087 19.3619 15.8517C19.4177 15.8722 19.4743 15.9135 19.5306 15.9772C19.656 16.0688 19.7465 16.21 19.7677 16.379L20.1382 19.3121H19.2058L19.0639 20.3057C19.0224 20.5958 18.7738 20.8115 18.4804 20.8115C18.1217 20.8115 17.8464 20.4938 17.8969 20.139L18.3318 17.0961H16.3007C16.031 17.0961 15.6869 16.9306 15.4848 16.7005C15.3569 16.8641 15.1577 16.9693 14.934 16.9693Z" fill="url(#paint2_linear_2382_33493)"/>
<path fill-rule="evenodd" clip-rule="evenodd" d="M21.4122 14.2467C21.8192 14.1688 22.1267 13.8109 22.1267 13.3812C22.1267 12.8945 21.7322 12.5 21.2455 12.5H21.0397C20.5529 12.5 20.1585 12.8944 20.1585 13.3812C20.1585 13.6108 20.2462 13.8199 20.39 13.9767H20.349C20.349 15.797 20.349 17.525 20.349 19.3115H16.9823V17.2158C16.9823 17.0944 16.9176 16.9882 16.8207 16.9299H17.0776C17.3144 16.9299 17.5063 16.738 17.5063 16.5012C17.5063 16.2645 17.3144 16.0725 17.0776 16.0725H12.1085C11.8717 16.0725 11.6798 16.2645 11.6798 16.5012C11.6798 16.738 11.8717 16.9299 12.1085 16.9299C11.2662 17.7722 11.1558 17.4341 11.1558 20.3358V20.6931C11.1558 20.8774 11.3049 21.0265 11.4892 21.0265H12.1585C12.1569 21.0581 12.1561 21.0899 12.1561 21.1218C12.1561 22.1478 12.9878 22.9795 14.0138 22.9795C15.0399 22.9795 15.8716 22.1478 15.8716 21.1218C15.8716 21.0898 15.8707 21.058 15.8691 21.0265L16.6489 21.0265C16.6522 21.0265 16.6554 21.0265 16.6587 21.0264H20.3991C20.3975 21.058 20.3967 21.0898 20.3967 21.1218C20.3967 22.1478 21.2284 22.9795 22.2544 22.9795C23.2804 22.9795 24.1121 22.1478 24.1121 21.1218C24.1121 21.077 24.1102 21.0323 24.1069 20.9884C24.2593 20.9203 24.3655 20.7672 24.3655 20.59C24.3655 19.4481 23.5903 18.4872 22.5378 18.2048V16.9228C22.5378 16.1826 22.069 15.5524 21.4122 15.3119V14.2467ZM14.0138 21.9887C13.5351 21.9887 13.1469 21.6005 13.1469 21.1218C13.1469 20.6431 13.5351 20.2549 14.0138 20.2549C14.4926 20.2549 14.8808 20.6431 14.8808 21.1218C14.8808 21.6005 14.4926 21.9887 14.0138 21.9887ZM21.3874 21.1218C21.3874 21.6005 21.7757 21.9887 22.2544 21.9887C22.7331 21.9887 23.1213 21.6005 23.1213 21.1218C23.1213 21.0894 23.1189 21.058 23.1156 21.0265C23.0684 20.5926 22.7007 20.2549 22.2544 20.2549C21.8081 20.2549 21.4408 20.5926 21.3932 21.0265C21.3894 21.058 21.3874 21.0894 21.3874 21.1218Z" fill="url(#paint3_linear_2382_33493)"/>
<defs>
<linearGradient id="paint0_linear_2382_33493" x1="5.24763" y1="33.7086" x2="20.6515" y2="2.75718" gradientUnits="userSpaceOnUse">
<stop stop-color="#101218"/>
<stop offset="1" stop-color="#70747F"/>
</linearGradient>
<linearGradient id="paint1_linear_2382_33493" x1="16.2749" y1="10.5355" x2="18.4696" y2="18.2209" gradientUnits="userSpaceOnUse">
<stop stop-color="#FF6E6E"/>
<stop offset="1" stop-color="#FF3131"/>
</linearGradient>
<linearGradient id="paint2_linear_2382_33493" x1="16.2749" y1="10.5355" x2="18.4696" y2="18.2209" gradientUnits="userSpaceOnUse">
<stop stop-color="#FF6E6E"/>
<stop offset="1" stop-color="#FF3131"/>
</linearGradient>
<linearGradient id="paint3_linear_2382_33493" x1="21.4233" y1="30.1317" x2="14.3173" y2="12.1334" gradientUnits="userSpaceOnUse">
<stop stop-color="#101218"/>
<stop offset="1" stop-color="#70747F"/>
</linearGradient>
</defs>
</svg>
