<svg width="24" height="23" viewBox="0 0 24 23" fill="none" xmlns="http://www.w3.org/2000/svg">
<path d="M21.2956 5.13379H20.023C20.0217 5.13379 20.0205 5.13425 20.0196 5.13508C20.0187 5.13591 20.0182 5.13704 20.0182 5.13821V20.0624C20.0182 20.4791 20.1983 20.8788 20.5189 21.1735C20.8395 21.4682 21.2744 21.6338 21.7278 21.6338C22.1812 21.6338 22.6161 21.4682 22.9367 21.1735C23.2573 20.8788 23.4374 20.4791 23.4374 20.0624V7.10249C23.4374 6.58036 23.2118 6.07961 22.8101 5.71041C22.4084 5.34121 21.8636 5.13379 21.2956 5.13379Z" fill="url(#paint0_linear_2382_33573)"/>
<path d="M18.8058 19.5651V2.67229C18.8058 2.41434 18.7505 2.15891 18.6431 1.92059C18.5357 1.68228 18.3783 1.46573 18.1798 1.28333C17.9814 1.10093 17.7458 0.956245 17.4865 0.85753C17.2273 0.758816 16.9494 0.708008 16.6687 0.708008H2.13702C1.57025 0.708008 1.02669 0.914959 0.625918 1.28333C0.22515 1.65171 0 2.15133 0 2.67229V19.958C0 20.6874 0.315209 21.3868 0.876285 21.9025C1.43736 22.4183 2.19834 22.708 2.99183 22.708H21.3087C21.3168 22.7081 21.3249 22.7067 21.3323 22.7038C21.3398 22.701 21.3466 22.6969 21.3523 22.6916C21.3581 22.6864 21.3626 22.6801 21.3657 22.6732C21.3687 22.6663 21.3703 22.659 21.3702 22.6515C21.3702 22.6392 21.3657 22.6272 21.3575 22.6174C21.3493 22.6077 21.3378 22.6007 21.3248 22.5975C20.6017 22.4152 19.9636 22.0198 19.5086 21.472C19.0536 20.9242 18.8067 20.2544 18.8058 19.5651ZM3.41923 5.42229C3.41923 5.21391 3.50929 5.01406 3.6696 4.86671C3.8299 4.71936 4.04733 4.63658 4.27404 4.63658H7.69327C7.91998 4.63658 8.1374 4.71936 8.29771 4.86671C8.45801 5.01406 8.54807 5.21391 8.54807 5.42229V8.56515C8.54807 8.77353 8.45801 8.97338 8.29771 9.12073C8.1374 9.26808 7.91998 9.35086 7.69327 9.35086H4.27404C4.04733 9.35086 3.8299 9.26808 3.6696 9.12073C3.50929 8.97338 3.41923 8.77353 3.41923 8.56515V5.42229ZM14.5317 18.7794H4.29808C3.83809 18.7794 3.44327 18.4543 3.4203 18.0315C3.41473 17.9253 3.43268 17.8191 3.47308 17.7195C3.51347 17.6198 3.57545 17.5287 3.65527 17.4517C3.7351 17.3747 3.8311 17.3134 3.93746 17.2715C4.04382 17.2296 4.15833 17.208 4.27404 17.208H14.5077C14.9677 17.208 15.3625 17.5331 15.3855 17.9559C15.391 18.0621 15.3731 18.1683 15.3327 18.268C15.2923 18.3676 15.2303 18.4587 15.1505 18.5357C15.0707 18.6127 14.9747 18.674 14.8683 18.7159C14.7619 18.7578 14.6474 18.7794 14.5317 18.7794ZM14.5317 15.6366H4.29808C3.83809 15.6366 3.44327 15.3115 3.4203 14.8887C3.41473 14.7824 3.43268 14.6763 3.47308 14.5766C3.51347 14.4769 3.57545 14.3858 3.65527 14.3088C3.7351 14.2318 3.8311 14.1705 3.93746 14.1287C4.04382 14.0868 4.15833 14.0652 4.27404 14.0651H14.5077C14.9677 14.0651 15.3625 14.3902 15.3855 14.8131C15.391 14.9193 15.3731 15.0255 15.3327 15.1251C15.2923 15.2248 15.2303 15.3159 15.1505 15.3929C15.0707 15.4699 14.9747 15.5312 14.8683 15.5731C14.7619 15.615 14.6474 15.6366 14.5317 15.6366ZM14.5317 9.35086H11.1365C10.6765 9.35086 10.2817 9.02577 10.2588 8.60296C10.2532 8.49673 10.2711 8.39056 10.3115 8.29089C10.3519 8.19122 10.4139 8.10012 10.4937 8.02313C10.5736 7.94613 10.6696 7.88482 10.7759 7.84294C10.8823 7.80105 10.9968 7.77945 11.1125 7.77944H14.5077C14.9677 7.77944 15.3625 8.10452 15.3855 8.52734C15.391 8.63357 15.3731 8.73974 15.3327 8.83941C15.2923 8.93908 15.2303 9.03017 15.1505 9.10717C15.0707 9.18417 14.9747 9.24547 14.8683 9.28736C14.7619 9.32925 14.6474 9.35085 14.5317 9.35086ZM14.5317 6.20801H11.1365C10.6765 6.20801 10.2817 5.88292 10.2588 5.46011C10.2532 5.35387 10.2711 5.2477 10.3115 5.14803C10.3519 5.04836 10.4139 4.95727 10.4937 4.88027C10.5736 4.80327 10.6696 4.74197 10.7759 4.70008C10.8823 4.65819 10.9968 4.63659 11.1125 4.63658H14.5077C14.9677 4.63658 15.3625 4.96167 15.3855 5.38448C15.391 5.49072 15.3731 5.59689 15.3327 5.69656C15.2923 5.79622 15.2303 5.88732 15.1505 5.96432C15.0707 6.04132 14.9747 6.10262 14.8683 6.14451C14.7619 6.18639 14.6474 6.208 14.5317 6.20801Z" fill="url(#paint1_linear_2382_33573)"/>
<defs>
<linearGradient id="paint0_linear_2382_33573" x1="21.7278" y1="5.13379" x2="21.7278" y2="21.6338" gradientUnits="userSpaceOnUse">
<stop stop-color="#FF6E6E"/>
<stop offset="1" stop-color="#FF3131"/>
</linearGradient>
<linearGradient id="paint1_linear_2382_33573" x1="8.49433" y1="2.01685" x2="10.6851" y2="22.708" gradientUnits="userSpaceOnUse">
<stop stop-color="#676B76"/>
<stop offset="1" stop-color="#4C505B"/>
</linearGradient>
</defs>
</svg>
