<svg width="25" height="24" viewBox="0 0 25 24" fill="none" xmlns="http://www.w3.org/2000/svg">
<g id="Group 4866425">
<g id="Union">
<path d="M15.1844 1.1466H16.1864C16.3878 1.1466 16.5507 1.31425 16.5507 1.52161C16.5507 1.72896 16.3878 1.89661 16.1864 1.89661H15.0558C15.0507 1.89926 15.0455 1.90181 15.0402 1.90424C15.0751 2.0428 15.0937 2.18815 15.0937 2.33797C15.0937 3.28825 14.3454 4.0586 13.4223 4.0586C12.4992 4.0586 11.7509 3.28825 11.7509 2.33797C11.7509 2.17262 11.7736 2.01271 11.8159 1.86137C11.6775 1.76013 11.6033 1.57601 11.6556 1.3919C11.8853 0.587172 12.6087 -0.000488281 13.465 -0.000488281C14.2313 -0.000488281 14.8896 0.470699 15.1844 1.1466Z" fill="url(#paint0_linear_2471_6271)"/>
<path d="M7.96403 12.8661H2.19296C1.49868 12.8661 0.935547 12.2863 0.935547 11.5716V5.21853C0.935547 4.50381 1.49868 3.92409 2.19296 3.92409H7.96403C8.6583 3.92409 9.22144 4.50381 9.22144 5.21853V6.64257C9.72607 5.35039 10.6891 3.83577 11.833 3.83577C12.7984 3.83577 13.5322 4.72691 13.3766 5.70636L15.1159 8.06912L18.8101 6.50732C19.2755 6.42173 19.7212 6.74115 19.8044 7.22116C19.8875 7.70117 19.5772 8.15912 19.1118 8.24295L14.893 9.90181C14.4773 9.97858 14.0787 9.7324 13.9382 9.33797C13.879 9.29121 13.8242 9.2365 13.777 9.17209L12.9536 8.05347L12.5367 10.3657H14.9659C15.347 10.3657 15.6899 10.531 15.9316 10.7958C16.032 10.8339 16.1338 10.9102 16.2352 11.0284C16.4608 11.198 16.6237 11.4595 16.6617 11.7726L17.3285 17.2059H15.6507L15.3954 19.0465C15.3208 19.5838 14.8734 19.9835 14.3454 19.9835C13.6999 19.9835 13.2045 19.395 13.2954 18.7376L14.0779 13.101H10.4231C9.93785 13.101 9.31871 12.7944 8.95507 12.3683C8.7249 12.6712 8.3665 12.8661 7.96403 12.8661Z" fill="url(#paint1_linear_2471_6271)"/>
</g>
<rect id="Rectangle 1485" x="1.18555" y="4.06738" width="7.896" height="8.57324" rx="0.75" fill="url(#paint2_linear_2471_6271)" stroke="white" stroke-width="0.5"/>
<path id="Subtract" fill-rule="evenodd" clip-rule="evenodd" d="M19.6216 7.82255C20.354 7.67822 20.9074 7.0153 20.9074 6.21931C20.9074 5.31776 20.1974 4.58691 19.3217 4.58691H18.9514C18.0754 4.58691 17.3657 5.31752 17.3657 6.21931C17.3657 6.64464 17.5236 7.03188 17.7823 7.32236H17.7085C17.7085 10.6942 17.7085 13.8953 17.7085 17.2047H11.6504V13.3226C11.6504 13.0976 11.534 12.901 11.3597 12.793H11.822C12.2479 12.793 12.5934 12.4374 12.5934 11.9989C12.5934 11.5603 12.2479 11.2047 11.822 11.2047H2.88036C2.45437 11.2047 2.10894 11.5603 2.10894 11.9989C2.10894 12.4374 2.45437 12.793 2.88036 12.793C1.36481 14.3532 1.16602 13.7268 1.16602 19.1021V19.7639C1.16602 20.1054 1.4343 20.3816 1.76601 20.3816H2.97039C2.96753 20.44 2.96608 20.4989 2.96608 20.558C2.96608 22.4587 4.46263 23.9993 6.30889 23.9993C8.15515 23.9993 9.6517 22.4587 9.6517 20.558C9.6517 20.4988 9.65025 20.4399 9.64737 20.3814L11.0505 20.3816C11.0563 20.3816 11.0622 20.3815 11.068 20.3813H17.7987C17.7958 20.4398 17.7943 20.4988 17.7943 20.558C17.7943 22.4587 19.2908 23.9993 21.1371 23.9993C22.9834 23.9993 24.4799 22.4587 24.4799 20.558C24.4799 20.4751 24.4765 20.3922 24.4705 20.311C24.7447 20.1848 24.9358 19.9012 24.9358 19.573C24.9358 17.4577 23.541 15.6777 21.647 15.1546V12.7798C21.647 11.4086 20.8036 10.2412 19.6216 9.79565V7.82255ZM6.30889 22.164C5.44747 22.164 4.74891 21.4448 4.74891 20.558C4.74891 19.6713 5.44747 18.9521 6.30889 18.9521C7.1703 18.9521 7.86887 19.6713 7.86887 20.558C7.86887 21.4448 7.1703 22.164 6.30889 22.164ZM19.5771 20.558C19.5771 21.4448 20.2757 22.164 21.1371 22.164C21.9985 22.164 22.6971 21.4448 22.6971 20.558C22.6971 20.498 22.6928 20.4398 22.6868 20.3816C22.6019 19.5777 21.9402 18.9521 21.1371 18.9521C20.334 18.9521 19.6731 19.5777 19.5874 20.3816C19.5805 20.4398 19.5771 20.498 19.5771 20.558Z" fill="url(#paint3_linear_2471_6271)"/>
</g>
<defs>
<linearGradient id="paint0_linear_2471_6271" x1="2.46894" y1="1.24573" x2="19.2409" y2="17.8061" gradientUnits="userSpaceOnUse">
<stop offset="1.07673e-07" stop-color="#70747F"/>
<stop offset="0.9944" stop-color="#101218"/>
</linearGradient>
<linearGradient id="paint1_linear_2471_6271" x1="2.46894" y1="1.24573" x2="19.2409" y2="17.8061" gradientUnits="userSpaceOnUse">
<stop offset="1.07673e-07" stop-color="#70747F"/>
<stop offset="0.9944" stop-color="#101218"/>
</linearGradient>
<linearGradient id="paint2_linear_2471_6271" x1="-0.974255" y1="3.41338" x2="5.98401" y2="15.877" gradientUnits="userSpaceOnUse">
<stop offset="1.02546e-07" stop-color="#FF6E6E"/>
<stop offset="0.247" stop-color="#FF6565"/>
<stop offset="0.6561" stop-color="#FF4B4B"/>
<stop offset="1" stop-color="#FF3131"/>
</linearGradient>
<linearGradient id="paint3_linear_2471_6271" x1="19.6417" y1="37.2481" x2="6.19908" y2="4.17437" gradientUnits="userSpaceOnUse">
<stop stop-color="#101218"/>
<stop offset="1" stop-color="#70747F"/>
</linearGradient>
</defs>
</svg>
