<svg width="25" height="24" viewBox="0 0 25 24" fill="none" xmlns="http://www.w3.org/2000/svg">
<path d="M11.6211 10.9265C14.4984 10.9265 16.8309 8.51039 16.8309 5.52992C16.8309 2.54945 14.4984 0.133301 11.6211 0.133301C8.74386 0.133301 6.41137 2.54945 6.41137 5.52992C6.41137 8.51039 8.74386 10.9265 11.6211 10.9265Z" fill="url(#paint0_linear_3818_102019)"/>
<path d="M11.701 11.3809C5.80562 11.3809 0.93101 15.9083 0.140562 21.7897C0.0165281 22.7125 0.757667 23.4722 1.65719 23.4722H21.7449C22.6444 23.4722 23.3855 22.7125 23.2615 21.7897C22.471 15.9083 17.5964 11.3809 11.701 11.3809Z" fill="url(#paint1_linear_3818_102019)"/>
<path fill-rule="evenodd" clip-rule="evenodd" d="M13.6023 23.8667H22.1944C23.0548 23.8667 23.7518 23.1191 23.7518 22.1963V12.4404C23.7518 11.5176 23.0548 10.77 22.1944 10.77H13.6023C12.742 10.77 12.0449 11.5176 12.0449 12.4404V22.1963C12.0449 23.1191 12.742 23.8667 13.6023 23.8667ZM16.2561 14.9095V10.9795H18.2599V14.9095L17.236 14.3013L16.2561 14.9095Z" fill="white"/>
<path fill-rule="evenodd" clip-rule="evenodd" d="M13.9627 23.5917H22.5548C23.4152 23.5917 24.1122 22.8717 24.1122 21.9831V12.5881C24.1122 11.6994 23.4152 10.9795 22.5548 10.9795H13.9627C13.1023 10.9795 12.4053 11.6994 12.4053 12.5881V21.9831C12.4053 22.8717 13.1023 23.5917 13.9627 23.5917ZM17.256 14.9095V10.9795H19.2598V14.9095L18.2359 14.3013L17.256 14.9095Z" fill="url(#paint2_linear_3818_102019)"/>
<path d="M17.2573 10.9795V14.9209L18.2373 14.3108L19.2612 14.9209V10.9795H17.2573Z" fill="white"/>
<defs>
<linearGradient id="paint0_linear_3818_102019" x1="9.62695" y1="6.625" x2="15.5423" y2="25.072" gradientUnits="userSpaceOnUse">
<stop stop-color="#676B76"/>
<stop offset="1" stop-color="#4C505B"/>
</linearGradient>
<linearGradient id="paint1_linear_3818_102019" x1="9.62695" y1="6.625" x2="15.5423" y2="25.072" gradientUnits="userSpaceOnUse">
<stop stop-color="#676B76"/>
<stop offset="1" stop-color="#4C505B"/>
</linearGradient>
<linearGradient id="paint2_linear_3818_102019" x1="9.74235" y1="10.4179" x2="19.3989" y2="27.7683" gradientUnits="userSpaceOnUse">
<stop offset="1.02546e-07" stop-color="#FF6E6E"/>
<stop offset="0.247" stop-color="#FF6565"/>
<stop offset="0.6561" stop-color="#FF4B4B"/>
<stop offset="1" stop-color="#FF3131"/>
</linearGradient>
</defs>
</svg>
