<svg width="25" height="25" viewBox="0 0 25 25" fill="none" xmlns="http://www.w3.org/2000/svg">
<g id="Group 4866424">
<g id="Group">
<g id="Group_2">
<g id="icons2_d2c copy 3">
<g id="Vector">
<path d="M12.4839 12.7524C15.3498 12.7524 17.6731 10.4291 17.6731 7.56322C17.6731 4.69731 15.3498 2.37402 12.4839 2.37402C9.61795 2.37402 7.29467 4.69731 7.29467 7.56322C7.29467 10.4291 9.61795 12.7524 12.4839 12.7524Z" fill="url(#paint0_linear_2471_212)"/>
<path d="M2.64581 24.999C1.59093 24.999 0.783049 24.052 0.959941 23.0122C1.9048 17.4552 6.74237 13.2238 12.569 13.2238C18.3957 13.2238 23.2333 17.4552 24.1781 23.0122C24.355 24.052 23.5471 24.999 22.4922 24.999H2.64581Z" fill="url(#paint1_linear_2471_212)"/>
</g>
</g>
</g>
</g>
<g id="Union">
<mask id="path-2-outside-1_2471_212" maskUnits="userSpaceOnUse" x="3.63965" y="-0.000488281" width="18" height="12" fill="black">
<rect fill="white" x="3.63965" y="-0.000488281" width="18" height="12"/>
<path fill-rule="evenodd" clip-rule="evenodd" d="M12.3092 1.00195C13.2747 0.975529 14.234 1.16445 15.1174 1.55498C16.0008 1.94552 16.7861 2.52787 17.4164 3.25976C17.9253 3.85066 18.3228 4.52706 18.5913 5.25599C19.0181 5.30217 19.4188 5.49258 19.7252 5.79899C20.0799 6.15369 20.2792 6.63477 20.2792 7.13639C20.2792 7.63802 20.0799 8.1191 19.7252 8.4738C19.3705 8.8285 18.8894 9.02777 18.3878 9.02777V9.0227C18.3776 9.02157 18.3674 9.0201 18.3572 9.01828C18.1066 8.97366 17.9397 8.73439 17.9843 8.48386C18.1297 7.66765 18.0915 6.82931 17.8725 6.02971C17.6535 5.23011 17.2591 4.48931 16.7181 3.8611C16.1771 3.23289 15.503 2.73304 14.7448 2.39783C13.9865 2.06261 13.1631 1.90046 12.3344 1.92313C11.5056 1.94581 10.6923 2.15274 9.95354 2.52891C9.21474 2.90508 8.56898 3.44105 8.06313 4.0979C7.55729 4.75475 7.20407 5.516 7.0291 6.32638C6.85414 7.13676 6.86182 7.97593 7.0516 8.78297C7.05573 8.80052 7.05879 8.81806 7.06083 8.83554C7.31616 9.4753 8.02248 10.0331 8.91964 10.3115C9.53553 10.5025 10.1713 10.5395 10.7164 10.4129C10.8249 10.1587 11.079 9.98235 11.3724 9.98689L11.8889 9.9949C12.2761 10.0009 12.5851 10.3196 12.5791 10.7068C12.5731 11.094 12.2544 11.403 11.8672 11.397L11.3507 11.389C11.2243 11.387 11.1063 11.3518 11.0048 11.2917C10.2408 11.4876 9.39522 11.4239 8.64659 11.1916C7.6548 10.8839 6.70062 10.2383 6.26947 9.32604C5.86449 9.2695 5.48609 9.08271 5.19362 8.79024C4.83892 8.43553 4.63965 7.95445 4.63965 7.45283C4.63965 6.9512 4.83892 6.47013 5.19362 6.11542C5.48703 5.82201 5.86691 5.63496 6.27337 5.57908C6.50186 4.84181 6.86021 4.14958 7.33301 3.53563C7.92234 2.77038 8.67468 2.14596 9.53541 1.7077C10.3961 1.26945 11.3437 1.02836 12.3092 1.00195Z"/>
</mask>
<path fill-rule="evenodd" clip-rule="evenodd" d="M12.3092 1.00195C13.2747 0.975529 14.234 1.16445 15.1174 1.55498C16.0008 1.94552 16.7861 2.52787 17.4164 3.25976C17.9253 3.85066 18.3228 4.52706 18.5913 5.25599C19.0181 5.30217 19.4188 5.49258 19.7252 5.79899C20.0799 6.15369 20.2792 6.63477 20.2792 7.13639C20.2792 7.63802 20.0799 8.1191 19.7252 8.4738C19.3705 8.8285 18.8894 9.02777 18.3878 9.02777V9.0227C18.3776 9.02157 18.3674 9.0201 18.3572 9.01828C18.1066 8.97366 17.9397 8.73439 17.9843 8.48386C18.1297 7.66765 18.0915 6.82931 17.8725 6.02971C17.6535 5.23011 17.2591 4.48931 16.7181 3.8611C16.1771 3.23289 15.503 2.73304 14.7448 2.39783C13.9865 2.06261 13.1631 1.90046 12.3344 1.92313C11.5056 1.94581 10.6923 2.15274 9.95354 2.52891C9.21474 2.90508 8.56898 3.44105 8.06313 4.0979C7.55729 4.75475 7.20407 5.516 7.0291 6.32638C6.85414 7.13676 6.86182 7.97593 7.0516 8.78297C7.05573 8.80052 7.05879 8.81806 7.06083 8.83554C7.31616 9.4753 8.02248 10.0331 8.91964 10.3115C9.53553 10.5025 10.1713 10.5395 10.7164 10.4129C10.8249 10.1587 11.079 9.98235 11.3724 9.98689L11.8889 9.9949C12.2761 10.0009 12.5851 10.3196 12.5791 10.7068C12.5731 11.094 12.2544 11.403 11.8672 11.397L11.3507 11.389C11.2243 11.387 11.1063 11.3518 11.0048 11.2917C10.2408 11.4876 9.39522 11.4239 8.64659 11.1916C7.6548 10.8839 6.70062 10.2383 6.26947 9.32604C5.86449 9.2695 5.48609 9.08271 5.19362 8.79024C4.83892 8.43553 4.63965 7.95445 4.63965 7.45283C4.63965 6.9512 4.83892 6.47013 5.19362 6.11542C5.48703 5.82201 5.86691 5.63496 6.27337 5.57908C6.50186 4.84181 6.86021 4.14958 7.33301 3.53563C7.92234 2.77038 8.67468 2.14596 9.53541 1.7077C10.3961 1.26945 11.3437 1.02836 12.3092 1.00195Z" fill="url(#paint2_linear_2471_212)"/>
<path d="M15.1174 1.55498L15.3195 1.09768V1.09768L15.1174 1.55498ZM12.3092 1.00195L12.3228 1.50176L12.3092 1.00195ZM17.4164 3.25976L17.0375 3.58603L17.4164 3.25976ZM18.5913 5.25599L18.1221 5.42883L18.2293 5.71974L18.5375 5.75309L18.5913 5.25599ZM19.7252 5.79899L20.0788 5.44544L20.0788 5.44543L19.7252 5.79899ZM18.3878 9.02777H17.8878V9.52777H18.3878V9.02777ZM18.3878 9.0227H18.8878V8.57487L18.4427 8.52572L18.3878 9.0227ZM18.3572 9.01828L18.2695 9.51053L18.2695 9.51054L18.3572 9.01828ZM17.9843 8.48386L18.4766 8.57153V8.57153L17.9843 8.48386ZM17.8725 6.02971L18.3547 5.89763V5.89763L17.8725 6.02971ZM16.7181 3.8611L17.097 3.53483V3.53483L16.7181 3.8611ZM14.7448 2.39783L14.9469 1.94052V1.94052L14.7448 2.39783ZM12.3344 1.92313L12.348 2.42294L12.3344 1.92313ZM9.95354 2.52891L9.72667 2.08334V2.08334L9.95354 2.52891ZM8.06313 4.0979L8.45928 4.40297L8.06313 4.0979ZM7.0291 6.32638L7.51784 6.4319L7.0291 6.32638ZM7.0516 8.78297L7.53833 8.66852L7.53833 8.66852L7.0516 8.78297ZM7.06083 8.83554L6.56421 8.89357L6.5719 8.95935L6.59645 9.02087L7.06083 8.83554ZM8.91964 10.3115L8.77149 10.789L8.77149 10.789L8.91964 10.3115ZM10.7164 10.4129L10.8296 10.8999L11.0767 10.8425L11.1763 10.6091L10.7164 10.4129ZM11.3724 9.98689L11.3646 10.4868L11.3724 9.98689ZM11.8889 9.9949L11.8812 10.4948H11.8812L11.8889 9.9949ZM11.8672 11.397L11.8749 10.8971H11.8749L11.8672 11.397ZM11.3507 11.389L11.3429 11.8889H11.3429L11.3507 11.389ZM11.0048 11.2917L11.2595 10.8615L11.0813 10.7559L10.8806 10.8074L11.0048 11.2917ZM8.64659 11.1916L8.79474 10.7141H8.79474L8.64659 11.1916ZM6.26947 9.32604L6.72153 9.11239L6.60612 8.86819L6.33861 8.83085L6.26947 9.32604ZM5.19362 8.79024L5.54717 8.43668H5.54717L5.19362 8.79024ZM5.19362 6.11542L5.54717 6.46898H5.54717L5.19362 6.11542ZM6.27337 5.57908L6.34147 6.07442L6.65675 6.03107L6.75096 5.72709L6.27337 5.57908ZM7.33301 3.53563L7.72916 3.84071V3.84071L7.33301 3.53563ZM9.53541 1.7077L9.76227 2.15327L9.53541 1.7077ZM15.3195 1.09768C14.3682 0.677124 13.3352 0.473686 12.2955 0.502132L12.3228 1.50176C13.2142 1.47737 14.0997 1.65177 14.9152 2.01229L15.3195 1.09768ZM17.7953 2.93348C17.1166 2.14534 16.2708 1.51823 15.3195 1.09768L14.9152 2.01229C15.7307 2.37281 16.4557 2.9104 17.0375 3.58603L17.7953 2.93348ZM19.0605 5.08315C18.7713 4.29819 18.3433 3.5698 17.7953 2.93348L17.0375 3.58603C17.5073 4.13152 17.8742 4.75593 18.1221 5.42883L19.0605 5.08315ZM20.0788 5.44543C19.6914 5.05802 19.1847 4.81727 18.6451 4.75889L18.5375 5.75309C18.8515 5.78706 19.1463 5.92715 19.3717 6.15254L20.0788 5.44543ZM20.7792 7.13639C20.7792 6.50216 20.5272 5.89391 20.0788 5.44544L19.3717 6.15254C19.6326 6.41348 19.7792 6.76738 19.7792 7.13639H20.7792ZM20.0788 8.82735C20.5272 8.37888 20.7792 7.77063 20.7792 7.13639H19.7792C19.7792 7.50541 19.6326 7.85931 19.3717 8.12025L20.0788 8.82735ZM18.3878 9.52777C19.022 9.52777 19.6303 9.27582 20.0788 8.82735L19.3717 8.12025C19.1107 8.38118 18.7568 8.52777 18.3878 8.52777V9.52777ZM17.8878 9.0227V9.02777H18.8878V9.0227H17.8878ZM18.2695 9.51054C18.2906 9.51429 18.3117 9.51734 18.3329 9.51968L18.4427 8.52572C18.4435 8.52581 18.4442 8.52592 18.4448 8.52602L18.2695 9.51054ZM17.4921 8.39619C17.399 8.91858 17.7471 9.41749 18.2695 9.51053L18.4448 8.52603C18.4662 8.52982 18.4804 8.5502 18.4766 8.57153L17.4921 8.39619ZM17.3902 6.1618C17.5896 6.8898 17.6244 7.65307 17.4921 8.39619L18.4766 8.57153C18.635 7.68224 18.5933 6.76883 18.3547 5.89763L17.3902 6.1618ZM16.3393 4.18738C16.8318 4.75934 17.1908 5.4338 17.3902 6.1618L18.3547 5.89763C18.1161 5.02642 17.6865 4.21929 17.097 3.53483L16.3393 4.18738ZM14.5426 2.85513C15.233 3.16033 15.8467 3.61542 16.3393 4.18738L17.097 3.53483C16.5076 2.85036 15.7731 2.30575 14.9469 1.94052L14.5426 2.85513ZM12.348 2.42294C13.1026 2.4023 13.8522 2.54994 14.5426 2.85513L14.9469 1.94052C14.1208 1.57529 13.2237 1.39861 12.3207 1.42332L12.348 2.42294ZM10.1804 2.97448C10.853 2.63199 11.5935 2.44359 12.348 2.42294L12.3207 1.42332C11.4177 1.44802 10.5316 1.67349 9.72667 2.08334L10.1804 2.97448ZM8.45928 4.40297C8.91983 3.80494 9.50776 3.31697 10.1804 2.97448L9.72667 2.08334C8.92171 2.4932 8.21813 3.07716 7.66699 3.79283L8.45928 4.40297ZM7.51784 6.4319C7.67714 5.69409 7.99873 5.00101 8.45928 4.40297L7.66699 3.79283C7.11585 4.5085 6.731 5.33791 6.54036 6.22086L7.51784 6.4319ZM7.53833 8.66852C7.36554 7.93375 7.35854 7.16972 7.51784 6.4319L6.54036 6.22086C6.34973 7.10381 6.35811 8.01812 6.56488 8.89743L7.53833 8.66852ZM7.55745 8.7775C7.5532 8.74109 7.54684 8.7047 7.53833 8.66852L6.56488 8.89743C6.56462 8.89633 6.56438 8.89503 6.56421 8.89357L7.55745 8.7775ZM9.06779 9.83391C8.25723 9.58244 7.70558 9.10214 7.52522 8.6502L6.59645 9.02087C6.92673 9.84846 7.78772 10.4838 8.77149 10.789L9.06779 9.83391ZM10.6033 9.92583C10.1579 10.0293 9.61304 10.0031 9.06779 9.83391L8.77149 10.789C9.45802 11.002 10.1848 11.0497 10.8296 10.8999L10.6033 9.92583ZM11.1763 10.6091C11.2078 10.5353 11.2813 10.4855 11.3646 10.4868L11.3801 9.48695C10.8767 9.47915 10.442 9.78208 10.2565 10.2166L11.1763 10.6091ZM11.3646 10.4868L11.8812 10.4948L11.8967 9.49496L11.3801 9.48695L11.3646 10.4868ZM11.8812 10.4948C11.9922 10.4966 12.0809 10.588 12.0792 10.6991L13.0791 10.7146C13.0893 10.0513 12.56 9.50524 11.8967 9.49496L11.8812 10.4948ZM12.0792 10.6991C12.0774 10.8101 11.986 10.8988 11.8749 10.8971L11.8594 11.8969C12.5227 11.9072 13.0688 11.3779 13.0791 10.7146L12.0792 10.6991ZM11.8749 10.8971L11.3584 10.8891L11.3429 11.8889L11.8594 11.8969L11.8749 10.8971ZM11.3584 10.8891C11.3213 10.8885 11.2881 10.8784 11.2595 10.8615L10.75 11.7219C10.9244 11.8252 11.1273 11.8856 11.3429 11.8889L11.3584 10.8891ZM8.49844 11.6691C9.31732 11.9232 10.2585 11.9993 11.129 11.776L10.8806 10.8074C10.223 10.976 9.47312 10.9245 8.79474 10.7141L8.49844 11.6691ZM5.81742 9.53969C6.32822 10.6205 7.42466 11.336 8.49844 11.6691L8.79474 10.7141C7.88494 10.4318 7.07301 9.85608 6.72153 9.11239L5.81742 9.53969ZM4.84007 9.14379C5.20987 9.51359 5.68829 9.74975 6.20034 9.82124L6.33861 8.83085C6.04068 8.78925 5.76232 8.65182 5.54717 8.43668L4.84007 9.14379ZM4.13965 7.45283C4.13965 8.08706 4.3916 8.69532 4.84007 9.14379L5.54717 8.43668C5.28624 8.17575 5.13965 7.82185 5.13965 7.45283H4.13965ZM4.84007 5.76187C4.3916 6.21034 4.13965 6.8186 4.13965 7.45283H5.13965C5.13965 7.08381 5.28624 6.72991 5.54717 6.46898L4.84007 5.76187ZM6.20526 5.08374C5.69136 5.1544 5.21106 5.39088 4.84007 5.76187L5.54717 6.46898C5.763 6.25315 6.04246 6.11553 6.34147 6.07442L6.20526 5.08374ZM6.93687 3.23056C6.42773 3.8917 6.04183 4.63713 5.79578 5.43107L6.75096 5.72709C6.96189 5.04649 7.2927 4.40746 7.72916 3.84071L6.93687 3.23056ZM9.30854 1.26213C8.38165 1.73407 7.57149 2.40649 6.93687 3.23056L7.72916 3.84071C8.27319 3.13427 8.9677 2.55784 9.76227 2.15327L9.30854 1.26213ZM12.2955 0.502132C11.2558 0.530579 10.2354 0.790196 9.30854 1.26213L9.76227 2.15327C10.5568 1.7487 11.4315 1.52614 12.3228 1.50176L12.2955 0.502132Z" fill="white" mask="url(#path-2-outside-1_2471_212)"/>
</g>
<g id="Group_3">
<path id="Vector_2" d="M14.9388 23.0436L14.9878 23.2888L14.9388 23.0436C14.9246 23.0465 14.91 23.045 14.8966 23.0395C14.8833 23.034 14.8719 23.0247 14.8639 23.0127C14.8559 23.0007 14.8516 22.9866 14.8516 22.9722C14.8516 22.9722 14.8516 22.9722 14.8516 22.9721V14.7101C14.8516 14.4338 14.9613 14.1689 15.1567 13.9736C15.352 13.7782 15.617 13.6685 15.8932 13.6685H23.6432C23.9194 13.6685 24.1844 13.7782 24.3797 13.9736C24.5751 14.1689 24.6848 14.4338 24.6848 14.7101V19.8767C24.6848 20.153 24.5751 20.418 24.3797 20.6133C24.1844 20.8087 23.9194 20.9184 23.6432 20.9184H17.4522H17.4522C17.2146 20.9184 16.9868 21.0129 16.8189 21.1808C16.8189 21.1809 16.8189 21.1809 16.8188 21.1809L14.9763 23.0234L14.9761 23.0236C14.9659 23.0338 14.9529 23.0408 14.9388 23.0436Z" fill="url(#paint3_linear_2471_212)" stroke="white" stroke-width="0.5"/>
</g>
</g>
<defs>
<linearGradient id="paint0_linear_2471_212" x1="10.4285" y1="4.31531" x2="12.6" y2="24.9958" gradientUnits="userSpaceOnUse">
<stop stop-color="#676B76"/>
<stop offset="1" stop-color="#4C505B"/>
</linearGradient>
<linearGradient id="paint1_linear_2471_212" x1="10.4285" y1="4.31531" x2="12.6" y2="24.9958" gradientUnits="userSpaceOnUse">
<stop stop-color="#676B76"/>
<stop offset="1" stop-color="#4C505B"/>
</linearGradient>
<linearGradient id="paint2_linear_2471_212" x1="11.0206" y1="1.89259" x2="11.7083" y2="11.462" gradientUnits="userSpaceOnUse">
<stop stop-color="#676B76"/>
<stop offset="1" stop-color="#4C505B"/>
</linearGradient>
<linearGradient id="paint3_linear_2471_212" x1="12.2511" y1="12.9787" x2="19.3158" y2="27.286" gradientUnits="userSpaceOnUse">
<stop offset="1.02546e-07" stop-color="#FF6E6E"/>
<stop offset="0.247" stop-color="#FF6565"/>
<stop offset="0.6561" stop-color="#FF4B4B"/>
<stop offset="1" stop-color="#FF3131"/>
</linearGradient>
</defs>
</svg>
