<svg width="25" height="24" viewBox="0 0 25 24" fill="none" xmlns="http://www.w3.org/2000/svg">
<g id="Group 4866427">
<path id="Vector" d="M24.5472 20.9194L14.4243 23.9887C14.3802 23.9988 14.335 24.001 14.2895 23.9978L3.51339 22.344C3.24606 22.3216 3.01721 22.0707 2.97798 21.7576L0.94123 5.90808C0.89501 5.53375 1.13644 5.22534 1.45744 5.25128L12.3386 6.87995C12.3841 6.88315 12.4293 6.88097 12.4734 6.87085L22.222 3.85028C22.5309 3.78073 22.8467 4.05161 22.8933 4.42722L24.9297 20.2714C24.9685 20.5832 24.8046 20.8621 24.5472 20.9194Z" fill="url(#paint0_linear_2471_161)"/>
<path id="Vector_2" d="M14.2895 23.998C14.335 24.0013 14.3802 23.9991 14.4243 23.9889L12.4734 6.8711C12.4293 6.88121 12.3841 6.8834 12.3386 6.88019L1.45744 5.25153C1.13644 5.22559 0.89501 5.53399 0.94123 5.90832L2.97798 21.7579C3.01721 22.071 3.24606 22.3218 3.51339 22.3442L14.2895 23.998Z" fill="url(#paint1_linear_2471_161)"/>
<path id="Vector 69" d="M21.5312 6.61523C20.145 6.65132 17.178 10.8262 17.5246 14.117C17.9577 18.2305 6.95899 12.4989 6.95899 12.4989C6.95899 12.4989 5.62308 20.82 2.59183 20.4763" stroke="white" stroke-width="0.8" stroke-linecap="round" stroke-dasharray="2 2"/>
<g id="Group 4866426">
<path id="Vector_3" d="M17.7242 10.9422L17.7242 10.9421C17.0759 10.0563 16.2225 8.82564 15.5321 7.60789C15.1869 6.99897 14.8845 6.39686 14.6688 5.8452C14.452 5.29035 14.3289 4.80146 14.3289 4.41445C14.3289 2.08632 16.2163 0.199512 18.5438 0.199512C20.872 0.199512 22.7588 2.08686 22.7588 4.41445C22.7588 4.80146 22.6357 5.29035 22.4188 5.8452C22.2032 6.39685 21.9007 6.99896 21.5554 7.60788C20.8649 8.82561 20.0113 10.0562 19.3624 10.9421L19.3623 10.9422C18.9571 11.4961 18.1294 11.4961 17.7242 10.9422ZM16.852 3.88427C16.852 4.82452 17.6139 5.58635 18.5541 5.58635C19.4944 5.58635 20.2562 4.82452 20.2562 3.88427C20.2562 2.94401 19.4944 2.18218 18.5541 2.18218C17.6139 2.18218 16.852 2.94401 16.852 3.88427Z" fill="url(#paint2_linear_2471_161)" stroke="white" stroke-width="0.4"/>
<path id="Ellipse 173" d="M20.1452 3.86218C20.1452 4.74654 19.4283 5.46346 18.5439 5.46346C17.6596 5.46346 16.9426 4.74654 16.9426 3.86218C16.9426 2.97782 17.6596 2.2609 18.5439 2.2609C19.4283 2.2609 20.1452 2.97782 20.1452 3.86218Z" fill="white"/>
</g>
</g>
<defs>
<linearGradient id="paint0_linear_2471_161" x1="2.88452" y1="5.09654" x2="19.4098" y2="25.6547" gradientUnits="userSpaceOnUse">
<stop offset="1.07673e-07" stop-color="#70747F"/>
<stop offset="0.9944" stop-color="#101218"/>
</linearGradient>
<linearGradient id="paint1_linear_2471_161" x1="6.43897" y1="6.85875" x2="8.98239" y2="23.8039" gradientUnits="userSpaceOnUse">
<stop stop-color="#676B76"/>
<stop offset="1" stop-color="#4C505B"/>
</linearGradient>
<linearGradient id="paint2_linear_2471_161" x1="12.1204" y1="-0.515139" x2="21.7842" y2="13.7754" gradientUnits="userSpaceOnUse">
<stop offset="1.02546e-07" stop-color="#FF6E6E"/>
<stop offset="0.247" stop-color="#FF6565"/>
<stop offset="0.6561" stop-color="#FF4B4B"/>
<stop offset="1" stop-color="#FF3131"/>
</linearGradient>
</defs>
</svg>
