<svg viewBox="0 0 16 16" fill="none" xmlns="http://www.w3.org/2000/svg">
  <path d="M11.013 1.427a1.75 1.75 0 012.474 0l1.086 1.086a1.75 1.75 0 010 2.474l-8.61 8.61c-.21.21-.47.364-.756.445l-3.251.93a.75.75 0 01-.927-.928l.929-3.25a1.75 1.75 0 01.445-.758l8.61-8.609zm1.414 1.06a.25.25 0 00-.354 0L10.811 3.75l1.439 1.44 1.263-1.263a.25.25 0 000-.354L12.427 2.487zM12.25 6.25L10.811 4.811 2.969 12.654a.25.25 0 00-.064.108l-.558 1.953 1.953-.558a.249.249 0 00.108-.064L12.25 6.25z" fill="currentColor"/>
</svg> 