<svg viewBox="0 0 15 13" fill="none" xmlns="http://www.w3.org/2000/svg">
  <path d="M7.5 3.17334C5.65885 3.17334 4.16667 4.66261 4.16667 6.50016C4.16667 8.33771 5.65964 9.82699 7.5 9.82699C9.33958 9.82699 10.8333 8.33719 10.8333 6.50276C10.8333 4.66521 9.34115 3.17334 7.5 3.17334ZM7.5 8.99528C6.12161 8.99528 5 7.87612 5 6.50016C5 5.12421 6.12161 4.00505 7.5 4.00505C8.87865 4.00505 10 5.12317 10 6.50042C10 7.87508 8.85677 8.99528 7.5 8.99528ZM14.9089 6.03493C13.4974 2.84845 10.7005 0.678223 7.5 0.678223C4.29948 0.678223 1.50234 2.85105 0.0903385 6.03493C0.0407031 6.17268 0 6.37021 0 6.50016C0 6.62952 0.0406771 6.82765 0.0903385 6.94279C1.50312 10.1519 4.29948 12.3221 7.5 12.3221C10.7005 12.3221 13.4974 10.1498 14.9089 6.9654C14.9583 6.82765 15 6.60673 15 6.50016C15 6.37021 14.9583 6.17268 14.9089 6.03493ZM14.1458 6.60932C12.8203 9.61906 10.2734 11.4904 7.5 11.4904C4.72656 11.4904 2.17969 9.61958 0.859375 6.62232C0.848437 6.59373 0.834635 6.52355 0.809896 6.50536C0.81132 6.47558 0.825154 6.40704 0.829935 6.39196C2.17917 3.35787 4.72656 1.50993 7.5 1.50993C10.2734 1.50993 12.8203 3.38075 14.1406 6.37801C14.1509 6.40608 14.1647 6.47451 14.1661 6.49348C14.1641 6.52355 14.151 6.59373 14.1458 6.60932Z" fill="currentColor"/>
</svg> 