<svg viewBox="0 0 16 16" fill="none" xmlns="http://www.w3.org/2000/svg">
  <path d="M8.75 1C8.75 0.585786 8.41421 0.25 8 0.25C7.58579 0.25 7.25 0.585786 7.25 1V9.18934L4.96967 6.90901C4.67678 6.61612 4.20191 6.61612 3.90901 6.90901C3.61612 7.20191 3.61612 7.67678 3.90901 7.96967L7.46967 11.5303C7.76256 11.8232 8.23744 11.8232 8.53033 11.5303L12.091 7.96967C12.3839 7.67678 12.3839 7.20191 12.091 6.90901C11.7981 6.61612 11.3232 6.61612 11.0303 6.90901L8.75 9.18934V1Z" fill="currentColor"/>
  <path d="M1 12.75C1.41421 12.75 1.75 13.0858 1.75 13.5V14.25H14.25V13.5C14.25 13.0858 14.5858 12.75 15 12.75C15.4142 12.75 15.75 13.0858 15.75 13.5V14.25C15.75 14.6642 15.4142 15 15 15H1C0.585786 15 0.25 14.6642 0.25 14.25V13.5C0.25 13.0858 0.585786 12.75 1 12.75Z" fill="currentColor"/>
</svg> 