<svg width="25" height="22" viewBox="0 0 25 22" fill="none" xmlns="http://www.w3.org/2000/svg">
<path fill-rule="evenodd" clip-rule="evenodd" d="M1.47559 6.05727L10.1549 0.183983C10.5246 -0.0661626 11.0107 -0.0606091 11.3745 0.197917L19.6209 6.0573H19.577C19.9328 6.23117 20.1779 6.59664 20.1779 7.01936V20.118C20.1779 20.906 19.5391 21.5448 18.7511 21.5448H15.9551C15.9949 21.4559 16.0171 21.3573 16.0171 21.2535V10.3863C16.0171 9.99226 15.6977 9.67285 15.3036 9.67285H6.24248C5.84847 9.67285 5.52905 9.99226 5.52905 10.3863V21.2535C5.52905 21.3573 5.55121 21.4559 5.59105 21.5448H2.3419C1.55387 21.5448 0.915039 20.906 0.915039 20.118V7.01936C0.915039 6.59662 1.16016 6.23114 1.51602 6.05727H1.47559ZM18.311 13.9342V10.4893H20.1253V13.9342L19.1983 13.401L18.311 13.9342Z" fill="url(#paint0_linear_2382_33380)"/>
<rect x="4.44678" y="7.94434" width="12.203" height="1.06491" rx="0.532454" fill="url(#paint1_linear_2382_33380)"/>
<path d="M23.4285 21.9998H15.0088C14.1657 21.9998 13.4827 21.3168 13.4827 20.4737V11.5603C13.4827 10.7172 14.1657 10.0342 15.0088 10.0342H23.4285C24.2716 10.0342 24.9546 10.7172 24.9546 11.5603V20.4737C24.9546 21.3168 24.2716 21.9998 23.4285 21.9998Z" fill="white"/>
<path d="M23.1082 21.5448H15.3289C14.5499 21.5448 13.9188 20.9137 13.9188 20.1347V11.8993C13.9188 11.1203 14.5499 10.4893 15.3289 10.4893H23.1082C23.8871 10.4893 24.5182 11.1203 24.5182 11.8993V20.1347C24.5182 20.9137 23.8871 21.5448 23.1082 21.5448Z" fill="url(#paint2_linear_2382_33380)"/>
<path d="M18.311 10.4893V13.9342L19.1983 13.401L20.1253 13.9342V10.4893H18.311Z" fill="url(#paint3_linear_2382_33380)"/>
<path d="M10.9974 15.6148H7.46334C7.10946 15.6148 6.82275 15.3281 6.82275 14.9742V11.2329C6.82275 10.879 7.10946 10.5923 7.46334 10.5923H10.9974C11.3513 10.5923 11.638 10.879 11.638 11.2329V14.9742C11.638 15.3281 11.3513 15.6148 10.9974 15.6148Z" fill="url(#paint4_linear_2382_33380)"/>
<path d="M8.81812 10.5923V12.1573L9.22119 11.9151L9.64233 12.1573V10.5923H8.81812Z" fill="url(#paint5_linear_2382_33380)"/>
<path d="M12.3132 21.545H8.77914C8.42525 21.545 8.13855 21.2583 8.13855 20.9044V17.163C8.13855 16.8092 8.42525 16.5225 8.77914 16.5225H12.3132C12.6671 16.5225 12.9538 16.8092 12.9538 17.163V20.9044C12.9538 21.2583 12.6671 21.545 12.3132 21.545Z" fill="url(#paint6_linear_2382_33380)"/>
<path d="M10.134 16.5225V18.0875L10.5371 17.8453L10.9583 18.0875V16.5225H10.134Z" fill="url(#paint7_linear_2382_33380)"/>
<defs>
<linearGradient id="paint0_linear_2382_33380" x1="6.25437" y1="1.4388" x2="10.5464" y2="21.5447" gradientUnits="userSpaceOnUse">
<stop stop-color="#80838D"/>
<stop offset="0.89896" stop-color="#454955"/>
</linearGradient>
<linearGradient id="paint1_linear_2382_33380" x1="6.83912" y1="6.25267" x2="12.6447" y2="11.8472" gradientUnits="userSpaceOnUse">
<stop stop-color="#FF6E6E"/>
<stop offset="1" stop-color="#FF3131"/>
</linearGradient>
<linearGradient id="paint2_linear_2382_33380" x1="18.4193" y1="9.36104" x2="20.9885" y2="20.6657" gradientUnits="userSpaceOnUse">
<stop stop-color="#7F828C"/>
<stop offset="1" stop-color="#464A56"/>
</linearGradient>
<linearGradient id="paint3_linear_2382_33380" x1="19.2182" y1="10.4893" x2="19.2182" y2="13.9342" gradientUnits="userSpaceOnUse">
<stop stop-color="#FF6565"/>
<stop offset="1" stop-color="#FF3131"/>
</linearGradient>
<linearGradient id="paint4_linear_2382_33380" x1="9.23039" y1="10.5923" x2="9.23039" y2="15.6148" gradientUnits="userSpaceOnUse">
<stop stop-color="#6E717C"/>
<stop offset="1" stop-color="#474B56"/>
</linearGradient>
<linearGradient id="paint5_linear_2382_33380" x1="9.23022" y1="10.5923" x2="9.23022" y2="12.1573" gradientUnits="userSpaceOnUse">
<stop stop-color="#FF6E6E"/>
<stop offset="1" stop-color="#FF3131"/>
</linearGradient>
<linearGradient id="paint6_linear_2382_33380" x1="10.5462" y1="16.5225" x2="10.5462" y2="21.545" gradientUnits="userSpaceOnUse">
<stop stop-color="#6E717C"/>
<stop offset="1" stop-color="#474B56"/>
</linearGradient>
<linearGradient id="paint7_linear_2382_33380" x1="10.5461" y1="16.5225" x2="10.5461" y2="18.0875" gradientUnits="userSpaceOnUse">
<stop stop-color="#FF6565"/>
<stop offset="1" stop-color="#FF3131"/>
</linearGradient>
</defs>
</svg>
